<svg width="135" height="40" viewBox="0 0 135 40" fill="none" xmlns="http://www.w3.org/2000/svg">
<path d="M124.249 0.00013H10.7566C10.3429 0.00013 9.9342 0.00013 9.5216 0.00212999C9.17621 0.00412999 8.83358 0.00993997 8.48488 0.01483C7.72733 0.0227317 6.97157 0.081806 6.22416 0.191539C5.4778 0.303662 4.75482 0.515044 4.07967 0.818537C3.40534 1.1246 2.7892 1.52229 2.25358 1.99719C1.71514 2.47076 1.26632 3.01814 0.924356 3.61828C0.581453 4.21723 0.343683 4.85905 0.219258 5.52159C0.0936495 6.1833 0.0260586 6.85263 0.0170916 7.52359C0.00662229 7.83018 0.00551669 8.1378 0 8.44444V31.5586C0.00551669 31.8691 0.00662229 32.1699 0.0170916 32.4805C0.0260614 33.1514 0.0936522 33.8207 0.219258 34.4824C0.343339 35.1453 0.581124 35.7875 0.924356 36.3867C1.26616 36.9849 1.71505 37.5301 2.25358 38.001C2.78717 38.478 3.40371 38.876 4.07967 39.1797C4.75481 39.484 5.47772 39.6967 6.22416 39.8105C6.9717 39.9194 7.72738 39.9785 8.48488 39.9873C8.83358 39.9941 9.17621 39.998 9.5216 39.998C9.93419 40 10.343 40 10.7566 40H124.249C124.655 40 125.067 40 125.472 39.998C125.816 39.998 126.169 39.9941 126.512 39.9873C127.268 39.9789 128.023 39.9198 128.769 39.8105C129.518 39.6959 130.243 39.4833 130.921 39.1797C131.597 38.8758 132.213 38.4779 132.746 38.001C133.283 37.5282 133.733 36.9835 134.079 36.3867C134.42 35.7871 134.655 35.145 134.777 34.4824C134.903 33.8207 134.973 33.1515 134.987 32.4805C134.991 32.1699 134.991 31.8691 134.991 31.5586C135 31.1953 135 30.834 135 30.4648V9.53623C135 9.17002 135 8.80674 134.991 8.44444C134.991 8.1378 134.991 7.83018 134.987 7.52355C134.973 6.85253 134.903 6.18335 134.777 5.52155C134.655 4.8594 134.419 4.21762 134.079 3.61824C133.383 2.41532 132.278 1.43615 130.921 0.818447C130.243 0.515696 129.518 0.304369 128.769 0.191449C128.023 0.0812325 127.269 0.0221377 126.512 0.01469C126.169 0.00980997 125.816 0.00394999 125.472 0.00199999C125.067 0 124.655 0 124.249 0V0.00013Z" fill="#A6A6A6"/>
<path d="M9.54027 38.998C9.19662 38.998 8.86127 38.9941 8.52032 38.9874C7.81401 38.9793 7.10934 38.9251 6.41211 38.8254C5.76198 38.7267 5.13217 38.5433 4.54347 38.2811C3.96017 38.021 3.42815 37.68 2.96779 37.2712C2.50078 36.8671 2.11196 36.3985 1.81676 35.8839C1.5183 35.3659 1.31176 34.8107 1.20431 34.2376C1.08827 33.6218 1.0255 32.9991 1.01651 32.3749C1.00936 32.1654 1 31.4679 1 31.4679V8.51947C1 8.51947 1.00997 7.83262 1.01657 7.63083C1.02517 7.00764 1.08758 6.38594 1.20327 5.77109C1.31092 5.19642 1.51762 4.63961 1.81624 4.11994C2.11036 3.60566 2.49701 3.13669 2.96122 2.7312C3.4249 2.32186 3.95862 1.97911 4.54292 1.71547C5.13027 1.45408 5.75888 1.27193 6.4077 1.17511C7.10722 1.07434 7.81433 1.01986 8.52309 1.01213L9.54082 1H125.454L126.484 1.01262C127.186 1.01997 127.887 1.07396 128.58 1.17414C129.235 1.27217 129.87 1.45559 130.464 1.71838C131.635 2.2497 132.587 3.0903 133.188 4.12236C133.482 4.63845 133.686 5.19072 133.792 5.76042C133.909 6.38031 133.974 7.0069 133.988 7.6352C133.991 7.91653 133.991 8.21873 133.991 8.51947C134 8.892 134 9.24658 134 9.60407V30.3949C134 30.7558 134 31.1079 133.991 31.463C133.991 31.786 133.991 32.082 133.987 32.3866C133.974 33.0036 133.909 33.619 133.794 34.2278C133.689 34.8051 133.483 35.3646 133.185 35.8868C132.888 36.3959 132.501 36.8605 132.039 37.2634C131.579 37.6745 131.046 38.0175 130.461 38.2792C129.869 38.5434 129.234 38.7275 128.58 38.8254C127.882 38.9257 127.178 38.9798 126.471 38.9874C126.141 38.9941 125.795 38.998 125.459 38.998L124.237 39L9.54027 38.998Z" fill="black"/>
<path d="M31.7973 20.3003C31.8081 19.4657 32.0298 18.6473 32.4418 17.9213C32.8538 17.1954 33.4428 16.5854 34.1539 16.1483C33.7021 15.5031 33.1062 14.9722 32.4134 14.5976C31.7205 14.2231 30.9499 14.0152 30.1627 13.9906C28.4835 13.8143 26.8555 14.9954 25.9998 14.9954C25.1275 14.9954 23.81 14.0081 22.3913 14.0373C21.4736 14.0669 20.5793 14.3338 19.7954 14.8118C19.0115 15.2899 18.3649 15.9629 17.9184 16.7651C15.9844 20.1136 17.427 25.0346 19.2796 27.7412C20.2065 29.0666 21.2898 30.547 22.7072 30.4945C24.0943 30.437 24.6123 29.61 26.2866 29.61C27.9454 29.61 28.4314 30.4945 29.8776 30.4611C31.366 30.437 32.3038 29.1299 33.1981 27.792C33.8641 26.8476 34.3766 25.8039 34.7166 24.6995C33.8518 24.3338 33.1139 23.7216 32.5948 22.9393C32.0757 22.157 31.7983 21.2392 31.7973 20.3003Z" fill="white"/>
<path d="M29.0659 12.2094C29.8774 11.2352 30.2772 9.98298 30.1804 8.71875C28.9406 8.84897 27.7953 9.44153 26.9728 10.3784C26.5707 10.836 26.2627 11.3685 26.0664 11.9452C25.8702 12.522 25.7896 13.1318 25.8291 13.7397C26.4493 13.7461 27.0628 13.6117 27.6234 13.3466C28.1841 13.0815 28.6773 12.6927 29.0659 12.2094Z" fill="white"/>
<path d="M49.3311 27.1397H44.5977L43.4609 30.4961H41.4561L45.9395 18.0781H48.0225L52.5059 30.4961H50.4668L49.3311 27.1397ZM45.0879 25.5908H48.8399L46.9903 20.1436H46.9385L45.0879 25.5908Z" fill="white"/>
<path d="M62.1885 25.9714C62.1885 28.7849 60.6826 30.5925 58.4102 30.5925C57.8345 30.6226 57.262 30.49 56.7582 30.2099C56.2544 29.9297 55.8397 29.5134 55.5616 29.0085H55.5186V33.4929H53.6602V21.4441H55.459V22.9499H55.4932C55.7841 22.4475 56.2059 22.0333 56.7135 21.7514C57.2211 21.4696 57.7957 21.3306 58.376 21.3493C60.6738 21.3493 62.1885 23.1657 62.1885 25.9714ZM60.2783 25.9714C60.2783 24.1384 59.3311 22.9333 57.8858 22.9333C56.4658 22.9333 55.5108 24.1638 55.5108 25.9714C55.5108 27.7956 56.4658 29.0173 57.8858 29.0173C59.3311 29.0173 60.2783 27.821 60.2783 25.9714Z" fill="white"/>
<path d="M72.1533 25.9714C72.1533 28.7849 70.6475 30.5925 68.375 30.5925C67.7994 30.6226 67.2269 30.49 66.7231 30.2099C66.2193 29.9297 65.8046 29.5134 65.5264 29.0085H65.4834V33.4929H63.625V21.444H65.4238V22.9499H65.458C65.749 22.4474 66.1707 22.0333 66.6783 21.7514C67.186 21.4696 67.7605 21.3306 68.3408 21.3493C70.6387 21.3493 72.1533 23.1657 72.1533 25.9714ZM70.2432 25.9714C70.2432 24.1384 69.2959 22.9333 67.8506 22.9333C66.4307 22.9333 65.4756 24.1638 65.4756 25.9714C65.4756 27.7956 66.4307 29.0173 67.8506 29.0173C69.2959 29.0173 70.2432 27.821 70.2432 25.9714H70.2432Z" fill="white"/>
<path d="M78.7393 27.0362C78.877 28.2676 80.0733 29.0762 81.708 29.0762C83.2744 29.0762 84.4014 28.2676 84.4014 27.1572C84.4014 26.1934 83.7217 25.6162 82.1123 25.2207L80.503 24.833C78.2227 24.2822 77.1641 23.2158 77.1641 21.4854C77.1641 19.3428 79.0313 17.8711 81.6826 17.8711C84.3066 17.8711 86.1055 19.3428 86.166 21.4854H84.29C84.1777 20.2461 83.1533 19.4981 81.6563 19.4981C80.1592 19.4981 79.1348 20.2549 79.1348 21.3565C79.1348 22.2344 79.7891 22.751 81.3897 23.1465L82.7578 23.4824C85.3057 24.0849 86.3643 25.1084 86.3643 26.9248C86.3643 29.248 84.5137 30.7031 81.5703 30.7031C78.8164 30.7031 76.957 29.2822 76.8369 27.0361L78.7393 27.0362Z" fill="white"/>
<path d="M90.375 19.3008V21.4434H92.0967V22.915H90.375V27.9062C90.375 28.6816 90.7197 29.043 91.4766 29.043C91.6809 29.0394 91.885 29.0251 92.0879 29V30.4629C91.7476 30.5264 91.4018 30.5552 91.0557 30.5488C89.2227 30.5488 88.5078 29.8603 88.5078 28.1045V22.915H87.1914V21.4434H88.5078V19.3008H90.375Z" fill="white"/>
<path d="M93.0938 25.9707C93.0938 23.1221 94.7715 21.332 97.3877 21.332C100.013 21.332 101.683 23.122 101.683 25.9707C101.683 28.8272 100.021 30.6094 97.3877 30.6094C94.7548 30.6094 93.0938 28.8271 93.0938 25.9707ZM99.7891 25.9707C99.7891 24.0166 98.8935 22.8633 97.3877 22.8633C95.8818 22.8633 94.9873 24.0254 94.9873 25.9707C94.9873 27.9326 95.8818 29.0772 97.3877 29.0772C98.8935 29.0772 99.789 27.9326 99.789 25.9707H99.7891Z" fill="white"/>
<path d="M103.215 21.444H104.987V22.985H105.03C105.15 22.5037 105.432 22.0784 105.829 21.7805C106.225 21.4826 106.712 21.3303 107.208 21.3492C107.422 21.3485 107.636 21.3717 107.845 21.4186V23.1569C107.574 23.0742 107.292 23.0363 107.01 23.0445C106.74 23.0336 106.471 23.0812 106.221 23.1841C105.971 23.287 105.746 23.4427 105.562 23.6406C105.378 23.8385 105.239 24.0738 105.155 24.3305C105.071 24.5872 105.043 24.8591 105.073 25.1275V30.4977H103.215L103.215 21.444Z" fill="white"/>
<path d="M116.413 27.8379C116.163 29.4814 114.562 30.6094 112.515 30.6094C109.881 30.6094 108.246 28.8447 108.246 26.0137C108.246 23.1738 109.89 21.332 112.437 21.332C114.941 21.332 116.517 23.0527 116.517 25.7978V26.4346H110.122V26.5469C110.093 26.8801 110.134 27.2157 110.244 27.5316C110.355 27.8474 110.531 28.1362 110.761 28.3787C110.991 28.6213 111.271 28.8121 111.581 28.9384C111.89 29.0647 112.223 29.1236 112.558 29.1113C112.997 29.1525 113.437 29.0508 113.814 28.8213C114.191 28.5919 114.484 28.247 114.648 27.8379L116.413 27.8379ZM110.131 25.1357H114.657C114.674 24.8361 114.628 24.5363 114.524 24.2551C114.419 23.9739 114.257 23.7174 114.049 23.5016C113.84 23.2858 113.59 23.1155 113.312 23.0013C113.035 22.8871 112.737 22.8314 112.437 22.8379C112.134 22.8361 111.834 22.8942 111.554 23.009C111.274 23.1237 111.019 23.2928 110.805 23.5064C110.591 23.72 110.421 23.974 110.305 24.2537C110.189 24.5333 110.13 24.8331 110.131 25.1357V25.1357Z" fill="white"/>
<path d="M37.4297 11.7153C37.4297 9.78026 38.459 8.58495 40.1172 8.58495C40.7148 8.55535 41.3018 8.75156 41.7615 9.13464C42.2211 9.51771 42.52 10.0596 42.5986 10.6528H41.6758C41.5984 10.3013 41.3998 9.98814 41.1149 9.76813C40.83 9.54812 40.4769 9.43524 40.1172 9.44921C39.0459 9.44921 38.376 10.3218 38.376 11.7153C38.376 13.105 39.0459 13.977 40.1211 13.977C40.4676 14.003 40.8124 13.9074 41.0961 13.7067C41.3798 13.5061 41.5848 13.2128 41.6758 12.8774H42.5986C42.5086 13.4565 42.2035 13.9803 41.7443 14.3444C41.2851 14.7084 40.7054 14.8858 40.1211 14.8413C38.4629 14.8413 37.4297 13.6465 37.4297 11.7153Z" fill="white"/>
<path d="M43.6126 12.4458C43.5843 12.1498 43.6181 11.8513 43.712 11.5692C43.8058 11.2871 43.9576 11.0278 44.1575 10.8078C44.3574 10.5878 44.6012 10.4121 44.873 10.2918C45.1449 10.1715 45.4389 10.1094 45.7361 10.1094C46.0334 10.1094 46.3274 10.1715 46.5992 10.2918C46.8711 10.4121 47.1148 10.5878 47.3147 10.8078C47.5147 11.0278 47.6664 11.2871 47.7603 11.5692C47.8541 11.8513 47.888 12.1498 47.8597 12.4458C47.8885 12.742 47.8551 13.041 47.7615 13.3235C47.6679 13.606 47.5162 13.8658 47.3162 14.0862C47.1162 14.3067 46.8723 14.4828 46.6002 14.6033C46.3281 14.7239 46.0337 14.7861 45.7361 14.7861C45.4385 14.7861 45.1442 14.7239 44.872 14.6033C44.5999 14.4828 44.356 14.3067 44.156 14.0862C43.956 13.8658 43.8044 13.606 43.7108 13.3235C43.6172 13.041 43.5837 12.742 43.6126 12.4458ZM46.9456 12.4458C46.9456 11.4697 46.5071 10.8989 45.7376 10.8989C44.9651 10.8989 44.5306 11.4697 44.5306 12.4458C44.5306 13.4297 44.9652 13.9961 45.7376 13.9961C46.5071 13.996 46.9456 13.4257 46.9456 12.4458H46.9456Z" fill="white"/>
<path d="M49.0518 10.1929H49.9072V10.9082H49.9736C50.0863 10.6513 50.2763 10.436 50.5172 10.2921C50.758 10.1483 51.0378 10.0833 51.3174 10.106C51.5365 10.0895 51.7565 10.1226 51.9611 10.2027C52.1657 10.2827 52.3496 10.4079 52.4993 10.5687C52.649 10.7295 52.7606 10.922 52.8258 11.1318C52.891 11.3416 52.9081 11.5634 52.876 11.7808V14.6958H51.9873V12.004C51.9873 11.2803 51.6729 10.9205 51.0156 10.9205C50.8669 10.9135 50.7184 10.9388 50.5803 10.9947C50.4423 11.0505 50.3179 11.1355 50.2158 11.2439C50.1137 11.3523 50.0362 11.4815 49.9886 11.6226C49.9411 11.7637 49.9247 11.9135 49.9404 12.0616V14.6958H49.0518V10.1929Z" fill="white"/>
<path d="M55.8965 10.1094C56.9092 10.1094 57.5713 10.5806 57.6582 11.3745H56.8057C56.7237 11.0439 56.4004 10.833 55.8965 10.833C55.4004 10.833 55.0235 11.0684 55.0235 11.4199C55.0235 11.6889 55.251 11.8584 55.7393 11.9702L56.4873 12.1436C57.3438 12.3423 57.7451 12.7104 57.7451 13.3721C57.7451 14.2197 56.9551 14.7861 55.8799 14.7861C54.8086 14.7861 54.1103 14.3022 54.0312 13.5044H54.9209C54.9976 13.6943 55.1358 13.8529 55.3135 13.9548C55.4911 14.0568 55.6978 14.096 55.9004 14.0664C56.4541 14.0664 56.8477 13.8184 56.8477 13.4585C56.8477 13.1899 56.6368 13.0161 56.1856 12.9087L55.4004 12.7266C54.544 12.5239 54.1475 12.1396 54.1475 11.4697C54.1475 10.6714 54.8789 10.1094 55.8965 10.1094Z" fill="white"/>
<path d="M58.8672 9.44189L59.9053 8.01953H60.9473L59.7852 9.44189H58.8672ZM58.959 10.1948H59.8438V14.6978H58.959V10.1948Z" fill="white"/>
<path d="M61.2275 15.1504H62.1367C62.2119 15.477 62.5879 15.688 63.1875 15.688C63.9277 15.688 64.3662 15.3364 64.3662 14.7412V13.8769H64.2998C64.1604 14.1188 63.9568 14.3175 63.7116 14.451C63.4664 14.5845 63.189 14.6476 62.9102 14.6333C61.7607 14.6333 61.0498 13.7446 61.0498 12.3964C61.0498 11.0234 61.7686 10.122 62.9189 10.122C63.2048 10.1121 63.4878 10.1809 63.7372 10.3209C63.9866 10.4609 64.1927 10.6668 64.333 10.916H64.4033V10.1967H65.2549V14.7367C65.2549 15.7665 64.4482 16.4199 63.1748 16.4199C62.0498 16.4199 61.3223 15.9155 61.2275 15.1504ZM64.3828 12.3921C64.3828 11.4951 63.9189 10.9204 63.1621 10.9204C62.3975 10.9204 61.9678 11.4951 61.9678 12.3921C61.9678 13.2895 62.3975 13.8642 63.1621 13.8642C63.9238 13.8642 64.3828 13.2939 64.3828 12.3921Z" fill="white"/>
<path d="M70.4675 14.6982H69.611V13.9829H69.5407C69.4269 14.2425 69.2342 14.4597 68.99 14.6037C68.7459 14.7477 68.4626 14.8112 68.1803 14.7852C67.9625 14.8006 67.744 14.7671 67.5409 14.6871C67.3377 14.6071 67.155 14.4826 67.0063 14.3228C66.8575 14.163 66.7464 13.9719 66.6811 13.7635C66.6159 13.5551 66.5981 13.3348 66.6291 13.1187V10.1953H67.5192V12.8872C67.5192 13.6147 67.8122 13.9624 68.4655 13.9624C68.617 13.9768 68.7698 13.9572 68.9127 13.905C69.0556 13.8528 69.1851 13.7694 69.2917 13.6608C69.3982 13.5522 69.4792 13.4212 69.5287 13.2773C69.5782 13.1334 69.595 12.9803 69.5778 12.8291V10.1953H70.4675V14.6982Z" fill="white"/>
<path d="M75.6911 13.4835C75.5703 13.895 75.3087 14.251 74.9521 14.4892C74.5954 14.7273 74.1663 14.8325 73.7399 14.7862C73.4432 14.794 73.1484 14.7372 72.8759 14.6197C72.6034 14.5022 72.3598 14.3267 72.1619 14.1056C71.9639 13.8845 71.8165 13.6229 71.7298 13.3391C71.6431 13.0553 71.6193 12.756 71.6598 12.462C71.6203 12.1671 71.6446 11.8672 71.7311 11.5825C71.8176 11.2978 71.9643 11.0351 72.1611 10.812C72.358 10.5889 72.6005 10.4107 72.8722 10.2895C73.1439 10.1683 73.4385 10.1069 73.736 10.1095C74.9889 10.1095 75.7448 10.9655 75.7448 12.3795V12.6896H72.5651V12.7394C72.5512 12.9046 72.5719 13.0709 72.6261 13.2277C72.6802 13.3844 72.7665 13.5281 72.8794 13.6496C72.9923 13.771 73.1293 13.8676 73.2817 13.933C73.4341 13.9984 73.5985 14.0312 73.7643 14.0294C73.9769 14.0549 74.1922 14.0166 74.383 13.9194C74.5738 13.8222 74.7313 13.6704 74.8356 13.4835L75.6911 13.4835ZM72.5651 12.0323H74.8395C74.8507 11.8812 74.8302 11.7294 74.7792 11.5867C74.7282 11.4439 74.648 11.3135 74.5436 11.2036C74.4392 11.0938 74.313 11.0069 74.1731 10.9488C74.0331 10.8906 73.8826 10.8623 73.7311 10.8658C73.5774 10.8639 73.4249 10.8927 73.2825 10.9507C73.1401 11.0086 73.0108 11.0945 72.9021 11.2032C72.7934 11.3119 72.7076 11.4413 72.6498 11.5837C72.5919 11.7261 72.5631 11.8786 72.5651 12.0323Z" fill="white"/>
<path d="M76.9795 8.4375H77.8682V14.6982H76.9795V8.4375Z" fill="white"/>
<path d="M79.1028 12.4458C79.0745 12.1498 79.1084 11.8513 79.2022 11.5692C79.296 11.2871 79.4478 11.0278 79.6477 10.8078C79.8477 10.5878 80.0914 10.4121 80.3632 10.2918C80.6351 10.1715 80.9291 10.1094 81.2264 10.1094C81.5236 10.1094 81.8176 10.1715 82.0895 10.2918C82.3613 10.4121 82.605 10.5878 82.805 10.8078C83.0049 11.0278 83.1567 11.2871 83.2505 11.5692C83.3443 11.8513 83.3782 12.1498 83.3499 12.4458C83.3787 12.742 83.3453 13.041 83.2517 13.3235C83.1581 13.606 83.0064 13.8658 82.8064 14.0862C82.6065 14.3067 82.3626 14.4828 82.0904 14.6033C81.8183 14.7239 81.524 14.7861 81.2264 14.7861C80.9287 14.7861 80.6344 14.7239 80.3623 14.6033C80.0902 14.4828 79.8463 14.3067 79.6463 14.0862C79.4463 13.8658 79.2946 13.606 79.201 13.3235C79.1074 13.041 79.074 12.742 79.1028 12.4458ZM82.4358 12.4458C82.4358 11.4697 81.9973 10.8989 81.2278 10.8989C80.4554 10.8989 80.0208 11.4697 80.0208 12.4458C80.0208 13.4297 80.4554 13.9961 81.2278 13.9961C81.9974 13.996 82.4358 13.4257 82.4358 12.4458H82.4358Z" fill="white"/>
<path d="M90.7936 13.4835C90.6729 13.895 90.4113 14.251 90.0546 14.4892C89.6979 14.7273 89.2688 14.8325 88.8424 14.7862C88.5458 14.794 88.251 14.7372 87.9785 14.6197C87.706 14.5022 87.4623 14.3267 87.2644 14.1056C87.0665 13.8845 86.9191 13.6229 86.8324 13.3391C86.7457 13.0553 86.7218 12.756 86.7624 12.462C86.7229 12.1671 86.7472 11.8672 86.8337 11.5825C86.9202 11.2978 87.0668 11.0351 87.2637 10.812C87.4605 10.5889 87.703 10.4107 87.9747 10.2895C88.2464 10.1683 88.541 10.1069 88.8385 10.1095C90.0915 10.1095 90.8473 10.9655 90.8473 12.3795V12.6896H87.6676V12.7394C87.6537 12.9046 87.6745 13.0709 87.7286 13.2277C87.7827 13.3844 87.869 13.5281 87.9819 13.6496C88.0949 13.771 88.2319 13.8676 88.3843 13.933C88.5367 13.9984 88.701 14.0312 88.8669 14.0294C89.0794 14.0549 89.2948 14.0166 89.4856 13.9194C89.6763 13.8222 89.8339 13.6704 89.9382 13.4835L90.7936 13.4835ZM87.6676 12.0323H89.9421C89.9533 11.8812 89.9328 11.7294 89.8818 11.5867C89.8308 11.4439 89.7506 11.3135 89.6462 11.2036C89.5418 11.0938 89.4156 11.0069 89.2757 10.9488C89.1358 10.8906 88.9852 10.8623 88.8337 10.8658C88.68 10.8639 88.5275 10.8927 88.3851 10.9507C88.2427 11.0086 88.1134 11.0945 88.0047 11.2032C87.896 11.3119 87.8102 11.4413 87.7523 11.5837C87.6944 11.7261 87.6657 11.8786 87.6676 12.0323H87.6676Z" fill="white"/>
<path d="M92.041 10.1929H92.8965V10.9082H92.9629C93.0756 10.6513 93.2656 10.436 93.5064 10.2921C93.7473 10.1483 94.027 10.0833 94.3066 10.106C94.5257 10.0895 94.7457 10.1226 94.9503 10.2027C95.1549 10.2827 95.3389 10.4079 95.4886 10.5687C95.6383 10.7295 95.7498 10.922 95.815 11.1318C95.8802 11.3416 95.8974 11.5634 95.8652 11.7808V14.6958H94.9766V12.004C94.9766 11.2803 94.6621 10.9205 94.0049 10.9205C93.8561 10.9135 93.7076 10.9388 93.5696 10.9947C93.4315 11.0505 93.3072 11.1355 93.205 11.2439C93.1029 11.3523 93.0254 11.4815 92.9779 11.6226C92.9304 11.7637 92.9139 11.9135 92.9297 12.0616V14.6958H92.041V10.1929Z" fill="white"/>
<path d="M103.49 13.4835C103.369 13.895 103.108 14.251 102.751 14.4892C102.394 14.7273 101.965 14.8325 101.539 14.7862C101.242 14.794 100.947 14.7372 100.675 14.6197C100.402 14.5022 100.159 14.3267 99.9607 14.1056C99.7628 13.8845 99.6154 13.6229 99.5287 13.3391C99.442 13.0553 99.4181 12.756 99.4587 12.462C99.4192 12.1671 99.4435 11.8672 99.53 11.5825C99.6164 11.2978 99.7631 11.0351 99.9599 10.812C100.157 10.5889 100.399 10.4107 100.671 10.2895C100.943 10.1683 101.237 10.1069 101.535 10.1095C102.788 10.1095 103.544 10.9655 103.544 12.3795V12.6896H100.364V12.7394C100.35 12.9046 100.371 13.0709 100.425 13.2277C100.479 13.3844 100.565 13.5281 100.678 13.6496C100.791 13.771 100.928 13.8676 101.081 13.933C101.233 13.9984 101.397 14.0312 101.563 14.0294C101.776 14.0549 101.991 14.0166 102.182 13.9194C102.373 13.8222 102.53 13.6704 102.634 13.4835L103.49 13.4835ZM100.364 12.0323H102.638C102.65 11.8812 102.629 11.7294 102.578 11.5867C102.527 11.4439 102.447 11.3135 102.342 11.2036C102.238 11.0938 102.112 11.0069 101.972 10.9488C101.832 10.8906 101.681 10.8623 101.53 10.8658C101.376 10.8639 101.224 10.8927 101.081 10.9507C100.939 11.0086 100.81 11.0945 100.701 11.2032C100.592 11.3119 100.506 11.4413 100.449 11.5837C100.391 11.7261 100.362 11.8786 100.364 12.0323H100.364Z" fill="white"/>
<path d="M104.778 8.4375H105.667V14.6982H104.778V8.4375Z" fill="white"/>
</svg>
