<svg width="22" height="27" viewBox="0 0 22 27" fill="none" xmlns="http://www.w3.org/2000/svg">
<path d="M18.3563 13.9066C18.3438 11.7754 19.3094 10.1691 21.2594 8.98477C20.1687 7.42227 18.5187 6.56289 16.3438 6.39727C14.2844 6.23477 12.0312 7.59727 11.2062 7.59727C10.3344 7.59727 8.34063 6.45352 6.77188 6.45352C3.53438 6.50352 0.09375 9.03477 0.09375 14.1848C0.09375 15.7066 0.371875 17.2785 0.928125 18.8973C1.67187 21.0285 4.35312 26.2504 7.15 26.166C8.6125 26.1316 9.64687 25.1285 11.55 25.1285C13.3969 25.1285 14.3531 26.166 15.9844 26.166C18.8062 26.1254 21.2313 21.3785 21.9375 19.241C18.1531 17.4566 18.3563 14.016 18.3563 13.9066ZM15.0719 4.37539C16.6562 2.49414 16.5125 0.781641 16.4656 0.166016C15.0656 0.247266 13.4469 1.11914 12.525 2.19102C11.5094 3.34102 10.9125 4.76289 11.0406 6.36602C12.5531 6.48164 13.9344 5.70352 15.0719 4.37539Z" fill="white"/>
</svg>
