<svg width="237" height="105" viewBox="0 0 237 105" fill="none" xmlns="http://www.w3.org/2000/svg">
<g filter="url(#filter0_d)">
<path d="M20 31.5046C20 25.9041 20 23.1038 21.0899 20.9647C22.0487 19.0831 23.5785 17.5532 25.4601 16.5945C27.5992 15.5046 30.3995 15.5046 36 15.5046H201C206.601 15.5046 209.401 15.5046 211.54 16.5945C213.422 17.5532 214.951 19.0831 215.91 20.9647C217 23.1038 217 25.9041 217 31.5046V63.5046C217 69.1051 217 71.9054 215.91 74.0445C214.951 75.9261 213.422 77.4559 211.54 78.4146C209.401 79.5046 206.601 79.5046 201 79.5046H36C30.3995 79.5046 27.5992 79.5046 25.4601 78.4146C23.5785 77.4559 22.0487 75.9261 21.0899 74.0445C20 71.9054 20 69.1051 20 63.5046V31.5046Z" fill="#151516"/>
<g clip-path="url(#clip0)">
<path d="M54.9645 46.4286L59.8113 41.5726C50.9586 36.3203 37.8773 28.6148 37.138 28.5046L37.0789 28.5107L54.9645 46.4286Z" fill="#08B059"/>
<path d="M36.0061 29.5857L36 29.6446V65.3642L36.0057 65.4208L53.8913 47.5032L36.0061 29.5857Z" fill="#1BB899"/>
<path d="M54.9666 48.5805L37.0818 66.4981L37.1379 66.5046C37.8806 66.386 50.9596 58.6843 59.8112 53.4342L54.9666 48.5805Z" fill="#F04F3E"/>
<path d="M67.8621 46.3644C67.8621 46.3644 65.0659 44.6932 61.1616 42.3745L56.0398 47.5059L61.1593 52.6347C65.0647 50.3156 67.8621 48.6444 67.8621 48.6444C68.4717 48.3237 69.0001 48.1341 69.0001 47.5044C69.0001 46.8751 68.3992 46.6589 67.8621 46.3644Z" fill="#F99C1C"/>
</g>
<path d="M87.3711 35.1393C87.3711 36.5534 86.9863 37.6354 86.2168 38.3854C85.4512 39.1315 84.3477 39.5046 82.9062 39.5046H80.5332V30.9382H83.1582C84.4902 30.9382 85.5254 31.3073 86.2637 32.0456C87.002 32.7839 87.3711 33.8151 87.3711 35.1393ZM86.3164 35.1745C86.3164 34.0573 86.0352 33.2155 85.4727 32.6491C84.9141 32.0827 84.082 31.7995 82.9766 31.7995H81.5293V38.6432H82.7422C83.9297 38.6432 84.8223 38.3522 85.4199 37.7702C86.0176 37.1843 86.3164 36.319 86.3164 35.1745ZM91.8535 39.6218C90.9043 39.6218 90.1543 39.3327 89.6035 38.7546C89.0566 38.1765 88.7832 37.3737 88.7832 36.3464C88.7832 35.3112 89.0371 34.489 89.5449 33.8796C90.0566 33.2702 90.7422 32.9655 91.6016 32.9655C92.4062 32.9655 93.043 33.2311 93.5117 33.7624C93.9805 34.2897 94.2148 34.987 94.2148 35.8542V36.4694H89.791C89.8105 37.2233 90 37.7956 90.3594 38.1862C90.7227 38.5768 91.2324 38.7722 91.8887 38.7722C92.5801 38.7722 93.2637 38.6276 93.9395 38.3386V39.2057C93.5957 39.3542 93.2695 39.4597 92.9609 39.5222C92.6562 39.5886 92.2871 39.6218 91.8535 39.6218ZM91.5898 33.78C91.0742 33.78 90.6621 33.9479 90.3535 34.2839C90.0488 34.6198 89.8691 35.0847 89.8145 35.6784H93.1719C93.1719 35.0651 93.0352 34.5964 92.7617 34.2722C92.4883 33.944 92.0977 33.78 91.5898 33.78ZM100.021 37.7526C100.021 38.3503 99.7988 38.8112 99.3535 39.1354C98.9082 39.4597 98.2832 39.6218 97.4785 39.6218C96.627 39.6218 95.9629 39.487 95.4863 39.2175V38.3151C95.7949 38.4714 96.125 38.5944 96.4766 38.6843C96.832 38.7741 97.1738 38.819 97.502 38.819C98.0098 38.819 98.4004 38.739 98.6738 38.5788C98.9473 38.4147 99.084 38.1667 99.084 37.8347C99.084 37.5847 98.9746 37.3718 98.7559 37.196C98.541 37.0163 98.1191 36.8054 97.4902 36.5632C96.8926 36.3405 96.4668 36.1472 96.2129 35.9831C95.9629 35.8151 95.7754 35.6257 95.6504 35.4147C95.5293 35.2038 95.4688 34.9518 95.4688 34.6589C95.4688 34.1354 95.6816 33.7233 96.1074 33.4225C96.5332 33.1179 97.1172 32.9655 97.8594 32.9655C98.5508 32.9655 99.2266 33.1061 99.8867 33.3874L99.541 34.1784C98.8965 33.9128 98.3125 33.78 97.7891 33.78C97.3281 33.78 96.9805 33.8522 96.7461 33.9968C96.5117 34.1413 96.3945 34.3405 96.3945 34.5944C96.3945 34.7663 96.4375 34.9128 96.5234 35.0339C96.6133 35.155 96.7559 35.2702 96.9512 35.3796C97.1465 35.489 97.5215 35.6472 98.0762 35.8542C98.8379 36.1315 99.3516 36.4108 99.6172 36.6921C99.8867 36.9733 100.021 37.3268 100.021 37.7526ZM104.176 39.6218C103.246 39.6218 102.525 39.3366 102.014 38.7663C101.506 38.1921 101.252 37.3815 101.252 36.3347C101.252 35.2604 101.51 34.4304 102.025 33.8444C102.545 33.2585 103.283 32.9655 104.24 32.9655C104.549 32.9655 104.857 32.9987 105.166 33.0651C105.475 33.1315 105.717 33.2097 105.893 33.2995L105.594 34.1257C105.379 34.0397 105.145 33.9694 104.891 33.9147C104.637 33.8561 104.412 33.8268 104.217 33.8268C102.912 33.8268 102.26 34.6589 102.26 36.3229C102.26 37.112 102.418 37.7175 102.734 38.1393C103.055 38.5612 103.527 38.7722 104.152 38.7722C104.688 38.7722 105.236 38.6569 105.799 38.4265V39.2878C105.369 39.5104 104.828 39.6218 104.176 39.6218ZM111.277 39.5046L111.084 38.5905H111.037C110.717 38.9929 110.396 39.2663 110.076 39.4108C109.76 39.5515 109.363 39.6218 108.887 39.6218C108.25 39.6218 107.75 39.4577 107.387 39.1296C107.027 38.8015 106.848 38.3347 106.848 37.7292C106.848 36.4323 107.885 35.7526 109.959 35.6901L111.049 35.655V35.2565C111.049 34.7526 110.939 34.3815 110.721 34.1432C110.506 33.9011 110.16 33.78 109.684 33.78C109.148 33.78 108.543 33.944 107.867 34.2722L107.568 33.528C107.885 33.3561 108.23 33.2214 108.605 33.1237C108.984 33.0261 109.363 32.9772 109.742 32.9772C110.508 32.9772 111.074 33.1472 111.441 33.487C111.812 33.8268 111.998 34.3718 111.998 35.1218V39.5046H111.277ZM109.08 38.819C109.686 38.819 110.16 38.653 110.504 38.321C110.852 37.989 111.025 37.5241 111.025 36.9265V36.3464L110.053 36.3874C109.279 36.4147 108.721 36.5358 108.377 36.7507C108.037 36.9616 107.867 37.2917 107.867 37.7409C107.867 38.0925 107.973 38.36 108.184 38.5436C108.398 38.7272 108.697 38.819 109.08 38.819ZM116.938 32.9655C117.223 32.9655 117.479 32.989 117.705 33.0358L117.57 33.9382C117.305 33.8796 117.07 33.8503 116.867 33.8503C116.348 33.8503 115.902 34.0612 115.531 34.4831C115.164 34.905 114.98 35.4304 114.98 36.0593V39.5046H114.008V33.0827H114.811L114.922 34.2722H114.969C115.207 33.8542 115.494 33.5319 115.83 33.3054C116.166 33.0788 116.535 32.9655 116.938 32.9655ZM124.162 33.0827V33.6979L122.973 33.8386C123.082 33.9753 123.18 34.155 123.266 34.3776C123.352 34.5964 123.395 34.8444 123.395 35.1218C123.395 35.7507 123.18 36.2526 122.75 36.6276C122.32 37.0026 121.73 37.1901 120.98 37.1901C120.789 37.1901 120.609 37.1745 120.441 37.1432C120.027 37.362 119.82 37.6374 119.82 37.9694C119.82 38.1452 119.893 38.2761 120.037 38.362C120.182 38.444 120.43 38.485 120.781 38.485H121.918C122.613 38.485 123.146 38.6315 123.518 38.9245C123.893 39.2175 124.08 39.6432 124.08 40.2018C124.08 40.9128 123.795 41.4538 123.225 41.8249C122.654 42.1999 121.822 42.3874 120.729 42.3874C119.889 42.3874 119.24 42.2311 118.783 41.9186C118.33 41.6061 118.104 41.1647 118.104 40.5944C118.104 40.2038 118.229 39.8659 118.479 39.5807C118.729 39.2956 119.08 39.1022 119.533 39.0007C119.369 38.9265 119.23 38.8112 119.117 38.655C119.008 38.4987 118.953 38.3171 118.953 38.11C118.953 37.8757 119.016 37.6706 119.141 37.4948C119.266 37.319 119.463 37.1491 119.732 36.985C119.4 36.8483 119.129 36.6159 118.918 36.2878C118.711 35.9597 118.607 35.5847 118.607 35.1628C118.607 34.4597 118.818 33.9186 119.24 33.5397C119.662 33.1569 120.26 32.9655 121.033 32.9655C121.369 32.9655 121.672 33.0046 121.941 33.0827H124.162ZM119.041 40.5827C119.041 40.9304 119.188 41.194 119.48 41.3737C119.773 41.5534 120.193 41.6432 120.74 41.6432C121.557 41.6432 122.16 41.5202 122.551 41.2741C122.945 41.0319 123.143 40.7018 123.143 40.2839C123.143 39.9362 123.035 39.694 122.82 39.5573C122.605 39.4245 122.201 39.3581 121.607 39.3581H120.441C120 39.3581 119.656 39.4636 119.41 39.6745C119.164 39.8854 119.041 40.1882 119.041 40.5827ZM119.568 35.1393C119.568 35.5886 119.695 35.9284 119.949 36.1589C120.203 36.3893 120.557 36.5046 121.01 36.5046C121.959 36.5046 122.434 36.0436 122.434 35.1218C122.434 34.1569 121.953 33.6745 120.992 33.6745C120.535 33.6745 120.184 33.7975 119.938 34.0436C119.691 34.2897 119.568 34.655 119.568 35.1393ZM129.43 39.5046L129.236 38.5905H129.189C128.869 38.9929 128.549 39.2663 128.229 39.4108C127.912 39.5515 127.516 39.6218 127.039 39.6218C126.402 39.6218 125.902 39.4577 125.539 39.1296C125.18 38.8015 125 38.3347 125 37.7292C125 36.4323 126.037 35.7526 128.111 35.6901L129.201 35.655V35.2565C129.201 34.7526 129.092 34.3815 128.873 34.1432C128.658 33.9011 128.312 33.78 127.836 33.78C127.301 33.78 126.695 33.944 126.02 34.2722L125.721 33.528C126.037 33.3561 126.383 33.2214 126.758 33.1237C127.137 33.0261 127.516 32.9772 127.895 32.9772C128.66 32.9772 129.227 33.1472 129.594 33.487C129.965 33.8268 130.15 34.3718 130.15 35.1218V39.5046H129.43ZM127.232 38.819C127.838 38.819 128.312 38.653 128.656 38.321C129.004 37.989 129.178 37.5241 129.178 36.9265V36.3464L128.205 36.3874C127.432 36.4147 126.873 36.5358 126.529 36.7507C126.189 36.9616 126.02 37.2917 126.02 37.7409C126.02 38.0925 126.125 38.36 126.336 38.5436C126.551 38.7272 126.85 38.819 127.232 38.819ZM127.004 32.0866C127.191 31.8444 127.393 31.5515 127.607 31.2077C127.826 30.864 127.998 30.5651 128.123 30.3112H129.307V30.4343C129.135 30.6882 128.879 31.0007 128.539 31.3718C128.199 31.7429 127.904 32.03 127.654 32.2331H127.004V32.0866ZM133.133 39.5046H132.16V30.3874H133.133V39.5046ZM140.738 36.2878C140.738 37.3347 140.475 38.153 139.947 38.7429C139.42 39.3288 138.691 39.6218 137.762 39.6218C137.188 39.6218 136.678 39.487 136.232 39.2175C135.787 38.9479 135.443 38.5612 135.201 38.0573C134.959 37.5534 134.838 36.9636 134.838 36.2878C134.838 35.2409 135.1 34.4265 135.623 33.8444C136.146 33.2585 136.873 32.9655 137.803 32.9655C138.701 32.9655 139.414 33.2643 139.941 33.862C140.473 34.4597 140.738 35.2682 140.738 36.2878ZM135.846 36.2878C135.846 37.1081 136.01 37.7331 136.338 38.1628C136.666 38.5925 137.148 38.8073 137.785 38.8073C138.422 38.8073 138.904 38.5944 139.232 38.1686C139.564 37.739 139.73 37.112 139.73 36.2878C139.73 35.4714 139.564 34.8522 139.232 34.4304C138.904 34.0046 138.418 33.7917 137.773 33.7917C137.137 33.7917 136.656 34.0007 136.332 34.4186C136.008 34.8366 135.846 35.4597 135.846 36.2878ZM148.279 39.6218C147.33 39.6218 146.58 39.3327 146.029 38.7546C145.482 38.1765 145.209 37.3737 145.209 36.3464C145.209 35.3112 145.463 34.489 145.971 33.8796C146.482 33.2702 147.168 32.9655 148.027 32.9655C148.832 32.9655 149.469 33.2311 149.938 33.7624C150.406 34.2897 150.641 34.987 150.641 35.8542V36.4694H146.217C146.236 37.2233 146.426 37.7956 146.785 38.1862C147.148 38.5768 147.658 38.7722 148.314 38.7722C149.006 38.7722 149.689 38.6276 150.365 38.3386V39.2057C150.021 39.3542 149.695 39.4597 149.387 39.5222C149.082 39.5886 148.713 39.6218 148.279 39.6218ZM148.016 33.78C147.5 33.78 147.088 33.9479 146.779 34.2839C146.475 34.6198 146.295 35.0847 146.24 35.6784H149.598C149.598 35.0651 149.461 34.5964 149.188 34.2722C148.914 33.944 148.523 33.78 148.016 33.78ZM156.699 39.5046V35.3503C156.699 34.8268 156.58 34.4362 156.342 34.1784C156.104 33.9206 155.73 33.7917 155.223 33.7917C154.551 33.7917 154.059 33.9733 153.746 34.3366C153.434 34.6999 153.277 35.2995 153.277 36.1354V39.5046H152.305V33.0827H153.096L153.254 33.9616H153.301C153.5 33.6452 153.779 33.4011 154.139 33.2292C154.498 33.0534 154.898 32.9655 155.34 32.9655C156.113 32.9655 156.695 33.153 157.086 33.528C157.477 33.8991 157.672 34.4948 157.672 35.3151V39.5046H156.699Z" fill="white"/>
<path d="M89.1025 64.5046L87.8193 60.9362H82.9062L81.6494 64.5046H79.4346L84.2422 51.6022H86.5273L91.335 64.5046H89.1025ZM87.2656 59.1257L86.0615 55.6276C85.9736 55.3932 85.8506 55.0241 85.6924 54.5202C85.54 54.0163 85.4346 53.6472 85.376 53.4128C85.2178 54.1335 84.9863 54.9216 84.6816 55.777L83.5215 59.1257H87.2656ZM97.7422 64.6804C96.5117 64.6804 95.5566 64.238 94.877 63.3532H94.7539C94.8359 64.1735 94.877 64.6716 94.877 64.8474V68.8288H92.8115V54.7839H94.4814C94.5283 54.9655 94.625 55.3991 94.7715 56.0847H94.877C95.5215 55.1003 96.4883 54.6081 97.7773 54.6081C98.9902 54.6081 99.9336 55.0475 100.607 55.9265C101.287 56.8054 101.627 58.0388 101.627 59.6266C101.627 61.2145 101.281 62.4538 100.59 63.3444C99.9043 64.235 98.9551 64.6804 97.7422 64.6804ZM97.2412 56.2956C96.4209 56.2956 95.8203 56.5358 95.4395 57.0163C95.0645 57.4968 94.877 58.2643 94.877 59.319V59.6266C94.877 60.8102 95.0645 61.6686 95.4395 62.2018C95.8145 62.7292 96.4268 62.9929 97.2764 62.9929C97.9912 62.9929 98.542 62.6999 98.9287 62.114C99.3154 61.528 99.5088 60.6931 99.5088 59.6091C99.5088 58.5192 99.3154 57.696 98.9287 57.1393C98.5479 56.5768 97.9854 56.2956 97.2412 56.2956ZM108.957 64.6804C107.727 64.6804 106.771 64.238 106.092 63.3532H105.969C106.051 64.1735 106.092 64.6716 106.092 64.8474V68.8288H104.026V54.7839H105.696C105.743 54.9655 105.84 55.3991 105.986 56.0847H106.092C106.736 55.1003 107.703 54.6081 108.992 54.6081C110.205 54.6081 111.148 55.0475 111.822 55.9265C112.502 56.8054 112.842 58.0388 112.842 59.6266C112.842 61.2145 112.496 62.4538 111.805 63.3444C111.119 64.235 110.17 64.6804 108.957 64.6804ZM108.456 56.2956C107.636 56.2956 107.035 56.5358 106.654 57.0163C106.279 57.4968 106.092 58.2643 106.092 59.319V59.6266C106.092 60.8102 106.279 61.6686 106.654 62.2018C107.029 62.7292 107.642 62.9929 108.491 62.9929C109.206 62.9929 109.757 62.6999 110.144 62.114C110.53 61.528 110.724 60.6931 110.724 59.6091C110.724 58.5192 110.53 57.696 110.144 57.1393C109.763 56.5768 109.2 56.2956 108.456 56.2956ZM127.546 61.0153C127.546 62.1579 127.133 63.0544 126.307 63.7048C125.48 64.3552 124.341 64.6804 122.888 64.6804C121.435 64.6804 120.245 64.4548 119.319 64.0036V62.0173C119.905 62.2927 120.526 62.5095 121.183 62.6677C121.845 62.8259 122.46 62.905 123.028 62.905C123.86 62.905 124.473 62.7468 124.865 62.4304C125.264 62.114 125.463 61.6891 125.463 61.1559C125.463 60.6755 125.281 60.2682 124.918 59.9343C124.555 59.6003 123.805 59.2048 122.668 58.7477C121.496 58.2731 120.67 57.7311 120.189 57.1218C119.709 56.5124 119.469 55.78 119.469 54.9245C119.469 53.8522 119.85 53.0085 120.611 52.3932C121.373 51.778 122.396 51.4704 123.679 51.4704C124.909 51.4704 126.134 51.7399 127.353 52.279L126.685 53.9929C125.542 53.5124 124.522 53.2722 123.626 53.2722C122.946 53.2722 122.431 53.4216 122.079 53.7204C121.728 54.0134 121.552 54.403 121.552 54.8893C121.552 55.2233 121.622 55.5104 121.763 55.7507C121.903 55.985 122.135 56.2077 122.457 56.4186C122.779 56.6296 123.359 56.9079 124.197 57.2536C125.141 57.6462 125.832 58.0124 126.271 58.3522C126.711 58.6921 127.033 59.0759 127.238 59.5036C127.443 59.9313 127.546 60.4352 127.546 61.0153ZM133.435 63.0104C133.938 63.0104 134.442 62.9313 134.946 62.7731V64.3288C134.718 64.4284 134.422 64.5104 134.059 64.5749C133.701 64.6452 133.329 64.6804 132.942 64.6804C130.985 64.6804 130.007 63.6491 130.007 61.5866V56.3483H128.68V55.4343L130.104 54.6784L130.807 52.6218H132.081V54.7839H134.85V56.3483H132.081V61.5515C132.081 62.0495 132.204 62.4186 132.45 62.6589C132.702 62.8932 133.03 63.0104 133.435 63.0104ZM145.52 59.6266C145.52 61.2145 145.112 62.4538 144.298 63.3444C143.483 64.235 142.35 64.6804 140.896 64.6804C139.988 64.6804 139.186 64.4753 138.488 64.0651C137.791 63.655 137.255 63.0661 136.88 62.2985C136.505 61.5309 136.317 60.6403 136.317 59.6266C136.317 58.0505 136.722 56.82 137.53 55.9352C138.339 55.0505 139.479 54.6081 140.949 54.6081C142.355 54.6081 143.469 55.0622 144.289 55.9704C145.109 56.8727 145.52 58.0915 145.52 59.6266ZM138.444 59.6266C138.444 61.8708 139.273 62.9929 140.932 62.9929C142.572 62.9929 143.393 61.8708 143.393 59.6266C143.393 57.4059 142.566 56.2956 140.914 56.2956C140.047 56.2956 139.417 56.5827 139.024 57.1569C138.638 57.7311 138.444 58.5544 138.444 59.6266ZM152.832 54.6081C153.248 54.6081 153.591 54.6374 153.86 54.696L153.658 56.6208C153.365 56.5505 153.061 56.5153 152.744 56.5153C151.918 56.5153 151.247 56.7849 150.731 57.3239C150.222 57.863 149.967 58.5632 149.967 59.4245V64.5046H147.901V54.7839H149.519L149.791 56.4977H149.896C150.219 55.9177 150.638 55.4577 151.153 55.1179C151.675 54.778 152.234 54.6081 152.832 54.6081ZM159.916 64.6804C158.404 64.6804 157.221 64.2409 156.365 63.362C155.516 62.4772 155.091 61.2614 155.091 59.7145C155.091 58.1266 155.486 56.8786 156.277 55.9704C157.068 55.0622 158.155 54.6081 159.538 54.6081C160.821 54.6081 161.835 54.9977 162.579 55.777C163.323 56.5563 163.695 57.6286 163.695 58.9938V60.11H157.218C157.247 61.0534 157.502 61.78 157.982 62.2897C158.463 62.7936 159.14 63.0456 160.013 63.0456C160.587 63.0456 161.12 62.9929 161.612 62.8874C162.11 62.7761 162.644 62.5944 163.212 62.3425V64.0212C162.708 64.2614 162.198 64.4313 161.683 64.5309C161.167 64.6306 160.578 64.6804 159.916 64.6804ZM159.538 56.1725C158.882 56.1725 158.354 56.3806 157.956 56.7966C157.563 57.2126 157.329 57.819 157.253 58.6159H161.665C161.653 57.8132 161.46 57.2067 161.085 56.7966C160.71 56.3806 160.194 56.1725 159.538 56.1725Z" fill="white"/>
</g>
<defs>
<filter id="filter0_d" x="0" y="0.504578" width="237" height="104" filterUnits="userSpaceOnUse" color-interpolation-filters="sRGB">
<feFlood flood-opacity="0" result="BackgroundImageFix"/>
<feColorMatrix in="SourceAlpha" type="matrix" values="0 0 0 0 0 0 0 0 0 0 0 0 0 0 0 0 0 0 127 0" result="hardAlpha"/>
<feOffset dy="5"/>
<feGaussianBlur stdDeviation="10"/>
<feColorMatrix type="matrix" values="0 0 0 0 0.513726 0 0 0 0 0.313726 0 0 0 0 0.901961 0 0 0 0.2 0"/>
<feBlend mode="normal" in2="BackgroundImageFix" result="effect1_dropShadow"/>
<feBlend mode="normal" in="SourceGraphic" in2="effect1_dropShadow" result="shape"/>
</filter>
<clipPath id="clip0">
<rect width="33" height="38" fill="white" transform="translate(36 28.5046)"/>
</clipPath>
</defs>
</svg>
