<svg width="32" height="32" viewBox="0 0 32 32" fill="none" xmlns="http://www.w3.org/2000/svg">
<path fill-rule="evenodd" clip-rule="evenodd" d="M25.0244 17.812C24.5524 17.2467 23.7124 17.1694 23.1471 17.6414L17.3337 22.4854V6.66536C17.3337 5.92936 16.7364 5.33203 16.0004 5.33203C15.2644 5.33203 14.6671 5.92936 14.6671 6.66536V22.4854L8.85373 17.6414C8.28706 17.1694 7.44706 17.2467 6.97639 17.812C6.50439 18.3774 6.58039 19.2187 7.14706 19.6894L15.1471 26.356C15.2097 26.4094 15.2844 26.4347 15.3537 26.4747C15.4084 26.5067 15.4564 26.544 15.5164 26.568C15.6724 26.6294 15.8351 26.6654 16.0004 26.6654C16.1657 26.6654 16.3284 26.6294 16.4844 26.568C16.5444 26.544 16.5924 26.5067 16.6471 26.4747C16.7164 26.4347 16.7911 26.4094 16.8537 26.356L24.8537 19.6894C25.4191 19.2187 25.4964 18.3774 25.0244 17.812" fill="#8350E6"/>
</svg>
