<svg width="37" height="30" viewBox="0 0 37 30" fill="none" xmlns="http://www.w3.org/2000/svg">
<path d="M10.304 13.424C12.416 13.424 14.08 14.096 15.296 15.44C16.512 16.784 17.12 18.544 17.12 20.72V22.544C17.12 24.72 16.48 26.48 15.2 27.824C13.92 29.168 12.224 29.84 10.112 29.84H8.096C5.92 29.84 4.16 29.168 2.816 27.824C1.472 26.416 0.8 24.496 0.8 22.064V20.24C0.8 17.296 1.184 14.736 1.952 12.56C2.784 10.384 4.128 7.888 5.984 5.07199C7.072 3.472 8.096 2.288 9.056 1.51999C10.08 0.687998 11.168 0.271999 12.32 0.271999C14.112 0.271999 15.648 0.847998 16.928 1.99999C14.304 4.88 12.448 7.056 11.36 8.528C10.336 9.936 9.664 11.568 9.344 13.424H10.304ZM29.504 13.424C31.616 13.424 33.28 14.096 34.496 15.44C35.712 16.784 36.32 18.544 36.32 20.72V22.544C36.32 24.72 35.68 26.48 34.4 27.824C33.12 29.168 31.424 29.84 29.312 29.84H27.296C25.12 29.84 23.36 29.168 22.016 27.824C20.672 26.416 20 24.496 20 22.064V20.24C20 17.296 20.384 14.736 21.152 12.56C21.984 10.384 23.328 7.888 25.184 5.07199C26.272 3.472 27.296 2.288 28.256 1.51999C29.28 0.687998 30.368 0.271999 31.52 0.271999C33.312 0.271999 34.848 0.847998 36.128 1.99999C33.504 4.88 31.648 7.056 30.56 8.528C29.536 9.936 28.864 11.568 28.544 13.424H29.504Z" fill="#8350E6"/>
</svg>
