<svg width="68" height="29" viewBox="0 0 68 29" fill="none" xmlns="http://www.w3.org/2000/svg">
<path d="M58.516 3.264C59.9667 3.264 61.14 3.73333 62.036 4.672C62.932 5.568 63.38 6.82667 63.38 8.448V9.664C63.38 11.6267 63.1027 13.3333 62.548 14.784C62.036 16.2347 61.1613 17.8987 59.924 19.776C59.1987 20.8427 58.4947 21.6533 57.812 22.208C57.172 22.72 56.468 22.976 55.7 22.976C54.5053 22.976 53.4813 22.592 52.628 21.824C54.3773 19.904 55.5933 18.4747 56.276 17.536C57.0013 16.5547 57.4707 15.4453 57.684 14.208H57.044C55.636 14.208 54.5267 13.76 53.716 12.864C52.9053 11.968 52.5 10.7947 52.5 9.344V8.128C52.5 6.67733 52.9267 5.504 53.78 4.608C54.6333 3.712 55.764 3.264 57.172 3.264H58.516ZM45.716 3.264C47.1667 3.264 48.34 3.73333 49.236 4.672C50.132 5.568 50.58 6.82667 50.58 8.448V9.664C50.58 11.6267 50.3027 13.3333 49.748 14.784C49.236 16.2347 48.3613 17.8987 47.124 19.776C46.3987 20.8427 45.6947 21.6533 45.012 22.208C44.372 22.72 43.668 22.976 42.9 22.976C41.7053 22.976 40.6813 22.592 39.828 21.824C41.5773 19.904 42.7933 18.4747 43.476 17.536C44.2013 16.5547 44.6707 15.4453 44.884 14.208H44.244C42.836 14.208 41.7267 13.76 40.916 12.864C40.1053 11.968 39.7 10.7947 39.7 9.344V8.128C39.7 6.67733 40.1267 5.504 40.98 4.608C41.8333 3.712 42.964 3.264 44.372 3.264H45.716Z" fill="#8350E6"/>
<path d="M10.036 10.616C11.444 10.616 12.5533 11.064 13.364 11.96C14.1747 12.856 14.58 14.0293 14.58 15.48V16.696C14.58 18.1467 14.1533 19.32 13.3 20.216C12.4467 21.112 11.316 21.56 9.908 21.56H8.564C7.11333 21.56 5.94 21.112 5.044 20.216C4.148 19.2773 3.7 17.9973 3.7 16.376V15.16C3.7 13.1973 3.956 11.4907 4.468 10.04C5.02267 8.58933 5.91867 6.92533 7.156 5.048C7.88133 3.98133 8.564 3.192 9.204 2.68C9.88667 2.12533 10.612 1.848 11.38 1.848C12.5747 1.848 13.5987 2.232 14.452 3C12.7027 4.92 11.4653 6.37066 10.74 7.352C10.0573 8.29066 9.60933 9.37866 9.396 10.616H10.036ZM22.836 10.616C24.244 10.616 25.3533 11.064 26.164 11.96C26.9747 12.856 27.38 14.0293 27.38 15.48V16.696C27.38 18.1467 26.9533 19.32 26.1 20.216C25.2467 21.112 24.116 21.56 22.708 21.56H21.364C19.9133 21.56 18.74 21.112 17.844 20.216C16.948 19.2773 16.5 17.9973 16.5 16.376V15.16C16.5 13.1973 16.756 11.4907 17.268 10.04C17.8227 8.58933 18.7187 6.92533 19.956 5.048C20.6813 3.98133 21.364 3.192 22.004 2.68C22.6867 2.12533 23.412 1.848 24.18 1.848C25.3747 1.848 26.3987 2.232 27.252 3C25.5027 4.92 24.2653 6.37066 23.54 7.352C22.8573 8.29066 22.4093 9.37866 22.196 10.616H22.836Z" fill="#8350E6"/>
</svg>
