<svg width="175" height="184" viewBox="0 0 175 184" fill="none" xmlns="http://www.w3.org/2000/svg">
<g filter="url(#filter0_d)">
<path d="M62.1178 55.2H143.349C145.244 55.2 146.733 56.6889 146.733 58.5845V126.276C146.733 128.171 145.244 129.66 143.349 129.66H133.195V139.814C133.195 141.168 132.382 142.386 131.096 142.927C130.113 143.419 128.435 143.288 127.441 142.183L114.85 129.66H62.1178C60.2222 129.66 58.7332 128.171 58.7332 126.276V58.5845C58.7332 56.6889 60.2222 55.2 62.1178 55.2Z" fill="white"/>
<rect x="33.9333" y="34.4" width="76.8" height="48.8" fill="url(#paint0_linear)"/>
<path d="M115.097 16H25.6599C23.5728 16 21.9333 17.6394 21.9333 19.7266V94.2577C21.9333 96.3443 23.5728 97.9842 25.6599 97.9842H36.8396V109.164C36.8396 110.655 37.734 111.996 39.15 112.592C40.2325 113.134 42.0806 112.989 43.1745 111.772L57.0378 97.9842H115.097C117.184 97.9842 118.824 96.3443 118.824 94.2577V19.7266C118.824 17.6394 117.184 16 115.097 16V16ZM103.918 71.8983C103.918 73.1654 103.247 74.3576 102.129 75.1032C101.211 75.6763 99.9364 75.8458 98.5516 75.2525L81.5583 66.7557V71.8983C81.5583 73.985 79.9188 75.6249 77.8317 75.6249H40.5661C38.479 75.6249 36.8396 73.985 36.8396 71.8983V42.0859C36.8396 39.9988 38.479 38.3593 40.5661 38.3593H77.8317C79.9188 38.3593 81.5583 39.9988 81.5583 42.0859V47.2285L98.5516 38.732C99.6693 38.2103 101.085 38.2103 102.129 38.8813C103.247 39.6266 103.918 40.8191 103.918 42.0861V71.8983Z" fill="url(#paint1_linear)"/>
<path d="M115.097 16H25.6599C23.5728 16 21.9333 17.6394 21.9333 19.7266V94.2577C21.9333 96.3443 23.5728 97.9842 25.6599 97.9842H36.8396V109.164C36.8396 110.655 37.734 111.996 39.15 112.592C40.2325 113.134 42.0806 112.989 43.1745 111.772L57.0378 97.9842H115.097C117.184 97.9842 118.824 96.3443 118.824 94.2577V19.7266C118.824 17.6394 117.184 16 115.097 16V16ZM103.918 71.8983C103.918 73.1654 103.247 74.3576 102.129 75.1032C101.211 75.6763 99.9364 75.8458 98.5516 75.2525L81.5583 66.7557V71.8983C81.5583 73.985 79.9188 75.6249 77.8317 75.6249H40.5661C38.479 75.6249 36.8396 73.985 36.8396 71.8983V42.0859C36.8396 39.9988 38.479 38.3593 40.5661 38.3593H77.8317C79.9188 38.3593 81.5583 39.9988 81.5583 42.0859V47.2285L98.5516 38.732C99.6693 38.2103 101.085 38.2103 102.129 38.8813C103.247 39.6266 103.918 40.8191 103.918 42.0861V71.8983Z" fill="url(#paint2_linear)"/>
<path fill-rule="evenodd" clip-rule="evenodd" d="M118.733 53.6C119.617 53.6 120.333 54.3163 120.333 55.2V91.2C120.333 95.6182 116.751 99.2 112.333 99.2H76.3332C75.4495 99.2 74.7332 98.4836 74.7332 97.6C74.7332 96.7163 75.4495 96 76.3332 96H112.333C114.984 96 117.133 93.8509 117.133 91.2V55.2C117.133 54.3163 117.849 53.6 118.733 53.6Z" fill="#3EACF5"/>
<path fill-rule="evenodd" clip-rule="evenodd" d="M21.9333 27.2001C21.0497 27.2001 20.3333 26.4837 20.3333 25.6001L20.3333 22.4001C20.3334 17.9818 23.9151 14.4001 28.3334 14.4001L40.3334 14.4001C41.217 14.4001 41.9334 15.1164 41.9334 16.0001C41.9334 16.8837 41.217 17.6001 40.3334 17.6001L28.3334 17.6001C25.6824 17.6001 23.5334 19.7491 23.5334 22.4001L23.5334 25.6001C23.5334 26.4837 22.817 27.2001 21.9333 27.2001Z" fill="#8350E6"/>
<path fill-rule="evenodd" clip-rule="evenodd" d="M55.1333 16C55.1333 16.8836 54.417 17.6 53.5333 17.6L47.9333 17.6C47.0496 17.6 46.3333 16.8836 46.3333 16C46.3333 15.1163 47.0496 14.4 47.9333 14.4L53.5333 14.4C54.417 14.4 55.1333 15.1163 55.1333 16Z" fill="#8350E6"/>
</g>
<defs>
<filter id="filter0_d" x="-15.6667" y="-8" width="208" height="208" filterUnits="userSpaceOnUse" color-interpolation-filters="sRGB">
<feFlood flood-opacity="0" result="BackgroundImageFix"/>
<feColorMatrix in="SourceAlpha" type="matrix" values="0 0 0 0 0 0 0 0 0 0 0 0 0 0 0 0 0 0 127 0" result="hardAlpha"/>
<feOffset dx="4" dy="16"/>
<feGaussianBlur stdDeviation="12"/>
<feComposite in2="hardAlpha" operator="out"/>
<feColorMatrix type="matrix" values="0 0 0 0 0.513726 0 0 0 0 0.313726 0 0 0 0 0.901961 0 0 0 0.1 0"/>
<feBlend mode="normal" in2="BackgroundImageFix" result="effect1_dropShadow"/>
<feBlend mode="normal" in="SourceGraphic" in2="effect1_dropShadow" result="shape"/>
</filter>
<linearGradient id="paint0_linear" x1="72.3334" y1="34.4" x2="72.3334" y2="83.2" gradientUnits="userSpaceOnUse">
<stop stop-color="#8350E6"/>
<stop offset="1" stop-color="#D6A7FA"/>
</linearGradient>
<linearGradient id="paint1_linear" x1="70.3786" y1="16" x2="70.3786" y2="112.892" gradientUnits="userSpaceOnUse">
<stop stop-color="#B596F0"/>
<stop offset="1" stop-color="#E6DCFA"/>
</linearGradient>
<linearGradient id="paint2_linear" x1="70.3786" y1="16" x2="70.3786" y2="112.892" gradientUnits="userSpaceOnUse">
<stop stop-color="#F2ECFF"/>
<stop offset="1" stop-color="#F0DCFF"/>
</linearGradient>
</defs>
</svg>
