<svg width="164" height="185" viewBox="0 0 164 185" fill="none" xmlns="http://www.w3.org/2000/svg">
<g filter="url(#filter0_d)">
<path fill-rule="evenodd" clip-rule="evenodd" d="M34.2668 16.8C29.8486 16.8 26.2668 20.3818 26.2668 24.8001V108C26.2668 112.418 29.8486 116 34.2669 116H101.467C105.885 116 109.467 112.418 109.467 108V24.8C109.467 20.3818 105.885 16.8 101.467 16.8H34.2668ZM77.2586 40.944C77.2586 45.8836 73.2543 49.8879 68.3147 49.8879C63.3751 49.8879 59.3708 45.8836 59.3708 40.944C59.3708 36.0044 63.3751 32 68.3147 32C73.2543 32 77.2586 36.0044 77.2586 40.944ZM78.113 66.3999C81.6941 66.3999 84.7107 63.3896 83.3403 60.0811C82.5105 58.0778 81.2942 56.2575 79.7609 54.7242C78.2277 53.191 76.4074 51.9747 74.4041 51.1449C72.4008 50.3151 70.2537 49.888 68.0853 49.888C65.9169 49.888 63.7698 50.3151 61.7665 51.1449C59.7632 51.9747 57.9429 53.191 56.4096 54.7242C54.8764 56.2575 53.6601 58.0778 52.8303 60.0811C51.4599 63.3896 54.4765 66.3999 58.0576 66.3999H68.0853H78.113ZM40.6668 82C40.6668 79.57 42.6368 77.6001 45.0668 77.6001H90.6669C93.0969 77.6001 95.0668 79.57 95.0668 82C95.0668 84.4301 93.0969 86.4 90.6669 86.4H45.0668C42.6368 86.4 40.6668 84.4301 40.6668 82ZM45.0668 93.6001C42.6368 93.6001 40.6668 95.57 40.6668 98.0001C40.6668 100.43 42.6368 102.4 45.0668 102.4H71.4669C73.8969 102.4 75.8668 100.43 75.8668 98.0001C75.8668 95.57 73.8969 93.6001 71.4669 93.6001H45.0668Z" fill="url(#paint0_linear)" fill-opacity="0.75"/>
<path fill-rule="evenodd" clip-rule="evenodd" d="M45.4668 28.8C41.0485 28.8 37.4668 32.3818 37.4668 36.8001V120C37.4668 124.418 41.0485 128 45.4668 128H112.667C117.085 128 120.667 124.418 120.667 120V36.8C120.667 32.3818 117.085 28.8 112.667 28.8H45.4668ZM88.4586 52.944C88.4586 57.8836 84.4542 61.8879 79.5146 61.8879C74.575 61.8879 70.5707 57.8836 70.5707 52.944C70.5707 48.0044 74.575 44 79.5146 44C84.4542 44 88.4586 48.0044 88.4586 52.944ZM89.313 78.3999C92.8941 78.3999 95.9107 75.3896 94.5402 72.0811C93.7104 70.0777 92.4942 68.2575 90.9609 66.7242C89.4276 65.191 87.6074 63.9747 85.6041 63.1449C83.6008 62.3151 81.4536 61.888 79.2852 61.888C77.1169 61.888 74.9697 62.3151 72.9664 63.1449C70.9631 63.9747 69.1429 65.191 67.6096 66.7242C66.0763 68.2575 64.8601 70.0777 64.0303 72.0811C62.6598 75.3896 65.6764 78.3999 69.2575 78.3999H79.2852H89.313ZM51.8668 94C51.8668 91.57 53.8367 89.6 56.2668 89.6H101.867C104.297 89.6 106.267 91.57 106.267 94C106.267 96.4301 104.297 98.4 101.867 98.4H56.2668C53.8367 98.4 51.8668 96.4301 51.8668 94ZM56.2668 105.6C53.8367 105.6 51.8668 107.57 51.8668 110C51.8668 112.43 53.8367 114.4 56.2668 114.4H82.6668C85.0968 114.4 87.0668 112.43 87.0668 110C87.0668 107.57 85.0968 105.6 82.6668 105.6H56.2668Z" fill="white"/>
<rect x="62.2666" y="52.8" width="59.2" height="83.2" fill="url(#paint1_linear)"/>
<rect x="62.2666" y="52.8" width="59.2" height="45.6" fill="url(#paint2_linear)"/>
<path fill-rule="evenodd" clip-rule="evenodd" d="M59.0666 44C54.6484 44 51.0667 47.5817 51.0667 52V135.2C51.0667 139.618 54.6484 143.2 59.0667 143.2H126.267C130.685 143.2 134.267 139.618 134.267 135.2V52C134.267 47.5817 130.685 44 126.267 44H59.0666ZM102.058 68.1439C102.058 73.0835 98.0541 77.0879 93.1145 77.0879C88.1749 77.0879 84.1706 73.0835 84.1706 68.1439C84.1706 63.2043 88.1749 59.2 93.1145 59.2C98.0541 59.2 102.058 63.2043 102.058 68.1439ZM102.913 93.5998C106.494 93.5998 109.511 90.5895 108.14 87.281C107.31 85.2777 106.094 83.4574 104.561 81.9242C103.027 80.3909 101.207 79.1747 99.2039 78.3449C97.2006 77.5151 95.0535 77.088 92.8851 77.088C90.7167 77.088 88.5696 77.5151 86.5663 78.3449C84.563 79.1747 82.7427 80.3909 81.2094 81.9242C79.6762 83.4574 78.4599 85.2777 77.6301 87.281C76.2597 90.5895 79.2763 93.5998 82.8574 93.5998H92.8851H102.913ZM65.4667 109.2C65.4667 106.77 67.4366 104.8 69.8667 104.8H115.467C117.897 104.8 119.867 106.77 119.867 109.2C119.867 111.63 117.897 113.6 115.467 113.6H69.8667C67.4366 113.6 65.4667 111.63 65.4667 109.2ZM69.8667 120.8C67.4366 120.8 65.4667 122.77 65.4667 125.2C65.4667 127.63 67.4366 129.6 69.8667 129.6H96.2666C98.6967 129.6 100.667 127.63 100.667 125.2C100.667 122.77 98.6967 120.8 96.2666 120.8H69.8667Z" fill="#C4C4C4"/>
<path fill-rule="evenodd" clip-rule="evenodd" d="M59.0666 44C54.6484 44 51.0667 47.5817 51.0667 52V135.2C51.0667 139.618 54.6484 143.2 59.0667 143.2H126.267C130.685 143.2 134.267 139.618 134.267 135.2V52C134.267 47.5817 130.685 44 126.267 44H59.0666ZM102.058 68.1439C102.058 73.0835 98.0541 77.0879 93.1145 77.0879C88.1749 77.0879 84.1706 73.0835 84.1706 68.1439C84.1706 63.2043 88.1749 59.2 93.1145 59.2C98.0541 59.2 102.058 63.2043 102.058 68.1439ZM102.913 93.5998C106.494 93.5998 109.511 90.5895 108.14 87.281C107.31 85.2777 106.094 83.4574 104.561 81.9242C103.027 80.3909 101.207 79.1747 99.2039 78.3449C97.2006 77.5151 95.0535 77.088 92.8851 77.088C90.7167 77.088 88.5696 77.5151 86.5663 78.3449C84.563 79.1747 82.7427 80.3909 81.2094 81.9242C79.6762 83.4574 78.4599 85.2777 77.6301 87.281C76.2597 90.5895 79.2763 93.5998 82.8574 93.5998H92.8851H102.913ZM65.4667 109.2C65.4667 106.77 67.4366 104.8 69.8667 104.8H115.467C117.897 104.8 119.867 106.77 119.867 109.2C119.867 111.63 117.897 113.6 115.467 113.6H69.8667C67.4366 113.6 65.4667 111.63 65.4667 109.2ZM69.8667 120.8C67.4366 120.8 65.4667 122.77 65.4667 125.2C65.4667 127.63 67.4366 129.6 69.8667 129.6H96.2666C98.6967 129.6 100.667 127.63 100.667 125.2C100.667 122.77 98.6967 120.8 96.2666 120.8H69.8667Z" fill="url(#paint3_linear)"/>
<path fill-rule="evenodd" clip-rule="evenodd" d="M59.0666 44C54.6484 44 51.0667 47.5817 51.0667 52V135.2C51.0667 139.618 54.6484 143.2 59.0667 143.2H126.267C130.685 143.2 134.267 139.618 134.267 135.2V52C134.267 47.5817 130.685 44 126.267 44H59.0666ZM102.058 68.1439C102.058 73.0835 98.0541 77.0879 93.1145 77.0879C88.1749 77.0879 84.1706 73.0835 84.1706 68.1439C84.1706 63.2043 88.1749 59.2 93.1145 59.2C98.0541 59.2 102.058 63.2043 102.058 68.1439ZM102.913 93.5998C106.494 93.5998 109.511 90.5895 108.14 87.281C107.31 85.2777 106.094 83.4574 104.561 81.9242C103.027 80.3909 101.207 79.1747 99.2039 78.3449C97.2006 77.5151 95.0535 77.088 92.8851 77.088C90.7167 77.088 88.5696 77.5151 86.5663 78.3449C84.563 79.1747 82.7427 80.3909 81.2094 81.9242C79.6762 83.4574 78.4599 85.2777 77.6301 87.281C76.2597 90.5895 79.2763 93.5998 82.8574 93.5998H92.8851H102.913ZM65.4667 109.2C65.4667 106.77 67.4366 104.8 69.8667 104.8H115.467C117.897 104.8 119.867 106.77 119.867 109.2C119.867 111.63 117.897 113.6 115.467 113.6H69.8667C67.4366 113.6 65.4667 111.63 65.4667 109.2ZM69.8667 120.8C67.4366 120.8 65.4667 122.77 65.4667 125.2C65.4667 127.63 67.4366 129.6 69.8667 129.6H96.2666C98.6967 129.6 100.667 127.63 100.667 125.2C100.667 122.77 98.6967 120.8 96.2666 120.8H69.8667Z" fill="url(#paint4_linear)"/>
<path fill-rule="evenodd" clip-rule="evenodd" d="M134.267 103.2C135.15 103.2 135.867 102.484 135.867 101.6V50.4001C135.867 45.9818 132.285 42.4001 127.867 42.4001H93.4667C92.583 42.4001 91.8667 43.1164 91.8667 44.0001C91.8667 44.8837 92.583 45.6001 93.4667 45.6001H127.867C130.518 45.6001 132.667 47.7491 132.667 50.4001V101.6C132.667 102.484 133.383 103.2 134.267 103.2Z" fill="#8350E6"/>
<path fill-rule="evenodd" clip-rule="evenodd" d="M51.0668 113.6C50.1832 113.6 49.4669 114.316 49.4669 115.2L49.4669 136.8C49.4669 141.218 53.0486 144.8 57.4668 144.8L64.6668 144.8C65.5505 144.8 66.2668 144.084 66.2668 143.2C66.2668 142.316 65.5505 141.6 64.6668 141.6L57.4668 141.6C54.8159 141.6 52.6668 139.451 52.6668 136.8L52.6668 115.2C52.6668 114.316 51.9505 113.6 51.0668 113.6Z" fill="#3EACF5"/>
<path fill-rule="evenodd" clip-rule="evenodd" d="M75.0669 143.2C75.0669 144.084 74.3506 144.8 73.4669 144.8H72.6669C71.7832 144.8 71.0669 144.084 71.0669 143.2C71.0669 142.316 71.7832 141.6 72.6669 141.6H73.4669C74.3506 141.6 75.0669 142.316 75.0669 143.2Z" fill="#3EACF5"/>
</g>
<defs>
<filter id="filter0_d" x="-19.3333" y="-8" width="208" height="208" filterUnits="userSpaceOnUse" color-interpolation-filters="sRGB">
<feFlood flood-opacity="0" result="BackgroundImageFix"/>
<feColorMatrix in="SourceAlpha" type="matrix" values="0 0 0 0 0 0 0 0 0 0 0 0 0 0 0 0 0 0 127 0" result="hardAlpha"/>
<feOffset dx="4" dy="16"/>
<feGaussianBlur stdDeviation="12"/>
<feComposite in2="hardAlpha" operator="out"/>
<feColorMatrix type="matrix" values="0 0 0 0 0.513726 0 0 0 0 0.313726 0 0 0 0 0.901961 0 0 0 0.1 0"/>
<feBlend mode="normal" in2="BackgroundImageFix" result="effect1_dropShadow"/>
<feBlend mode="normal" in="SourceGraphic" in2="effect1_dropShadow" result="shape"/>
</filter>
<linearGradient id="paint0_linear" x1="67.8668" y1="16.8" x2="67.8668" y2="116" gradientUnits="userSpaceOnUse">
<stop stop-color="#8350E6"/>
<stop offset="1" stop-color="#D6A7FA"/>
</linearGradient>
<linearGradient id="paint1_linear" x1="91.8666" y1="52.8" x2="91.8666" y2="136" gradientUnits="userSpaceOnUse">
<stop stop-color="#B596F0"/>
<stop offset="1" stop-color="#E6DCFA"/>
</linearGradient>
<linearGradient id="paint2_linear" x1="91.8666" y1="52.8" x2="91.8666" y2="98.4" gradientUnits="userSpaceOnUse">
<stop stop-color="#8350E6"/>
<stop offset="1" stop-color="#D6A7FA"/>
</linearGradient>
<linearGradient id="paint3_linear" x1="92.6666" y1="44" x2="92.6666" y2="143.2" gradientUnits="userSpaceOnUse">
<stop stop-color="#F0E8FF"/>
<stop offset="1" stop-color="#FAF4FF"/>
</linearGradient>
<linearGradient id="paint4_linear" x1="92.6666" y1="44" x2="92.6666" y2="143.2" gradientUnits="userSpaceOnUse">
<stop stop-color="#F2ECFF"/>
<stop offset="1" stop-color="#F0DCFF"/>
</linearGradient>
</defs>
</svg>
