<svg width="24" height="25" viewBox="0 0 24 25" fill="none" xmlns="http://www.w3.org/2000/svg">
<path d="M17 3.66607C17 3.53346 16.9473 3.40628 16.8536 3.31252C16.7598 3.21875 16.6326 3.16607 16.5 3.16607H14C12.7411 3.10336 11.5086 3.54146 10.5717 4.38465C9.63485 5.22784 9.06978 6.40756 9 7.66607V10.3661H6.5C6.36739 10.3661 6.24021 10.4187 6.14645 10.5125C6.05268 10.6063 6 10.7335 6 10.8661V13.4661C6 13.5987 6.05268 13.7259 6.14645 13.8196C6.24021 13.9134 6.36739 13.9661 6.5 13.9661H9V20.6661C9 20.7987 9.05268 20.9259 9.14645 21.0196C9.24021 21.1134 9.36739 21.1661 9.5 21.1661H12.5C12.6326 21.1661 12.7598 21.1134 12.8536 21.0196C12.9473 20.9259 13 20.7987 13 20.6661V13.9661H15.62C15.7312 13.9677 15.8397 13.9322 15.9285 13.8651C16.0172 13.7981 16.0811 13.7034 16.11 13.5961L16.83 10.9961C16.8499 10.9222 16.8526 10.8447 16.8378 10.7697C16.8231 10.6946 16.7913 10.6239 16.7449 10.563C16.6985 10.5022 16.6388 10.4528 16.5704 10.4186C16.5019 10.3845 16.4265 10.3665 16.35 10.3661H13V7.66607C13.0249 7.41855 13.1411 7.18918 13.326 7.02276C13.5109 6.85634 13.7512 6.76482 14 6.76607H16.5C16.6326 6.76607 16.7598 6.71339 16.8536 6.61962C16.9473 6.52585 17 6.39868 17 6.26607V3.66607Z" fill="#151516"/>
</svg>
