<svg width="237" height="105" viewBox="0 0 237 105" fill="none" xmlns="http://www.w3.org/2000/svg">
<g filter="url(#filter0_d)">
<path d="M20 31.5046C20 25.9041 20 23.1038 21.0899 20.9647C22.0487 19.0831 23.5785 17.5532 25.4601 16.5945C27.5992 15.5046 30.3995 15.5046 36 15.5046H201C206.601 15.5046 209.401 15.5046 211.54 16.5945C213.422 17.5532 214.951 19.0831 215.91 20.9647C217 23.1038 217 25.9041 217 31.5046V63.5046C217 69.1051 217 71.9054 215.91 74.0445C214.951 75.9261 213.422 77.4559 211.54 78.4146C209.401 79.5046 206.601 79.5046 201 79.5046H36C30.3995 79.5046 27.5992 79.5046 25.4601 78.4146C23.5785 77.4559 22.0487 75.9261 21.0899 74.0445C20 71.9054 20 69.1051 20 63.5046V31.5046Z" fill="#151516"/>
<path d="M63.0344 48.6155C63.0156 45.4186 64.4641 43.0093 67.3891 41.2327C65.7531 38.889 63.2781 37.5999 60.0156 37.3515C56.9266 37.1077 53.5469 39.1515 52.3094 39.1515C51.0016 39.1515 48.0109 37.4358 45.6578 37.4358C40.8016 37.5108 35.6406 41.3077 35.6406 49.0327C35.6406 51.3155 36.0578 53.6733 36.8922 56.1015C38.0078 59.2983 42.0297 67.1311 46.225 67.0046C48.4187 66.953 49.9703 65.4483 52.825 65.4483C55.5953 65.4483 57.0297 67.0046 59.4766 67.0046C63.7094 66.9436 67.3469 59.8233 68.4062 56.6171C62.7297 53.9405 63.0344 48.7796 63.0344 48.6155ZM58.1078 34.3186C60.4844 31.4968 60.2688 28.928 60.1984 28.0046C58.0984 28.1265 55.6703 29.4343 54.2875 31.0421C52.7641 32.7671 51.8687 34.8999 52.0609 37.3046C54.3297 37.478 56.4016 36.3108 58.1078 34.3186Z" fill="white"/>
<path d="M94.3711 35.1393C94.3711 36.5534 93.9863 37.6354 93.2168 38.3854C92.4512 39.1315 91.3477 39.5046 89.9062 39.5046H87.5332V30.9382H90.1582C91.4902 30.9382 92.5254 31.3073 93.2637 32.0456C94.002 32.7839 94.3711 33.8151 94.3711 35.1393ZM93.3164 35.1745C93.3164 34.0573 93.0352 33.2155 92.4727 32.6491C91.9141 32.0827 91.082 31.7995 89.9766 31.7995H88.5293V38.6432H89.7422C90.9297 38.6432 91.8223 38.3522 92.4199 37.7702C93.0176 37.1843 93.3164 36.319 93.3164 35.1745ZM98.8535 39.6218C97.9043 39.6218 97.1543 39.3327 96.6035 38.7546C96.0566 38.1765 95.7832 37.3737 95.7832 36.3464C95.7832 35.3112 96.0371 34.489 96.5449 33.8796C97.0566 33.2702 97.7422 32.9655 98.6016 32.9655C99.4062 32.9655 100.043 33.2311 100.512 33.7624C100.98 34.2897 101.215 34.987 101.215 35.8542V36.4694H96.791C96.8105 37.2233 97 37.7956 97.3594 38.1862C97.7227 38.5768 98.2324 38.7722 98.8887 38.7722C99.5801 38.7722 100.264 38.6276 100.939 38.3386V39.2057C100.596 39.3542 100.27 39.4597 99.9609 39.5222C99.6562 39.5886 99.2871 39.6218 98.8535 39.6218ZM98.5898 33.78C98.0742 33.78 97.6621 33.9479 97.3535 34.2839C97.0488 34.6198 96.8691 35.0847 96.8145 35.6784H100.172C100.172 35.0651 100.035 34.5964 99.7617 34.2722C99.4883 33.944 99.0977 33.78 98.5898 33.78ZM107.021 37.7526C107.021 38.3503 106.799 38.8112 106.354 39.1354C105.908 39.4597 105.283 39.6218 104.479 39.6218C103.627 39.6218 102.963 39.487 102.486 39.2175V38.3151C102.795 38.4714 103.125 38.5944 103.477 38.6843C103.832 38.7741 104.174 38.819 104.502 38.819C105.01 38.819 105.4 38.739 105.674 38.5788C105.947 38.4147 106.084 38.1667 106.084 37.8347C106.084 37.5847 105.975 37.3718 105.756 37.196C105.541 37.0163 105.119 36.8054 104.49 36.5632C103.893 36.3405 103.467 36.1472 103.213 35.9831C102.963 35.8151 102.775 35.6257 102.65 35.4147C102.529 35.2038 102.469 34.9518 102.469 34.6589C102.469 34.1354 102.682 33.7233 103.107 33.4225C103.533 33.1179 104.117 32.9655 104.859 32.9655C105.551 32.9655 106.227 33.1061 106.887 33.3874L106.541 34.1784C105.896 33.9128 105.312 33.78 104.789 33.78C104.328 33.78 103.98 33.8522 103.746 33.9968C103.512 34.1413 103.395 34.3405 103.395 34.5944C103.395 34.7663 103.438 34.9128 103.523 35.0339C103.613 35.155 103.756 35.2702 103.951 35.3796C104.146 35.489 104.521 35.6472 105.076 35.8542C105.838 36.1315 106.352 36.4108 106.617 36.6921C106.887 36.9733 107.021 37.3268 107.021 37.7526ZM111.176 39.6218C110.246 39.6218 109.525 39.3366 109.014 38.7663C108.506 38.1921 108.252 37.3815 108.252 36.3347C108.252 35.2604 108.51 34.4304 109.025 33.8444C109.545 33.2585 110.283 32.9655 111.24 32.9655C111.549 32.9655 111.857 32.9987 112.166 33.0651C112.475 33.1315 112.717 33.2097 112.893 33.2995L112.594 34.1257C112.379 34.0397 112.145 33.9694 111.891 33.9147C111.637 33.8561 111.412 33.8268 111.217 33.8268C109.912 33.8268 109.26 34.6589 109.26 36.3229C109.26 37.112 109.418 37.7175 109.734 38.1393C110.055 38.5612 110.527 38.7722 111.152 38.7722C111.688 38.7722 112.236 38.6569 112.799 38.4265V39.2878C112.369 39.5104 111.828 39.6218 111.176 39.6218ZM118.277 39.5046L118.084 38.5905H118.037C117.717 38.9929 117.396 39.2663 117.076 39.4108C116.76 39.5515 116.363 39.6218 115.887 39.6218C115.25 39.6218 114.75 39.4577 114.387 39.1296C114.027 38.8015 113.848 38.3347 113.848 37.7292C113.848 36.4323 114.885 35.7526 116.959 35.6901L118.049 35.655V35.2565C118.049 34.7526 117.939 34.3815 117.721 34.1432C117.506 33.9011 117.16 33.78 116.684 33.78C116.148 33.78 115.543 33.944 114.867 34.2722L114.568 33.528C114.885 33.3561 115.23 33.2214 115.605 33.1237C115.984 33.0261 116.363 32.9772 116.742 32.9772C117.508 32.9772 118.074 33.1472 118.441 33.487C118.812 33.8268 118.998 34.3718 118.998 35.1218V39.5046H118.277ZM116.08 38.819C116.686 38.819 117.16 38.653 117.504 38.321C117.852 37.989 118.025 37.5241 118.025 36.9265V36.3464L117.053 36.3874C116.279 36.4147 115.721 36.5358 115.377 36.7507C115.037 36.9616 114.867 37.2917 114.867 37.7409C114.867 38.0925 114.973 38.36 115.184 38.5436C115.398 38.7272 115.697 38.819 116.08 38.819ZM123.938 32.9655C124.223 32.9655 124.479 32.989 124.705 33.0358L124.57 33.9382C124.305 33.8796 124.07 33.8503 123.867 33.8503C123.348 33.8503 122.902 34.0612 122.531 34.4831C122.164 34.905 121.98 35.4304 121.98 36.0593V39.5046H121.008V33.0827H121.811L121.922 34.2722H121.969C122.207 33.8542 122.494 33.5319 122.83 33.3054C123.166 33.0788 123.535 32.9655 123.938 32.9655ZM131.162 33.0827V33.6979L129.973 33.8386C130.082 33.9753 130.18 34.155 130.266 34.3776C130.352 34.5964 130.395 34.8444 130.395 35.1218C130.395 35.7507 130.18 36.2526 129.75 36.6276C129.32 37.0026 128.73 37.1901 127.98 37.1901C127.789 37.1901 127.609 37.1745 127.441 37.1432C127.027 37.362 126.82 37.6374 126.82 37.9694C126.82 38.1452 126.893 38.2761 127.037 38.362C127.182 38.444 127.43 38.485 127.781 38.485H128.918C129.613 38.485 130.146 38.6315 130.518 38.9245C130.893 39.2175 131.08 39.6432 131.08 40.2018C131.08 40.9128 130.795 41.4538 130.225 41.8249C129.654 42.1999 128.822 42.3874 127.729 42.3874C126.889 42.3874 126.24 42.2311 125.783 41.9186C125.33 41.6061 125.104 41.1647 125.104 40.5944C125.104 40.2038 125.229 39.8659 125.479 39.5807C125.729 39.2956 126.08 39.1022 126.533 39.0007C126.369 38.9265 126.23 38.8112 126.117 38.655C126.008 38.4987 125.953 38.3171 125.953 38.11C125.953 37.8757 126.016 37.6706 126.141 37.4948C126.266 37.319 126.463 37.1491 126.732 36.985C126.4 36.8483 126.129 36.6159 125.918 36.2878C125.711 35.9597 125.607 35.5847 125.607 35.1628C125.607 34.4597 125.818 33.9186 126.24 33.5397C126.662 33.1569 127.26 32.9655 128.033 32.9655C128.369 32.9655 128.672 33.0046 128.941 33.0827H131.162ZM126.041 40.5827C126.041 40.9304 126.188 41.194 126.48 41.3737C126.773 41.5534 127.193 41.6432 127.74 41.6432C128.557 41.6432 129.16 41.5202 129.551 41.2741C129.945 41.0319 130.143 40.7018 130.143 40.2839C130.143 39.9362 130.035 39.694 129.82 39.5573C129.605 39.4245 129.201 39.3581 128.607 39.3581H127.441C127 39.3581 126.656 39.4636 126.41 39.6745C126.164 39.8854 126.041 40.1882 126.041 40.5827ZM126.568 35.1393C126.568 35.5886 126.695 35.9284 126.949 36.1589C127.203 36.3893 127.557 36.5046 128.01 36.5046C128.959 36.5046 129.434 36.0436 129.434 35.1218C129.434 34.1569 128.953 33.6745 127.992 33.6745C127.535 33.6745 127.184 33.7975 126.938 34.0436C126.691 34.2897 126.568 34.655 126.568 35.1393ZM136.43 39.5046L136.236 38.5905H136.189C135.869 38.9929 135.549 39.2663 135.229 39.4108C134.912 39.5515 134.516 39.6218 134.039 39.6218C133.402 39.6218 132.902 39.4577 132.539 39.1296C132.18 38.8015 132 38.3347 132 37.7292C132 36.4323 133.037 35.7526 135.111 35.6901L136.201 35.655V35.2565C136.201 34.7526 136.092 34.3815 135.873 34.1432C135.658 33.9011 135.312 33.78 134.836 33.78C134.301 33.78 133.695 33.944 133.02 34.2722L132.721 33.528C133.037 33.3561 133.383 33.2214 133.758 33.1237C134.137 33.0261 134.516 32.9772 134.895 32.9772C135.66 32.9772 136.227 33.1472 136.594 33.487C136.965 33.8268 137.15 34.3718 137.15 35.1218V39.5046H136.43ZM134.232 38.819C134.838 38.819 135.312 38.653 135.656 38.321C136.004 37.989 136.178 37.5241 136.178 36.9265V36.3464L135.205 36.3874C134.432 36.4147 133.873 36.5358 133.529 36.7507C133.189 36.9616 133.02 37.2917 133.02 37.7409C133.02 38.0925 133.125 38.36 133.336 38.5436C133.551 38.7272 133.85 38.819 134.232 38.819ZM134.004 32.0866C134.191 31.8444 134.393 31.5515 134.607 31.2077C134.826 30.864 134.998 30.5651 135.123 30.3112H136.307V30.4343C136.135 30.6882 135.879 31.0007 135.539 31.3718C135.199 31.7429 134.904 32.03 134.654 32.2331H134.004V32.0866ZM140.133 39.5046H139.16V30.3874H140.133V39.5046ZM147.738 36.2878C147.738 37.3347 147.475 38.153 146.947 38.7429C146.42 39.3288 145.691 39.6218 144.762 39.6218C144.188 39.6218 143.678 39.487 143.232 39.2175C142.787 38.9479 142.443 38.5612 142.201 38.0573C141.959 37.5534 141.838 36.9636 141.838 36.2878C141.838 35.2409 142.1 34.4265 142.623 33.8444C143.146 33.2585 143.873 32.9655 144.803 32.9655C145.701 32.9655 146.414 33.2643 146.941 33.862C147.473 34.4597 147.738 35.2682 147.738 36.2878ZM142.846 36.2878C142.846 37.1081 143.01 37.7331 143.338 38.1628C143.666 38.5925 144.148 38.8073 144.785 38.8073C145.422 38.8073 145.904 38.5944 146.232 38.1686C146.564 37.739 146.73 37.112 146.73 36.2878C146.73 35.4714 146.564 34.8522 146.232 34.4304C145.904 34.0046 145.418 33.7917 144.773 33.7917C144.137 33.7917 143.656 34.0007 143.332 34.4186C143.008 34.8366 142.846 35.4597 142.846 36.2878ZM155.279 39.6218C154.33 39.6218 153.58 39.3327 153.029 38.7546C152.482 38.1765 152.209 37.3737 152.209 36.3464C152.209 35.3112 152.463 34.489 152.971 33.8796C153.482 33.2702 154.168 32.9655 155.027 32.9655C155.832 32.9655 156.469 33.2311 156.938 33.7624C157.406 34.2897 157.641 34.987 157.641 35.8542V36.4694H153.217C153.236 37.2233 153.426 37.7956 153.785 38.1862C154.148 38.5768 154.658 38.7722 155.314 38.7722C156.006 38.7722 156.689 38.6276 157.365 38.3386V39.2057C157.021 39.3542 156.695 39.4597 156.387 39.5222C156.082 39.5886 155.713 39.6218 155.279 39.6218ZM155.016 33.78C154.5 33.78 154.088 33.9479 153.779 34.2839C153.475 34.6198 153.295 35.0847 153.24 35.6784H156.598C156.598 35.0651 156.461 34.5964 156.188 34.2722C155.914 33.944 155.523 33.78 155.016 33.78ZM163.699 39.5046V35.3503C163.699 34.8268 163.58 34.4362 163.342 34.1784C163.104 33.9206 162.73 33.7917 162.223 33.7917C161.551 33.7917 161.059 33.9733 160.746 34.3366C160.434 34.6999 160.277 35.2995 160.277 36.1354V39.5046H159.305V33.0827H160.096L160.254 33.9616H160.301C160.5 33.6452 160.779 33.4011 161.139 33.2292C161.498 33.0534 161.898 32.9655 162.34 32.9655C163.113 32.9655 163.695 33.153 164.086 33.528C164.477 33.8991 164.672 34.4948 164.672 35.3151V39.5046H163.699Z" fill="white"/>
<path d="M96.1025 64.5046L94.8193 60.9362H89.9062L88.6494 64.5046H86.4346L91.2422 51.6022H93.5273L98.335 64.5046H96.1025ZM94.2656 59.1257L93.0615 55.6276C92.9736 55.3932 92.8506 55.0241 92.6924 54.5202C92.54 54.0163 92.4346 53.6472 92.376 53.4128C92.2178 54.1335 91.9863 54.9216 91.6816 55.777L90.5215 59.1257H94.2656ZM104.742 64.6804C103.512 64.6804 102.557 64.238 101.877 63.3532H101.754C101.836 64.1735 101.877 64.6716 101.877 64.8474V68.8288H99.8115V54.7839H101.481C101.528 54.9655 101.625 55.3991 101.771 56.0847H101.877C102.521 55.1003 103.488 54.6081 104.777 54.6081C105.99 54.6081 106.934 55.0475 107.607 55.9265C108.287 56.8054 108.627 58.0388 108.627 59.6266C108.627 61.2145 108.281 62.4538 107.59 63.3444C106.904 64.235 105.955 64.6804 104.742 64.6804ZM104.241 56.2956C103.421 56.2956 102.82 56.5358 102.439 57.0163C102.064 57.4968 101.877 58.2643 101.877 59.319V59.6266C101.877 60.8102 102.064 61.6686 102.439 62.2018C102.814 62.7292 103.427 62.9929 104.276 62.9929C104.991 62.9929 105.542 62.6999 105.929 62.114C106.315 61.528 106.509 60.6931 106.509 59.6091C106.509 58.5192 106.315 57.696 105.929 57.1393C105.548 56.5768 104.985 56.2956 104.241 56.2956ZM115.957 64.6804C114.727 64.6804 113.771 64.238 113.092 63.3532H112.969C113.051 64.1735 113.092 64.6716 113.092 64.8474V68.8288H111.026V54.7839H112.696C112.743 54.9655 112.84 55.3991 112.986 56.0847H113.092C113.736 55.1003 114.703 54.6081 115.992 54.6081C117.205 54.6081 118.148 55.0475 118.822 55.9265C119.502 56.8054 119.842 58.0388 119.842 59.6266C119.842 61.2145 119.496 62.4538 118.805 63.3444C118.119 64.235 117.17 64.6804 115.957 64.6804ZM115.456 56.2956C114.636 56.2956 114.035 56.5358 113.654 57.0163C113.279 57.4968 113.092 58.2643 113.092 59.319V59.6266C113.092 60.8102 113.279 61.6686 113.654 62.2018C114.029 62.7292 114.642 62.9929 115.491 62.9929C116.206 62.9929 116.757 62.6999 117.144 62.114C117.53 61.528 117.724 60.6931 117.724 59.6091C117.724 58.5192 117.53 57.696 117.144 57.1393C116.763 56.5768 116.2 56.2956 115.456 56.2956ZM134.546 61.0153C134.546 62.1579 134.133 63.0544 133.307 63.7048C132.48 64.3552 131.341 64.6804 129.888 64.6804C128.435 64.6804 127.245 64.4548 126.319 64.0036V62.0173C126.905 62.2927 127.526 62.5095 128.183 62.6677C128.845 62.8259 129.46 62.905 130.028 62.905C130.86 62.905 131.473 62.7468 131.865 62.4304C132.264 62.114 132.463 61.6891 132.463 61.1559C132.463 60.6755 132.281 60.2682 131.918 59.9343C131.555 59.6003 130.805 59.2048 129.668 58.7477C128.496 58.2731 127.67 57.7311 127.189 57.1218C126.709 56.5124 126.469 55.78 126.469 54.9245C126.469 53.8522 126.85 53.0085 127.611 52.3932C128.373 51.778 129.396 51.4704 130.679 51.4704C131.909 51.4704 133.134 51.7399 134.353 52.279L133.685 53.9929C132.542 53.5124 131.522 53.2722 130.626 53.2722C129.946 53.2722 129.431 53.4216 129.079 53.7204C128.728 54.0134 128.552 54.403 128.552 54.8893C128.552 55.2233 128.622 55.5104 128.763 55.7507C128.903 55.985 129.135 56.2077 129.457 56.4186C129.779 56.6296 130.359 56.9079 131.197 57.2536C132.141 57.6462 132.832 58.0124 133.271 58.3522C133.711 58.6921 134.033 59.0759 134.238 59.5036C134.443 59.9313 134.546 60.4352 134.546 61.0153ZM140.435 63.0104C140.938 63.0104 141.442 62.9313 141.946 62.7731V64.3288C141.718 64.4284 141.422 64.5104 141.059 64.5749C140.701 64.6452 140.329 64.6804 139.942 64.6804C137.985 64.6804 137.007 63.6491 137.007 61.5866V56.3483H135.68V55.4343L137.104 54.6784L137.807 52.6218H139.081V54.7839H141.85V56.3483H139.081V61.5515C139.081 62.0495 139.204 62.4186 139.45 62.6589C139.702 62.8932 140.03 63.0104 140.435 63.0104ZM152.52 59.6266C152.52 61.2145 152.112 62.4538 151.298 63.3444C150.483 64.235 149.35 64.6804 147.896 64.6804C146.988 64.6804 146.186 64.4753 145.488 64.0651C144.791 63.655 144.255 63.0661 143.88 62.2985C143.505 61.5309 143.317 60.6403 143.317 59.6266C143.317 58.0505 143.722 56.82 144.53 55.9352C145.339 55.0505 146.479 54.6081 147.949 54.6081C149.355 54.6081 150.469 55.0622 151.289 55.9704C152.109 56.8727 152.52 58.0915 152.52 59.6266ZM145.444 59.6266C145.444 61.8708 146.273 62.9929 147.932 62.9929C149.572 62.9929 150.393 61.8708 150.393 59.6266C150.393 57.4059 149.566 56.2956 147.914 56.2956C147.047 56.2956 146.417 56.5827 146.024 57.1569C145.638 57.7311 145.444 58.5544 145.444 59.6266ZM159.832 54.6081C160.248 54.6081 160.591 54.6374 160.86 54.696L160.658 56.6208C160.365 56.5505 160.061 56.5153 159.744 56.5153C158.918 56.5153 158.247 56.7849 157.731 57.3239C157.222 57.863 156.967 58.5632 156.967 59.4245V64.5046H154.901V54.7839H156.519L156.791 56.4977H156.896C157.219 55.9177 157.638 55.4577 158.153 55.1179C158.675 54.778 159.234 54.6081 159.832 54.6081ZM166.916 64.6804C165.404 64.6804 164.221 64.2409 163.365 63.362C162.516 62.4772 162.091 61.2614 162.091 59.7145C162.091 58.1266 162.486 56.8786 163.277 55.9704C164.068 55.0622 165.155 54.6081 166.538 54.6081C167.821 54.6081 168.835 54.9977 169.579 55.777C170.323 56.5563 170.695 57.6286 170.695 58.9938V60.11H164.218C164.247 61.0534 164.502 61.78 164.982 62.2897C165.463 62.7936 166.14 63.0456 167.013 63.0456C167.587 63.0456 168.12 62.9929 168.612 62.8874C169.11 62.7761 169.644 62.5944 170.212 62.3425V64.0212C169.708 64.2614 169.198 64.4313 168.683 64.5309C168.167 64.6306 167.578 64.6804 166.916 64.6804ZM166.538 56.1725C165.882 56.1725 165.354 56.3806 164.956 56.7966C164.563 57.2126 164.329 57.819 164.253 58.6159H168.665C168.653 57.8132 168.46 57.2067 168.085 56.7966C167.71 56.3806 167.194 56.1725 166.538 56.1725Z" fill="white"/>
</g>
<defs>
<filter id="filter0_d" x="0" y="0.504578" width="237" height="104" filterUnits="userSpaceOnUse" color-interpolation-filters="sRGB">
<feFlood flood-opacity="0" result="BackgroundImageFix"/>
<feColorMatrix in="SourceAlpha" type="matrix" values="0 0 0 0 0 0 0 0 0 0 0 0 0 0 0 0 0 0 127 0" result="hardAlpha"/>
<feOffset dy="5"/>
<feGaussianBlur stdDeviation="10"/>
<feColorMatrix type="matrix" values="0 0 0 0 0.513726 0 0 0 0 0.313726 0 0 0 0 0.901961 0 0 0 0.2 0"/>
<feBlend mode="normal" in2="BackgroundImageFix" result="effect1_dropShadow"/>
<feBlend mode="normal" in="SourceGraphic" in2="effect1_dropShadow" result="shape"/>
</filter>
</defs>
</svg>
