<svg width="89" height="84" viewBox="0 0 89 84" fill="none" xmlns="http://www.w3.org/2000/svg">
<path d="M44.3322 40.3501C40.324 40.3505 36.4058 39.1677 33.0729 36.951C29.7401 34.7344 27.1423 31.5837 25.6082 27.8972C24.074 24.2107 23.6724 20.1541 24.4541 16.2404C25.2358 12.3267 27.1657 8.73164 29.9997 5.9099C32.8337 3.08815 36.4446 1.16645 40.3757 0.387822C44.3068 -0.390809 48.3816 0.00860083 52.0847 1.53554C55.7878 3.06248 58.9529 5.64837 61.1797 8.96618C63.4066 12.284 64.5952 16.1847 64.5952 20.1751C64.5895 25.5237 62.4529 30.6518 58.6542 34.434C54.8554 38.2163 49.7047 40.3439 44.3322 40.3501ZM44.3322 5.51696C41.4206 5.51696 38.5743 6.37652 36.1534 7.98694C33.7325 9.59736 31.8456 11.8863 30.7314 14.5643C29.6172 17.2424 29.3256 20.1892 29.8937 23.0322C30.4617 25.8752 31.8638 28.4866 33.9226 30.5363C35.9814 32.586 38.6045 33.9818 41.4602 34.5473C44.3159 35.1128 47.2758 34.8226 49.9658 33.7133C52.6558 32.604 54.955 30.7255 56.5726 28.3154C58.1902 25.9052 59.0536 23.0716 59.0536 20.1729C59.0491 16.2873 57.4966 12.5621 54.7368 9.81456C51.977 7.067 48.2352 5.52145 44.3322 5.51696Z" fill="#8350E6"/>
<path d="M62.3167 42.6606C56.611 47.5092 52.1053 55.1438 44.3684 55.1438C36.6315 55.1438 32.2196 47.5049 26.5096 42.6564C17.8903 35.3295 9.82307 36.7618 4.43282 41.3642C-0.0878336 45.2239 -2.86928 53.2744 4.78875 63.3365C19.5059 82.6819 40.7451 83.102 44.3705 83.102C49.8887 83.102 69.1798 82.6776 83.8926 63.3089C91.5443 53.2383 88.7778 45.3067 84.0397 41.2941C78.8605 36.9209 70.9424 35.3273 62.3167 42.6606ZM67.3638 45.6313C73.0184 41.0841 78.447 43.781 80.0114 45.052C81.9169 46.601 84.9733 50.9318 81.5609 56.2196C76.6481 63.8309 59.4138 63.9582 51.5426 61.5986C51.4014 61.5585 51.2744 61.4795 51.1763 61.3707C51.0781 61.2619 51.0128 61.1278 50.9879 60.9837C50.963 60.8396 50.9794 60.6914 51.0353 60.5562C51.0912 60.421 51.1843 60.3043 51.3039 60.2194C54.9272 57.811 65.3262 47.2737 67.3638 45.6356V45.6313ZM44.3705 77.5914C42.8637 77.5914 22.6305 78.0858 8.82132 59.3834C3.96391 52.8055 5.26405 47.5665 8.60818 45.0839C14.5483 40.6703 19.6785 43.4097 25.6592 49.5144C37.2091 61.2867 45.7389 70.674 69.7275 67.8094C70.5396 67.714 70.9829 68.7282 70.3243 69.212C62.7937 74.6924 53.6986 77.6289 44.3705 77.5914Z" fill="#8350E6"/>
<path d="M44.3322 40.3501C40.324 40.3505 36.4058 39.1677 33.0729 36.951C29.7401 34.7344 27.1423 31.5837 25.6082 27.8972C24.074 24.2107 23.6724 20.1541 24.4541 16.2404C25.2358 12.3267 27.1657 8.73164 29.9997 5.9099C32.8337 3.08815 36.4446 1.16645 40.3757 0.387822C44.3068 -0.390809 48.3816 0.00860083 52.0847 1.53554C55.7878 3.06248 58.9529 5.64837 61.1797 8.96618C63.4066 12.284 64.5952 16.1847 64.5952 20.1751C64.5895 25.5237 62.4529 30.6518 58.6542 34.434C54.8554 38.2163 49.7047 40.3439 44.3322 40.3501ZM44.3322 5.51696C41.4206 5.51696 38.5743 6.37652 36.1534 7.98694C33.7325 9.59736 31.8456 11.8863 30.7314 14.5643C29.6172 17.2424 29.3256 20.1892 29.8937 23.0322C30.4617 25.8752 31.8638 28.4866 33.9226 30.5363C35.9814 32.586 38.6045 33.9818 41.4602 34.5473C44.3159 35.1128 47.2758 34.8226 49.9658 33.7133C52.6558 32.604 54.955 30.7255 56.5726 28.3154C58.1902 25.9052 59.0536 23.0716 59.0536 20.1729C59.0491 16.2873 57.4966 12.5621 54.7368 9.81456C51.977 7.067 48.2352 5.52145 44.3322 5.51696Z" fill="#8350E6"/>
<path d="M62.3167 42.6606C56.611 47.5092 52.1053 55.1438 44.3684 55.1438C36.6315 55.1438 32.2196 47.5049 26.5096 42.6564C17.8903 35.3295 9.82307 36.7618 4.43282 41.3642C-0.0878336 45.2239 -2.86928 53.2744 4.78875 63.3365C19.5059 82.6819 40.7451 83.102 44.3705 83.102C49.8887 83.102 69.1798 82.6776 83.8926 63.3089C91.5443 53.2383 88.7778 45.3067 84.0397 41.2941C78.8605 36.9209 70.9424 35.3273 62.3167 42.6606ZM67.3638 45.6313C73.0184 41.0841 78.447 43.781 80.0114 45.052C81.9169 46.601 84.9733 50.9318 81.5609 56.2196C76.6481 63.8309 59.4138 63.9582 51.5426 61.5986C51.4014 61.5585 51.2744 61.4795 51.1763 61.3707C51.0781 61.2619 51.0128 61.1278 50.9879 60.9837C50.963 60.8396 50.9794 60.6914 51.0353 60.5562C51.0912 60.421 51.1843 60.3043 51.3039 60.2194C54.9272 57.811 65.3262 47.2737 67.3638 45.6356V45.6313ZM44.3705 77.5914C42.8637 77.5914 22.6305 78.0858 8.82132 59.3834C3.96391 52.8055 5.26405 47.5665 8.60818 45.0839C14.5483 40.6703 19.6785 43.4097 25.6592 49.5144C37.2091 61.2867 45.7389 70.674 69.7275 67.8094C70.5396 67.714 70.9829 68.7282 70.3243 69.212C62.7937 74.6924 53.6986 77.6289 44.3705 77.5914Z" fill="#8350E6"/>
</svg>
