<svg width="24" height="25" viewBox="0 0 24 25" fill="none" xmlns="http://www.w3.org/2000/svg">
<path fill-rule="evenodd" clip-rule="evenodd" d="M7.87727 2.22602C8.94364 2.17692 9.28364 2.16602 12 2.16602C14.7164 2.16602 15.0564 2.17783 16.1218 2.22602C17.1873 2.2742 17.9145 2.4442 18.5509 2.69056C19.2173 2.94238 19.8218 3.33602 20.3218 3.84511C20.8309 4.3442 21.2236 4.94783 21.4745 5.61511C21.7218 6.25147 21.8909 6.97874 21.94 8.04238C21.9891 9.11056 22 9.45056 22 12.166C22 14.8824 21.9882 15.2224 21.94 16.2887C21.8918 17.3524 21.7218 18.0797 21.4745 18.716C21.2236 19.3834 20.8303 19.988 20.3218 20.4878C19.8218 20.9969 19.2173 21.3897 18.5509 21.6406C17.9145 21.8878 17.1873 22.0569 16.1236 22.106C15.0564 22.1551 14.7164 22.166 12 22.166C9.28364 22.166 8.94364 22.1542 7.87727 22.106C6.81364 22.0578 6.08636 21.8878 5.45 21.6406C4.78266 21.3896 4.17802 20.9962 3.67818 20.4878C3.16944 19.9884 2.77574 19.3841 2.52455 18.7169C2.27818 18.0806 2.10909 17.3533 2.06 16.2897C2.01091 15.2215 2 14.8815 2 12.166C2 9.44965 2.01182 9.10965 2.06 8.0442C2.10818 6.97874 2.27818 6.25147 2.52455 5.61511C2.77611 4.94791 3.17011 4.34357 3.67909 3.8442C4.17822 3.33556 4.78225 2.94187 5.44909 2.69056C6.08545 2.4442 6.81273 2.27511 7.87636 2.22602H7.87727ZM16.0409 4.02602C14.9864 3.97783 14.67 3.96783 12 3.96783C9.33 3.96783 9.01364 3.97783 7.95909 4.02602C6.98364 4.07056 6.45455 4.23329 6.10182 4.37056C5.63545 4.55238 5.30182 4.76783 4.95182 5.11783C4.62004 5.44061 4.36471 5.83354 4.20455 6.26783C4.06727 6.62056 3.90455 7.14965 3.86 8.12511C3.81182 9.17965 3.80182 9.49602 3.80182 12.166C3.80182 14.836 3.81182 15.1524 3.86 16.2069C3.90455 17.1824 4.06727 17.7115 4.20455 18.0642C4.36455 18.4978 4.62 18.8915 4.95182 19.2142C5.27455 19.546 5.66818 19.8015 6.10182 19.9615C6.45455 20.0987 6.98364 20.2615 7.95909 20.306C9.01364 20.3542 9.32909 20.3642 12 20.3642C14.6709 20.3642 14.9864 20.3542 16.0409 20.306C17.0164 20.2615 17.5455 20.0987 17.8982 19.9615C18.3645 19.7797 18.6982 19.5642 19.0482 19.2142C19.38 18.8915 19.6355 18.4978 19.7955 18.0642C19.9327 17.7115 20.0955 17.1824 20.14 16.2069C20.1882 15.1524 20.1982 14.836 20.1982 12.166C20.1982 9.49602 20.1882 9.17965 20.14 8.12511C20.0955 7.14965 19.9327 6.62056 19.7955 6.26783C19.6136 5.80147 19.3982 5.46783 19.0482 5.11783C18.7254 4.78608 18.3325 4.53075 17.8982 4.37056C17.5455 4.23329 17.0164 4.07056 16.0409 4.02602ZM10.7227 15.2487C11.4361 15.5457 12.2303 15.5858 12.9699 15.3621C13.7095 15.1385 14.3485 14.665 14.7778 14.0226C15.2071 13.3802 15.4001 12.6086 15.3237 11.8397C15.2473 11.0709 14.9064 10.3524 14.3591 9.80692C14.0102 9.45827 13.5884 9.1913 13.1239 9.02524C12.6595 8.85918 12.164 8.79816 11.6732 8.84658C11.1823 8.89499 10.7083 9.05163 10.2853 9.30523C9.86223 9.55882 9.50068 9.90306 9.22664 10.3132C8.9526 10.7233 8.7729 11.189 8.70047 11.6769C8.62804 12.1648 8.66468 12.6626 8.80776 13.1347C8.95084 13.6067 9.1968 14.0411 9.52793 14.4067C9.85906 14.7722 10.2671 15.0598 10.7227 15.2487ZM8.36545 8.53147C8.84275 8.05417 9.40938 7.67556 10.033 7.41725C10.6566 7.15894 11.325 7.02599 12 7.02599C12.675 7.02599 13.3434 7.15894 13.967 7.41725C14.5906 7.67556 15.1573 8.05417 15.6345 8.53147C16.1118 9.00877 16.4905 9.5754 16.7488 10.199C17.0071 10.8226 17.14 11.491 17.14 12.166C17.14 12.841 17.0071 13.5094 16.7488 14.133C16.4905 14.7566 16.1118 15.3233 15.6345 15.8006C14.6706 16.7645 13.3632 17.306 12 17.306C10.6368 17.306 9.3294 16.7645 8.36545 15.8006C7.40151 14.8366 6.85998 13.5292 6.85998 12.166C6.85998 10.8028 7.40151 9.49541 8.36545 8.53147ZM18.28 7.79147C18.3983 7.6799 18.493 7.54573 18.5585 7.3969C18.624 7.24808 18.6589 7.08762 18.6613 6.92504C18.6637 6.76246 18.6334 6.60106 18.5723 6.45039C18.5111 6.29972 18.4204 6.16284 18.3054 6.04787C18.1904 5.9329 18.0536 5.84216 17.9029 5.78103C17.7522 5.7199 17.5908 5.68963 17.4282 5.692C17.2657 5.69437 17.1052 5.72934 16.9564 5.79483C16.8076 5.86032 16.6734 5.95501 16.5618 6.07329C16.3448 6.30332 16.226 6.60885 16.2306 6.92504C16.2352 7.24123 16.3629 7.54318 16.5865 7.76678C16.8101 7.99039 17.1121 8.11804 17.4282 8.12265C17.7444 8.12726 18.05 8.00846 18.28 7.79147Z" fill="#151516"/>
</svg>
