<svg width="24" height="25" viewBox="0 0 24 25" fill="none" xmlns="http://www.w3.org/2000/svg">
<path d="M13 21.166H9V9.16602H13V11.166C13.4211 10.6303 13.9555 10.1944 14.565 9.88958C15.1744 9.58477 15.8438 9.41861 16.525 9.40302C17.7164 9.40963 18.8565 9.88844 19.6954 10.7344C20.5343 11.5805 21.0035 12.7246 21 13.916V21.166H17V14.416C16.9226 13.8756 16.6527 13.3813 16.2398 13.0241C15.8269 12.6669 15.2989 12.4708 14.753 12.472C14.5087 12.4797 14.2684 12.5367 14.0466 12.6396C13.8249 12.7425 13.6262 12.8891 13.4624 13.0706C13.2987 13.2522 13.1734 13.4649 13.0939 13.6961C13.0144 13.9273 12.9825 14.1722 13 14.416V21.166ZM7 21.166H3V9.16602H7V21.166ZM5 7.16602C4.46957 7.16602 3.96086 6.9553 3.58579 6.58023C3.21071 6.20516 3 5.69645 3 5.16602C3 4.63558 3.21071 4.12687 3.58579 3.7518C3.96086 3.37673 4.46957 3.16602 5 3.16602C5.53043 3.16602 6.03914 3.37673 6.41421 3.7518C6.78929 4.12687 7 4.63558 7 5.16602C7 5.69645 6.78929 6.20516 6.41421 6.58023C6.03914 6.9553 5.53043 7.16602 5 7.16602Z" fill="#151516"/>
</svg>
