<svg width="119" height="41" viewBox="0 0 119 41" fill="none" xmlns="http://www.w3.org/2000/svg">
<path d="M0 0.166016H95C108.255 0.166016 119 10.9112 119 24.166V40.166H0V0.166016Z" fill="#8350E6"/>
<path fill-rule="evenodd" clip-rule="evenodd" d="M18 20.166C18 14.6432 22.4772 10.166 28 10.166C33.5228 10.166 38 14.6432 38 20.166C38 25.6889 33.5228 30.166 28 30.166C22.4772 30.166 18 25.6889 18 20.166ZM23 19.666C22.4477 19.666 22 20.1137 22 20.666C22 22.2635 22.7984 23.648 23.9076 24.6092C25.0139 25.568 26.4927 26.166 28 26.166C29.5073 26.166 30.9861 25.568 32.0924 24.6092C33.2016 23.648 34 22.2635 34 20.666C34 20.1137 33.5523 19.666 33 19.666C32.4477 19.666 32 20.1137 32 20.666C32 21.5685 31.5484 22.4341 30.7826 23.0978C30.0139 23.764 28.9927 24.166 28 24.166C27.0073 24.166 25.9861 23.764 25.2174 23.0978C24.4516 22.4341 24 21.5685 24 20.666C24 20.1137 23.5523 19.666 23 19.666Z" fill="#C1A7F2"/>
<path d="M51.377 19.875H52.0742C52.7259 19.875 53.2135 19.7474 53.5371 19.4922C53.8607 19.2324 54.0225 18.8564 54.0225 18.3643C54.0225 17.8675 53.8857 17.5007 53.6123 17.2637C53.3434 17.0267 52.9196 16.9082 52.3408 16.9082H51.377V19.875ZM56.1621 18.2891C56.1621 19.3646 55.8249 20.1872 55.1504 20.7568C54.4805 21.3265 53.5257 21.6113 52.2861 21.6113H51.377V25.166H49.2578V15.1719H52.4502C53.6624 15.1719 54.583 15.4339 55.2119 15.958C55.8454 16.4775 56.1621 17.2546 56.1621 18.2891ZM62.7383 25.166L62.335 24.127H62.2803C61.9294 24.569 61.5671 24.8766 61.1934 25.0498C60.8242 25.2184 60.3411 25.3027 59.7441 25.3027C59.0104 25.3027 58.4316 25.0931 58.0078 24.6738C57.5885 24.2546 57.3789 23.6576 57.3789 22.8828C57.3789 22.0716 57.6615 21.4746 58.2266 21.0918C58.7962 20.7044 59.653 20.4902 60.7969 20.4492L62.123 20.4082V20.0732C62.123 19.2985 61.7266 18.9111 60.9336 18.9111C60.3229 18.9111 59.6051 19.0957 58.7803 19.4648L58.0898 18.0566C58.9694 17.5964 59.9447 17.3662 61.0156 17.3662C62.041 17.3662 62.8271 17.5895 63.374 18.0361C63.9209 18.4827 64.1943 19.1618 64.1943 20.0732V25.166H62.7383ZM62.123 21.625L61.3164 21.6523C60.7103 21.6706 60.2591 21.7799 59.9629 21.9805C59.6667 22.181 59.5186 22.4863 59.5186 22.8965C59.5186 23.4844 59.8558 23.7783 60.5303 23.7783C61.0133 23.7783 61.3984 23.6393 61.6855 23.3613C61.9772 23.0833 62.123 22.7142 62.123 22.2539V21.625ZM70.6133 17.3799C70.8958 17.3799 71.1305 17.4004 71.3174 17.4414L71.1602 19.3965C70.9915 19.3509 70.7865 19.3281 70.5449 19.3281C69.8796 19.3281 69.36 19.499 68.9863 19.8408C68.6172 20.1826 68.4326 20.6611 68.4326 21.2764V25.166H66.3477V17.5234H67.9268L68.2344 18.8086H68.3369C68.5739 18.3802 68.8929 18.0361 69.2939 17.7764C69.6995 17.512 70.1393 17.3799 70.6133 17.3799ZM77.5586 25.166L77.1553 24.127H77.1006C76.7497 24.569 76.3874 24.8766 76.0137 25.0498C75.6445 25.2184 75.1615 25.3027 74.5645 25.3027C73.8307 25.3027 73.252 25.0931 72.8281 24.6738C72.4089 24.2546 72.1992 23.6576 72.1992 22.8828C72.1992 22.0716 72.4818 21.4746 73.0469 21.0918C73.6165 20.7044 74.4733 20.4902 75.6172 20.4492L76.9434 20.4082V20.0732C76.9434 19.2985 76.5469 18.9111 75.7539 18.9111C75.1432 18.9111 74.4255 19.0957 73.6006 19.4648L72.9102 18.0566C73.7897 17.5964 74.765 17.3662 75.8359 17.3662C76.8613 17.3662 77.6475 17.5895 78.1943 18.0361C78.7412 18.4827 79.0146 19.1618 79.0146 20.0732V25.166H77.5586ZM76.9434 21.625L76.1367 21.6523C75.5306 21.6706 75.0794 21.7799 74.7832 21.9805C74.487 22.181 74.3389 22.4863 74.3389 22.8965C74.3389 23.4844 74.6761 23.7783 75.3506 23.7783C75.8337 23.7783 76.2188 23.6393 76.5059 23.3613C76.7975 23.0833 76.9434 22.7142 76.9434 22.2539V21.625ZM88.0244 23.6416C88.389 23.6416 88.8265 23.5618 89.3369 23.4023V24.9541C88.8174 25.1865 88.1794 25.3027 87.4229 25.3027C86.5889 25.3027 85.9805 25.0931 85.5977 24.6738C85.2194 24.25 85.0303 23.6165 85.0303 22.7734V19.0889H84.0322V18.207L85.1807 17.5098L85.7822 15.8965H87.1152V17.5234H89.2549V19.0889H87.1152V22.7734C87.1152 23.0697 87.1973 23.2884 87.3613 23.4297C87.5299 23.571 87.751 23.6416 88.0244 23.6416ZM90.7998 15.5479C90.7998 14.8688 91.1781 14.5293 91.9346 14.5293C92.6911 14.5293 93.0693 14.8688 93.0693 15.5479C93.0693 15.8714 92.9736 16.1243 92.7822 16.3066C92.5954 16.4844 92.3128 16.5732 91.9346 16.5732C91.1781 16.5732 90.7998 16.2314 90.7998 15.5479ZM92.9736 25.166H90.8887V17.5234H92.9736V25.166Z" fill="white"/>
</svg>
