<svg width="200" height="220" viewBox="0 0 200 220" fill="none" xmlns="http://www.w3.org/2000/svg">
<g filter="url(#filter0_d_3286:221317)">
<rect x="60.5508" y="68.5729" width="77.1165" height="98.2614" fill="url(#paint0_linear_3286:221317)"/>
<path d="M146.384 54H53.16C50.3079 54 48 56.3079 48 59.16V173.024C48 175.876 50.3079 178.184 53.16 178.184H146.384C149.236 178.184 151.544 175.876 151.544 173.024V59.16C151.544 56.3079 149.236 54 146.384 54ZM92.928 132.756L82.608 143.076C81.6001 144.084 80.2798 144.588 78.9599 144.588C77.64 144.588 76.3193 144.084 75.3118 143.076L70.1518 137.916C68.1363 135.901 68.1363 132.635 70.1518 130.62C72.1673 128.604 75.4329 128.604 77.4484 130.62L78.9602 132.132L85.6321 125.46C87.6476 123.444 90.9132 123.444 92.9286 125.46C94.9441 127.475 94.9438 130.741 92.928 132.756ZM92.928 101.797L82.608 112.117C81.6001 113.124 80.2798 113.628 78.9599 113.628C77.64 113.628 76.3193 113.124 75.3118 112.117L70.1518 106.957C68.1363 104.941 68.1363 101.675 70.1518 99.66C72.1673 97.6445 75.4329 97.6445 77.4484 99.66L78.9602 101.172L85.6321 94.5C87.6476 92.4845 90.9132 92.4845 92.9286 94.5C94.9441 96.5155 94.9438 99.7811 92.928 101.797ZM125.4 144.588H104.76C101.908 144.588 99.5998 142.28 99.5998 139.428C99.5998 136.576 101.908 134.268 104.76 134.268H125.4C128.252 134.268 130.56 136.576 130.56 139.428C130.56 142.28 128.252 144.588 125.4 144.588ZM125.4 113.628H104.76C101.908 113.628 99.5998 111.321 99.5998 108.468C99.5998 105.616 101.908 103.308 104.76 103.308H125.4C128.252 103.308 130.56 105.616 130.56 108.468C130.56 111.321 128.252 113.628 125.4 113.628Z" fill="url(#paint1_linear_3286:221317)"/>
<path fill-rule="evenodd" clip-rule="evenodd" d="M48 128C46.8954 128 46 127.105 46 126L46 62C46 56.4772 50.4772 52 56 52L99 52C100.105 52 101 52.8954 101 54C101 55.1046 100.105 56 99 56L56 56C52.6863 56 50 58.6863 50 62L50 126C50 127.105 49.1046 128 48 128Z" fill="#8350E6"/>
<path fill-rule="evenodd" clip-rule="evenodd" d="M152 141C153.105 141 154 141.895 154 143L154 170C154 175.523 149.523 180 144 180L135 180C133.895 180 133 179.104 133 178C133 176.895 133.895 176 135 176L144 176C147.314 176 150 173.314 150 170L150 143C150 141.895 150.895 141 152 141Z" fill="#3EACF5"/>
<path fill-rule="evenodd" clip-rule="evenodd" d="M98 178C98 176.895 98.8954 176 100 176L121 176C122.105 176 123 176.895 123 178C123 179.105 122.105 180 121 180L100 180C98.8954 180 98 179.105 98 178Z" fill="#3EACF5"/>
<rect x="92.3418" y="10" width="14.2581" height="52.4957" fill="#E6DCFA"/>
<path d="M79.3789 52.4207C79.3789 63.337 88.3911 72.2171 99.4698 72.2171C110.549 72.2171 119.561 63.337 119.561 52.4207C119.561 44.0806 114.3 36.9294 106.876 34.0186L118.298 26.5158C119.102 25.9502 119.561 25.1018 119.561 24.1402V12.828C119.561 11.2442 118.298 10 116.691 10H105.21V33.4491C103.39 32.9136 101.464 32.6244 99.4698 32.6244C97.4757 32.6244 95.5492 32.9134 93.7296 33.4491V10H82.249C80.6416 10 79.3789 11.2442 79.3789 12.828V24.1402C79.3789 25.1018 79.8383 25.9502 80.6416 26.5158L92.0634 34.0186C84.6397 36.9294 79.3789 44.0806 79.3789 52.4207ZM96.5997 46.7646C96.5997 45.1808 97.8624 43.9366 99.4698 43.9366C101.077 43.9366 102.34 45.1808 102.34 46.7646V58.0768C102.34 59.6604 101.077 60.9049 99.4698 60.9049C97.8624 60.9049 96.5997 59.6604 96.5997 58.0768V46.7646Z" fill="url(#paint2_linear_3286:221317)"/>
<path d="M111.54 48.4987C111.241 47.5388 110.463 46.7939 109.549 46.5645L104.763 45.2243L102.02 41.084C101.487 40.2992 100.579 39.8306 99.5875 39.8306C98.5962 39.8306 97.6875 40.2991 97.1463 41.0967L94.4117 45.2243L89.6631 46.5546C88.7117 46.7939 87.934 47.5388 87.6435 48.4717C87.333 49.406 87.5381 50.4557 88.1448 51.1778L91.2213 55.0704L91.0163 59.9814C90.9565 60.9484 91.3837 61.8842 92.2667 62.5579C93.1206 63.1017 94.0967 63.1843 94.9302 62.8726L99.5876 61.162L104.214 62.8613C105.031 63.1807 106.066 63.1212 107.014 62.4838C107.791 61.8842 108.219 60.9484 108.162 60.0127L107.954 55.0704L111.002 51.2134C111.637 50.4557 111.842 49.4061 111.54 48.4987Z" fill="white"/>
</g>
<defs>
<filter id="filter0_d_3286:221317" x="-20" y="-8" width="248" height="248" filterUnits="userSpaceOnUse" color-interpolation-filters="sRGB">
<feFlood flood-opacity="0" result="BackgroundImageFix"/>
<feColorMatrix in="SourceAlpha" type="matrix" values="0 0 0 0 0 0 0 0 0 0 0 0 0 0 0 0 0 0 127 0" result="hardAlpha"/>
<feOffset dx="4" dy="16"/>
<feGaussianBlur stdDeviation="12"/>
<feComposite in2="hardAlpha" operator="out"/>
<feColorMatrix type="matrix" values="0 0 0 0 0.513726 0 0 0 0 0.313726 0 0 0 0 0.901961 0 0 0 0.1 0"/>
<feBlend mode="normal" in2="BackgroundImageFix" result="effect1_dropShadow_3286:221317"/>
<feBlend mode="normal" in="SourceGraphic" in2="effect1_dropShadow_3286:221317" result="shape"/>
</filter>
<linearGradient id="paint0_linear_3286:221317" x1="99.109" y1="68.5729" x2="99.109" y2="166.834" gradientUnits="userSpaceOnUse">
<stop stop-color="#B596F0"/>
<stop offset="1" stop-color="#E6DCFA"/>
</linearGradient>
<linearGradient id="paint1_linear_3286:221317" x1="99.7718" y1="54" x2="99.7718" y2="178.184" gradientUnits="userSpaceOnUse">
<stop stop-color="#F2ECFF"/>
<stop offset="1" stop-color="#F0DCFF"/>
</linearGradient>
<linearGradient id="paint2_linear_3286:221317" x1="99.4698" y1="10" x2="99.4698" y2="72.2171" gradientUnits="userSpaceOnUse">
<stop stop-color="#8350E6"/>
<stop offset="1" stop-color="#D6A7FA"/>
</linearGradient>
</defs>
</svg>
