<svg width="24" height="25" viewBox="0 0 24 25" fill="none" xmlns="http://www.w3.org/2000/svg">
<path d="M21.6244 6.05838C20.9027 6.37817 20.1275 6.59424 19.3125 6.6919C20.1534 6.18871 20.7826 5.39674 21.0825 4.46378C20.2924 4.93307 19.4277 5.26341 18.526 5.44042C17.9196 4.79295 17.1164 4.3638 16.2411 4.21959C15.3658 4.07539 14.4674 4.22419 13.6853 4.6429C12.9033 5.06161 12.2813 5.72681 11.9161 6.53521C11.5508 7.34361 11.4626 8.24999 11.6653 9.11362C10.0644 9.03324 8.49823 8.61713 7.06853 7.89231C5.63882 7.16748 4.37751 6.15013 3.36643 4.90629C3.02072 5.50265 2.82193 6.19407 2.82193 6.93044C2.82155 7.59334 2.98479 8.24609 3.29718 8.83077C3.60958 9.41545 4.06146 9.91398 4.61273 10.2821C3.9734 10.2618 3.34817 10.089 2.78909 9.77826V9.83011C2.78903 10.7599 3.11063 11.661 3.69934 12.3806C4.28805 13.1002 5.10759 13.594 6.01892 13.7782C5.42583 13.9387 4.80403 13.9623 4.20047 13.8473C4.45759 14.6473 4.95844 15.3469 5.6329 15.8481C6.30736 16.3493 7.12167 16.627 7.96183 16.6424C6.53562 17.762 4.77425 18.3693 2.96108 18.3666C2.6399 18.3667 2.31899 18.348 2 18.3105C3.84047 19.4938 5.98291 20.1218 8.17098 20.1194C15.5779 20.1194 19.6271 13.9847 19.6271 8.6642C19.6271 8.49134 19.6227 8.31675 19.615 8.1439C20.4026 7.57431 21.0824 6.86899 21.6227 6.06097L21.6244 6.05838Z" fill="#151516"/>
</svg>
