<svg width="24" height="25" viewBox="0 0 24 25" fill="none" xmlns="http://www.w3.org/2000/svg">
<path d="M12.0632 5.16602H12.1744C13.2021 5.16975 18.4091 5.20712 19.813 5.58331C20.2374 5.69812 20.6242 5.92191 20.9346 6.23231C21.245 6.54271 21.4683 6.92886 21.582 7.35215C21.7083 7.8255 21.797 8.45207 21.857 9.09857L21.8695 9.22812L21.897 9.55199L21.907 9.68154C21.9883 10.8201 21.9983 11.8864 21.9995 12.1193V12.2127C21.9983 12.4544 21.987 13.5929 21.897 14.7788L21.887 14.9096L21.8758 15.0391C21.8133 15.7517 21.7208 16.4592 21.582 16.9799C21.4686 17.4033 21.2455 17.7897 20.935 18.1001C20.6245 18.4106 20.2376 18.6343 19.813 18.7487C18.3628 19.1374 12.8508 19.1648 12.0869 19.166H11.9094C11.5231 19.166 9.92539 19.1585 8.25016 19.1012L8.03763 19.0938L7.92886 19.0888L7.71508 19.0801L7.5013 19.0713C6.11361 19.0103 4.79218 18.9119 4.18335 18.7475C3.7589 18.6331 3.37207 18.4096 3.0616 18.0994C2.75113 17.7892 2.52793 17.4031 2.41435 16.9799C2.27559 16.4604 2.18307 15.7517 2.12056 15.0391L2.11056 14.9083L2.10056 14.7788C2.03886 13.9347 2.00467 13.0889 1.99805 12.2426L1.99805 12.0894C2.00055 11.8216 2.01055 10.8961 2.07806 9.87462L2.08681 9.74632L2.09056 9.68154L2.10056 9.55199L2.12806 9.22812L2.14057 9.09857C2.20057 8.45207 2.28934 7.82426 2.4156 7.35215C2.52899 6.92869 2.7521 6.54236 3.06258 6.23191C3.37307 5.92145 3.76 5.69778 4.1846 5.58331C4.79343 5.42138 6.11486 5.32172 7.50255 5.25944L7.71508 5.25072L7.93011 5.24325L8.03763 5.23951L8.25141 5.23079C9.44121 5.19264 10.6315 5.17146 11.8219 5.16726H12.0632V5.16602ZM9.99915 9.16459V15.1662L15.1961 12.1666L9.99915 9.16459Z" fill="#151516"/>
</svg>
