<svg width="87" height="26" viewBox="0 0 87 26" fill="none" xmlns="http://www.w3.org/2000/svg">
<path d="M39.5388 22.3787C36.3259 22.3787 34.0663 20.6214 33.9155 18.1114H36.2761C36.4013 19.4418 37.5809 20.4457 39.5139 20.4457C41.3217 20.4457 42.3256 19.5421 42.3256 18.413C42.3256 15.3502 34.1949 17.1324 34.1949 12.0114C34.1949 9.90261 36.1777 8.1709 39.2438 8.1709C42.281 8.1709 44.2894 9.80229 44.4402 12.4881H42.1459C42.0456 11.1111 40.9912 10.1039 39.1585 10.1039C37.4767 10.1039 36.4701 10.9072 36.4701 12.0114C36.4701 15.2748 44.4527 13.4926 44.553 18.413C44.5556 20.6719 42.5728 22.3787 39.5388 22.3787Z" fill="#2D2D30"/>
<path d="M53.0647 22.3784C49.1488 22.3784 46.2617 19.6172 46.2617 15.2496C46.2617 10.9068 49.0485 8.16797 53.0647 8.16797C57.056 8.16797 59.667 10.979 59.667 14.7447C59.6679 15.2076 59.6427 15.6701 59.5916 16.1302H48.8498C48.8177 16.13 48.7858 16.1365 48.7564 16.1493C48.7269 16.1621 48.7005 16.1809 48.6787 16.2046C48.657 16.2282 48.6404 16.2562 48.6301 16.2866C48.6199 16.3171 48.6161 16.3493 48.619 16.3813C48.8931 19.0081 50.8025 20.4467 53.066 20.4467C55.1242 20.4467 56.4298 19.393 56.9347 17.9117H59.3949C58.6854 20.4205 56.4789 22.3784 53.0647 22.3784ZM48.8819 14.2706H57.0724C57.1032 14.2708 57.1337 14.2648 57.1622 14.253C57.1906 14.2412 57.2164 14.2238 57.2381 14.2019C57.2597 14.1799 57.2767 14.1539 57.2881 14.1252C57.2995 14.0966 57.3051 14.066 57.3045 14.0352C57.2133 11.4983 55.2541 10.101 52.9644 10.101C50.8051 10.101 48.998 11.4839 48.6524 14.0005C48.6471 14.0337 48.6491 14.0677 48.6582 14.1001C48.6673 14.1326 48.6832 14.1626 48.705 14.1883C48.7268 14.214 48.7539 14.2346 48.7845 14.2488C48.815 14.263 48.8482 14.2705 48.8819 14.2706V14.2706Z" fill="#2D2D30"/>
<path d="M61.9502 3.57715H64.2346V22.1533H61.9502V3.57715Z" fill="#2D2D30"/>
<path d="M67.2214 4.91799C67.2182 4.71278 67.2563 4.50901 67.3333 4.31879C67.4104 4.12857 67.5249 3.95577 67.67 3.81064C67.8151 3.66551 67.9879 3.55102 68.1781 3.47395C68.3684 3.39688 68.5721 3.35881 68.7773 3.362C69.6055 3.362 70.2854 4.04 70.2854 4.91799C70.2854 5.79598 69.6074 6.47464 68.7773 6.47464C68.5721 6.47782 68.3683 6.43973 68.178 6.36263C67.9877 6.28552 67.8149 6.17096 67.6698 6.02577C67.5246 5.88057 67.4102 5.70769 67.3331 5.51739C67.2561 5.3271 67.2181 5.12326 67.2214 4.91799V4.91799Z" fill="#2D2D30"/>
<path d="M69.8826 8.39697H67.5981V22.153H69.8826V8.39697Z" fill="#2D2D30"/>
<path d="M79.0943 8.1709C81.281 8.1709 82.8816 9.12298 83.8029 10.2921C83.8325 10.3299 83.8733 10.3575 83.9194 10.3711C83.9655 10.3847 84.0147 10.3835 84.0601 10.3678C84.1055 10.352 84.1449 10.3225 84.1727 10.2833C84.2005 10.2441 84.2154 10.1972 84.2153 10.1492V8.39712H86.5247V22.1531H84.2153V20.3559C84.2156 20.3076 84.2008 20.2605 84.1729 20.2212C84.1451 20.1818 84.1056 20.1521 84.06 20.1364C84.0144 20.1206 83.965 20.1195 83.9188 20.1332C83.8726 20.147 83.8318 20.1748 83.8022 20.2129C82.862 21.4201 81.245 22.3767 79.0694 22.3767C75.404 22.3767 72.5674 19.4916 72.5674 15.223C72.5674 10.9321 75.4059 8.1709 79.0943 8.1709ZM79.5461 10.1538C77.036 10.1538 74.9017 11.9897 74.9017 15.225C74.9017 18.4602 77.036 20.3709 79.5461 20.3709C82.0561 20.3709 84.2153 18.4878 84.2153 15.2499C84.2153 12.0651 82.0561 10.1538 79.5461 10.1538Z" fill="#2D2D30"/>
<path d="M13.6389 12.4689C12.4058 12.469 11.2004 12.1035 10.1751 11.4185C9.14972 10.7335 8.35054 9.75989 7.87857 8.62071C7.4066 7.48153 7.28304 6.22797 7.52352 5.01856C7.76401 3.80916 8.35773 2.69823 9.2296 1.82626C10.1015 0.954292 11.2123 0.360454 12.4217 0.119844C13.6311 -0.120767 14.8847 0.0026578 16.0239 0.474508C17.1631 0.946359 18.1369 1.74544 18.8219 2.7707C19.507 3.79597 19.8727 5.00136 19.8727 6.23444C19.8709 7.88727 19.2136 9.47191 18.045 10.6407C16.8763 11.8095 15.2917 12.467 13.6389 12.4689V12.4689ZM13.6389 1.70483C12.7432 1.70483 11.8675 1.97045 11.1228 2.4681C10.378 2.96575 9.79748 3.67307 9.4547 4.50063C9.11191 5.32819 9.02222 6.23881 9.19697 7.11734C9.37172 7.99587 9.80307 8.80285 10.4364 9.43623C11.0698 10.0696 11.8768 10.501 12.7553 10.6757C13.6339 10.8505 14.5445 10.7608 15.372 10.418C16.1996 10.0752 16.9069 9.49471 17.4046 8.74993C17.9022 8.00515 18.1678 7.12952 18.1678 6.23378C18.1665 5.03306 17.6889 3.88191 16.8398 3.03287C15.9908 2.18382 14.8396 1.70622 13.6389 1.70483V1.70483Z" fill="#8350E6"/>
<path d="M19.1715 13.183C17.4162 14.6813 16.03 17.0405 13.6498 17.0405C11.2696 17.0405 9.91229 14.68 8.15566 13.1817C5.50399 10.9176 3.02215 11.3602 1.36388 12.7824C-0.0268712 13.9751 -0.882565 16.4629 1.47338 19.5722C6.00102 25.5503 12.5351 25.6801 13.6505 25.6801C15.3481 25.6801 21.2829 25.5489 25.8092 19.5637C28.1632 16.4517 27.3121 14.0007 25.8544 12.7607C24.2611 11.4093 21.8251 10.9169 19.1715 13.183ZM20.7242 14.101C22.4638 12.6958 24.1339 13.5292 24.6151 13.922C25.2013 14.4007 26.1416 15.739 25.0918 17.373C23.5804 19.725 18.2784 19.7643 15.8569 19.0352C15.8135 19.0228 15.7744 18.9984 15.7442 18.9648C15.714 18.9311 15.6939 18.8897 15.6863 18.8452C15.6786 18.8006 15.6836 18.7548 15.7008 18.7131C15.718 18.6713 15.7467 18.6352 15.7835 18.609C16.8982 17.8647 20.0973 14.6085 20.7242 14.1023V14.101ZM13.6505 23.9772C13.1869 23.9772 6.96228 24.13 2.71397 18.3506C1.21962 16.3179 1.6196 14.699 2.6484 13.9318C4.47585 12.568 6.05413 13.4145 7.89403 15.3009C11.4473 18.9388 14.0714 21.8396 21.4514 20.9544C21.7012 20.9249 21.8376 21.2383 21.635 21.3878C19.3182 23.0814 16.5202 23.9888 13.6505 23.9772V23.9772Z" fill="#8350E6"/>
</svg>
