<svg width="28" height="26" viewBox="0 0 28 26" fill="none" xmlns="http://www.w3.org/2000/svg">
<path d="M13.6389 12.4689C12.4058 12.469 11.2004 12.1035 10.1751 11.4185C9.14972 10.7335 8.35054 9.75989 7.87857 8.62071C7.4066 7.48153 7.28304 6.22797 7.52352 5.01856C7.76401 3.80916 8.35773 2.69823 9.2296 1.82626C10.1015 0.954292 11.2123 0.360454 12.4217 0.119844C13.6311 -0.120767 14.8847 0.0026578 16.0239 0.474508C17.1631 0.946359 18.1369 1.74544 18.8219 2.7707C19.507 3.79597 19.8727 5.00136 19.8727 6.23444C19.8709 7.88727 19.2136 9.47191 18.045 10.6407C16.8763 11.8095 15.2917 12.467 13.6389 12.4689V12.4689ZM13.6389 1.70483C12.7432 1.70483 11.8675 1.97045 11.1228 2.4681C10.378 2.96575 9.79748 3.67307 9.4547 4.50063C9.11191 5.32819 9.02222 6.23881 9.19697 7.11734C9.37172 7.99587 9.80307 8.80285 10.4364 9.43623C11.0698 10.0696 11.8768 10.501 12.7553 10.6757C13.6339 10.8505 14.5445 10.7608 15.372 10.418C16.1996 10.0752 16.9069 9.49471 17.4046 8.74993C17.9022 8.00515 18.1678 7.12952 18.1678 6.23378C18.1665 5.03306 17.6889 3.88191 16.8398 3.03287C15.9908 2.18382 14.8396 1.70622 13.6389 1.70483V1.70483Z" fill="#8350E6"/>
<path d="M19.1715 13.183C17.4162 14.6813 16.03 17.0405 13.6498 17.0405C11.2696 17.0405 9.91229 14.68 8.15566 13.1817C5.50399 10.9176 3.02215 11.3602 1.36388 12.7824C-0.0268712 13.9751 -0.882565 16.4629 1.47338 19.5722C6.00102 25.5503 12.5351 25.6801 13.6505 25.6801C15.3481 25.6801 21.2829 25.5489 25.8092 19.5637C28.1632 16.4517 27.3121 14.0007 25.8544 12.7607C24.2611 11.4093 21.8251 10.9169 19.1715 13.183ZM20.7242 14.101C22.4638 12.6958 24.1339 13.5292 24.6151 13.922C25.2013 14.4007 26.1416 15.739 25.0918 17.373C23.5804 19.725 18.2784 19.7643 15.8569 19.0352C15.8135 19.0228 15.7744 18.9984 15.7442 18.9648C15.714 18.9311 15.6939 18.8897 15.6863 18.8452C15.6786 18.8006 15.6836 18.7548 15.7008 18.7131C15.718 18.6713 15.7467 18.6352 15.7835 18.609C16.8982 17.8647 20.0973 14.6085 20.7242 14.1023V14.101ZM13.6505 23.9772C13.1869 23.9772 6.96228 24.13 2.71397 18.3506C1.21962 16.3179 1.6196 14.699 2.6484 13.9318C4.47585 12.568 6.05413 13.4145 7.89403 15.3009C11.4473 18.9388 14.0714 21.8396 21.4514 20.9544C21.7012 20.9249 21.8376 21.2383 21.635 21.3878C19.3182 23.0814 16.5202 23.9888 13.6505 23.9772V23.9772Z" fill="#8350E6"/>
</svg>
