<svg width="135" height="40" viewBox="0 0 135 40" fill="none" xmlns="http://www.w3.org/2000/svg">
<g clip-path="url(#clip0_324_53320)">
<path d="M130 40H5C3.67392 40 2.40216 39.4732 1.46448 38.5355C0.526796 37.5978 0 36.3261 0 35V5C0 3.67392 0.526796 2.40216 1.46448 1.46448C2.40216 0.526796 3.67392 0 5 0H130C131.326 0 132.598 0.526796 133.536 1.46448C134.473 2.40216 135 3.67392 135 5V35C135 36.3261 134.473 37.5978 133.536 38.5355C132.598 39.4732 131.326 40 130 40Z" fill="black"/>
<path d="M130 0H5C3.67392 0 2.40216 0.526796 1.46448 1.46448C0.526796 2.40216 0 3.67392 0 5V35C0 36.3261 0.526796 37.5978 1.46448 38.5355C2.40216 39.4732 3.67392 40 5 40H130C131.326 40 132.598 39.4732 133.536 38.5355C134.473 37.5978 135 36.3261 135 35V5C135 3.67392 134.473 2.40216 133.536 1.46448C132.598 0.526796 131.326 0 130 0ZM130 0.799988C131.114 0.799988 132.182 1.2425 132.97 2.03015C133.758 2.8178 134.2 3.88609 134.2 5V35C134.2 36.1139 133.758 37.1822 132.97 37.9698C132.182 38.7575 131.114 39.2 130 39.2H5C3.8869 39.1974 2.82016 38.754 2.03308 37.9669C1.246 37.1798 0.80269 36.1131 0.800049 35V5C0.80269 3.8869 1.246 2.82016 2.03308 2.03308C2.82016 1.246 3.8869 0.802629 5 0.799988H130Z" fill="#A6A6A6"/>
<path d="M106.94 30.0019H108.8V17.5019H106.94V30.0019ZM123.74 22.0019L121.609 27.4219H121.54L119.32 22.0019H117.32L120.65 29.5819L118.75 33.7919H120.75L125.88 22.0019H123.74ZM113.16 28.5819C112.55 28.5819 111.7 28.2719 111.7 27.5219C111.7 26.5219 112.76 26.1819 113.7 26.1819C114.294 26.1672 114.881 26.3122 115.4 26.6019C115.336 27.1483 115.076 27.6529 114.667 28.0211C114.259 28.3893 113.73 28.5958 113.18 28.6019L113.16 28.5819ZM113.39 21.7319C112.709 21.6912 112.031 21.8503 111.439 22.1896C110.848 22.529 110.368 23.0337 110.06 23.6419L111.709 24.3319C111.922 23.9875 112.235 23.7158 112.606 23.5528C112.976 23.3898 113.388 23.3431 113.785 23.419C114.183 23.4949 114.548 23.6897 114.833 23.9777C115.118 24.2657 115.308 24.6333 115.38 25.0319V25.1519C114.781 24.8366 114.116 24.6719 113.44 24.6719C111.65 24.6719 109.829 25.6719 109.829 27.4919C109.848 27.8783 109.945 28.257 110.112 28.6056C110.28 28.9543 110.515 29.266 110.805 29.5223C111.095 29.7785 111.433 29.9742 111.8 30.0978C112.166 30.2214 112.554 30.2704 112.94 30.2419C113.41 30.2668 113.878 30.1659 114.296 29.9498C114.715 29.7336 115.068 29.4099 115.32 29.0119H115.38V30.0119H117.18V25.2219C117.18 23.0019 115.53 21.7619 113.39 21.7619V21.7319ZM101.859 23.5219H99.1996V19.2419H101.859C102.427 19.2419 102.971 19.4674 103.373 19.8687C103.774 20.27 104 20.8143 104 21.3819C104 21.9495 103.774 22.4937 103.373 22.8951C102.971 23.2964 102.427 23.5219 101.859 23.5219ZM101.859 17.5219H97.3895V30.0019H99.2495V25.2619H101.859C102.392 25.3002 102.928 25.2282 103.432 25.0506C103.935 24.873 104.397 24.5934 104.789 24.2294C105.18 23.8653 105.492 23.4247 105.705 22.9347C105.918 22.4448 106.028 21.9162 106.028 21.3819C106.028 20.8476 105.918 20.3189 105.705 19.829C105.492 19.3391 105.18 18.8985 104.789 18.5344C104.397 18.1704 103.935 17.8908 103.432 17.7131C102.928 17.5355 102.392 17.4636 101.859 17.5019V17.5219ZM77.3895 28.5819C76.7343 28.5411 76.1193 28.252 75.6698 27.7736C75.2203 27.2951 74.9701 26.6634 74.9701 26.0069C74.9701 25.3504 75.2203 24.7186 75.6698 24.2402C76.1193 23.7618 76.7343 23.4727 77.3895 23.4319C78.0107 23.5187 78.5796 23.8271 78.9913 24.3003C79.403 24.7735 79.6299 25.3796 79.6299 26.0069C79.6299 26.6341 79.403 27.2402 78.9913 27.7134C78.5796 28.1867 78.0107 28.4951 77.3895 28.5819ZM79.5295 22.7019H79.4595C79.181 22.3827 78.8364 22.1279 78.4496 21.9553C78.0628 21.7826 77.643 21.6961 77.2195 21.7019C76.1267 21.7549 75.0962 22.2263 74.3416 23.0185C73.5869 23.8106 73.1659 24.8628 73.1659 25.9569C73.1659 27.051 73.5869 28.1032 74.3416 28.8953C75.0962 29.6875 76.1267 30.1589 77.2195 30.2119C77.6436 30.2211 78.0645 30.1362 78.4518 29.9633C78.8391 29.7903 79.1832 29.5338 79.4595 29.2119H79.5295V29.8219C79.5295 31.4519 78.6595 32.3219 77.2595 32.3219C76.7918 32.3116 76.3378 32.1626 75.955 31.8937C75.5722 31.6249 75.2779 31.2483 75.1095 30.8119L73.4895 31.4819C73.789 32.2341 74.3098 32.8778 74.9829 33.3278C75.6561 33.7777 76.4499 34.0128 77.2595 34.0019C79.4495 34.0019 81.2595 32.7119 81.2595 29.5719V22.0019H79.4895V22.6919L79.5295 22.7019ZM82.5895 30.0019H84.4595V17.5019H82.5895V30.0019ZM87.2095 25.8819C87.1892 25.5713 87.2311 25.2597 87.3328 24.9655C87.4344 24.6713 87.5937 24.4003 87.8014 24.1684C88.0091 23.9365 88.261 23.7484 88.5422 23.615C88.8235 23.4817 89.1286 23.4059 89.4396 23.3919C89.763 23.3728 90.0848 23.4488 90.3656 23.6105C90.6464 23.7722 90.8737 24.0126 91.0195 24.3019L87.2095 25.8819ZM93.0095 24.4619C92.7487 23.6946 92.2611 23.0246 91.6111 22.5407C90.9611 22.0568 90.1793 21.7817 89.3695 21.7519C88.8225 21.7508 88.2812 21.862 87.7788 22.0784C87.2765 22.2949 86.8237 22.6121 86.4489 23.0104C86.074 23.4088 85.7848 23.8797 85.5991 24.3943C85.4135 24.9088 85.3353 25.456 85.3695 26.0019C85.356 26.5616 85.4556 27.1183 85.6624 27.6387C85.8691 28.159 86.1788 28.6322 86.5729 29.03C86.9669 29.4278 87.4372 29.7419 87.9556 29.9536C88.4739 30.1653 89.0296 30.2701 89.5895 30.2619C90.2916 30.2662 90.9838 30.0958 91.6035 29.7658C92.2233 29.4359 92.7511 28.9568 93.1395 28.3719L91.6896 27.3719C91.4703 27.7316 91.1616 28.0284 90.7936 28.2335C90.4256 28.4385 90.0107 28.5447 89.5895 28.5419C89.1561 28.5598 88.7274 28.4462 88.3597 28.2159C87.9921 27.9857 87.7027 27.6496 87.5295 27.2519L93.2195 24.9019L93.0195 24.4219L93.0095 24.4619ZM47.6996 23.0619V24.8619H52.0195C51.9565 25.7109 51.6034 26.5124 51.0195 27.1319C50.5862 27.5734 50.065 27.919 49.4896 28.1464C48.9143 28.3738 48.2977 28.4779 47.6796 28.4519C46.4065 28.4519 45.1856 27.9462 44.2854 27.046C43.3852 26.1458 42.8795 24.925 42.8795 23.6519C42.8795 22.3789 43.3852 21.1579 44.2854 20.2577C45.1856 19.3576 46.4065 18.8519 47.6796 18.8519C48.8935 18.8368 50.0646 19.3003 50.9396 20.1419L52.2095 18.8719C51.6135 18.2824 50.9058 17.8178 50.1279 17.5052C49.3501 17.1927 48.5178 17.0386 47.6796 17.0519C46.7906 17.0173 45.9037 17.1625 45.0721 17.4789C44.2406 17.7952 43.4815 18.2761 42.8403 18.8929C42.1991 19.5096 41.689 20.2495 41.3406 21.0681C40.9921 21.8867 40.8125 22.7672 40.8125 23.6569C40.8125 24.5466 40.9921 25.4271 41.3406 26.2457C41.689 27.0643 42.1991 27.8041 42.8403 28.4209C43.4815 29.0376 44.2406 29.5185 45.0721 29.8349C45.9037 30.1512 46.7906 30.2965 47.6796 30.2619C48.535 30.2961 49.3879 30.1489 50.1824 29.8301C50.9769 29.5112 51.6951 29.0279 52.2896 28.4119C53.3433 27.2598 53.9064 25.7424 53.8595 24.1819C53.8601 23.8063 53.8267 23.4314 53.7595 23.0619H47.6996ZM58.7795 28.5819C58.2631 28.618 57.7478 28.498 57.3005 28.2373C56.8533 27.9766 56.4948 27.5874 56.2716 27.1203C56.0485 26.6532 55.9709 26.1298 56.0492 25.618C56.1275 25.1063 56.3579 24.6299 56.7104 24.2509C57.063 23.8719 57.5215 23.6077 58.0262 23.4927C58.531 23.3776 59.0588 23.4171 59.5408 23.606C60.0228 23.7948 60.4367 24.1243 60.729 24.5516C61.0213 24.9789 61.1783 25.4842 61.1796 26.0019C61.1957 26.3299 61.1458 26.6578 61.0332 26.9663C60.9206 27.2748 60.7474 27.5576 60.5237 27.7981C60.3 28.0385 60.0304 28.2318 59.7308 28.3664C59.4313 28.501 59.1079 28.5743 58.7795 28.5819ZM58.7795 21.7519C57.937 21.7539 57.114 22.0057 56.4146 22.4754C55.7151 22.9451 55.1706 23.6117 54.85 24.3909C54.5294 25.17 54.4471 26.0268 54.6134 26.8528C54.7797 27.6787 55.1871 28.4368 55.7843 29.0312C56.3815 29.6256 57.1415 30.0295 57.9683 30.1919C58.795 30.3544 59.6513 30.268 60.429 29.9438C61.2066 29.6195 61.8707 29.0719 62.3372 28.3703C62.8036 27.6686 63.0515 26.8444 63.0496 26.0019C63.0577 25.4398 62.9527 24.8818 62.7407 24.3612C62.5288 23.8406 62.2142 23.3679 61.8158 22.9714C61.4174 22.5748 60.9433 22.2625 60.4216 22.053C59.9 21.8435 59.3416 21.7411 58.7795 21.7519ZM68.0995 28.5819C67.5831 28.618 67.0678 28.498 66.6205 28.2373C66.1732 27.9766 65.8147 27.5874 65.5916 27.1203C65.3684 26.6532 65.291 26.1298 65.3693 25.618C65.4475 25.1063 65.6779 24.6299 66.0305 24.2509C66.3831 23.8719 66.8416 23.6077 67.3463 23.4927C67.8511 23.3776 68.3787 23.4171 68.8607 23.606C69.3427 23.7948 69.7568 24.1243 70.0491 24.5516C70.3413 24.9789 70.4983 25.4842 70.4995 26.0019C70.5156 26.3299 70.4659 26.6578 70.3533 26.9663C70.2406 27.2748 70.0673 27.5576 69.8436 27.7981C69.6199 28.0385 69.3505 28.2318 69.0509 28.3664C68.7514 28.501 68.4278 28.5743 68.0995 28.5819ZM68.0995 21.7519C67.2578 21.7578 66.4368 22.0129 65.74 22.485C65.0432 22.9572 64.5019 23.6252 64.1843 24.4047C63.8668 25.1842 63.7873 26.0402 63.9558 26.8649C64.1244 27.6895 64.5334 28.4458 65.1313 29.0381C65.7293 29.6305 66.4894 30.0325 67.3156 30.1933C68.1417 30.3541 68.9971 30.2666 69.7736 29.9418C70.55 29.6169 71.2129 29.0694 71.6785 28.3682C72.144 27.667 72.3915 26.8436 72.3895 26.0019C72.3977 25.4398 72.2926 24.8818 72.0807 24.3612C71.8687 23.8406 71.5542 23.3679 71.1558 22.9714C70.7573 22.5748 70.2832 22.2625 69.7616 22.053C69.24 21.8435 68.6815 21.7411 68.1195 21.7519H68.0995Z" fill="white"/>
<path d="M11.4902 32.8612C11.8434 32.8244 12.1845 32.7119 12.4902 32.5312L27.0103 24.2812L12.4902 32.5312C12.1845 32.7119 11.8434 32.8244 11.4902 32.8612Z" fill="black"/>
<path d="M10.4398 32.4586C10.1103 32.069 9.94207 31.5681 9.96974 31.0586C9.94207 31.5681 10.1103 32.069 10.4398 32.4586Z" fill="black"/>
<path d="M32.9502 20.52C33.0256 20.3572 33.0632 20.1794 33.0602 20C33.0632 20.1794 33.0256 20.3572 32.9502 20.52Z" fill="black"/>
<path d="M33.0602 20.0012C33.0349 19.6945 32.929 19.3998 32.7534 19.147C32.5778 18.8941 32.3388 18.6921 32.0602 18.5612L27.1602 15.7812L32.0602 18.5612C32.3388 18.6921 32.5778 18.8941 32.7534 19.147C32.929 19.3998 33.0349 19.6945 33.0602 20.0012Z" fill="#404040"/>
<path d="M9.96973 8.78031C10.0297 7.78031 10.5798 7.16026 11.3698 7.16026C11.0484 7.15623 10.7376 7.27417 10.4998 7.49027L10.4298 7.56028C10.1343 7.89812 9.97083 8.33146 9.96973 8.78031Z" fill="#404040"/>
<path d="M42.0503 12.2592H43.1202C43.419 12.2743 43.7179 12.2299 43.9994 12.1286C44.2809 12.0273 44.5396 11.8711 44.7603 11.6691C44.9746 11.4492 45.1412 11.1873 45.2496 10.8999C45.358 10.6125 45.4059 10.3059 45.3903 9.99915C45.4159 9.69675 45.3755 9.39241 45.2716 9.10724C45.1678 8.82208 45.0029 8.56291 44.7888 8.34784C44.5747 8.13277 44.3163 7.96694 44.0316 7.86182C43.7469 7.7567 43.4428 7.71482 43.1403 7.73914H42.0703V12.2592H42.0503ZM41.2803 12.9991V6.99915H43.1202C43.5256 6.98085 43.9304 7.04496 44.3103 7.18762C44.6902 7.33029 45.0371 7.54855 45.3302 7.82916C45.865 8.42544 46.1609 9.19818 46.1609 9.99915C46.1609 10.8001 45.865 11.5729 45.3302 12.1691C45.0371 12.4497 44.6902 12.668 44.3103 12.8107C43.9304 12.9533 43.5256 13.0174 43.1202 12.9991H41.2803Z" fill="white"/>
<path d="M42.0497 12.2584V12.3584H43.1196C43.5859 12.3419 44.0377 12.1921 44.4214 11.9268C44.8051 11.6614 45.1047 11.2916 45.2847 10.8611C45.4646 10.4307 45.5174 9.9577 45.4368 9.49817C45.3561 9.03864 45.1454 8.61187 44.8296 8.26843C44.6015 8.05391 44.3326 7.88754 44.0388 7.7793C43.745 7.67105 43.4324 7.62315 43.1196 7.63843H41.9497V12.3584H42.0497V12.2584H42.1497V7.83844H43.1497C43.4363 7.82218 43.7233 7.8643 43.9932 7.96228C44.263 8.06026 44.5101 8.21201 44.7196 8.40839C45.0948 8.85516 45.3007 9.41997 45.3007 10.0034C45.3007 10.5869 45.0948 11.1516 44.7196 11.5984C44.5084 11.7915 44.2607 11.9406 43.9911 12.0367C43.7215 12.1329 43.4355 12.1743 43.1497 12.1584H42.0796V12.2584H42.0497ZM41.2797 12.9984H41.3796V7.09839H43.1196C43.5119 7.08047 43.9037 7.14212 44.2715 7.2796C44.6393 7.41709 44.9754 7.62762 45.2596 7.89844C45.7742 8.47696 46.0583 9.2242 46.0583 9.99841C46.0583 10.7726 45.7742 11.5199 45.2596 12.0984C44.9754 12.3692 44.6393 12.5797 44.2715 12.7172C43.9037 12.8547 43.5119 12.9164 43.1196 12.8984H41.2797V12.9984V13.0984H43.1196C43.9418 13.0984 44.7303 12.7718 45.3116 12.1904C45.893 11.6091 46.2196 10.8206 46.2196 9.99841C46.2196 9.17624 45.893 8.38776 45.3116 7.8064C44.7303 7.22503 43.9418 6.89844 43.1196 6.89844H41.1797V13.0984H41.2797V12.9984Z" fill="white"/>
<path d="M47.2402 13V7H48.0102V13H47.2402Z" fill="white"/>
<path d="M47.2397 12.9984H47.3396V7.09844H47.9096V12.8984H47.2397V12.9984H47.3396H47.2397V13.0984H48.0096H48.1096V6.89844H47.2397H47.1396V13.0984H47.2397V12.9984Z" fill="white"/>
<path d="M51.0795 13.1282C50.6201 13.121 50.1739 12.9745 49.7996 12.7082C49.3854 12.4252 49.0927 11.9969 48.9795 11.5082L49.6896 11.2182C49.7673 11.5447 49.9457 11.8386 50.1996 12.0582C50.4415 12.2753 50.7544 12.3962 51.0795 12.3982C51.3881 12.4055 51.6905 12.3106 51.9396 12.1282C52.0518 12.0478 52.1423 11.9408 52.2034 11.817C52.2644 11.6932 52.2941 11.5562 52.2896 11.4182C52.2978 11.2697 52.2704 11.1214 52.2095 10.9856C52.1486 10.8499 52.056 10.7308 51.9396 10.6382C51.5924 10.4092 51.211 10.237 50.8096 10.1282C50.3606 10.0101 49.9458 9.78736 49.5995 9.47819C49.466 9.34874 49.3606 9.19312 49.29 9.02104C49.2195 8.84896 49.1853 8.66413 49.1896 8.47819C49.1898 8.26448 49.2353 8.05324 49.3232 7.85844C49.4112 7.66365 49.5395 7.48972 49.6996 7.34819C50.064 7.06036 50.5107 6.89642 50.9747 6.88023C51.4388 6.86404 51.896 6.99649 52.2795 7.25822C52.5614 7.4698 52.7766 7.7579 52.8995 8.08824L52.1896 8.37822C52.1263 8.16912 51.9964 7.98647 51.8196 7.8582C51.6026 7.68263 51.3283 7.59357 51.0496 7.6082C50.7756 7.60527 50.5083 7.69318 50.2896 7.8582C50.1924 7.92956 50.1136 8.02304 50.0597 8.13084C50.0058 8.23864 49.9783 8.35767 49.9795 8.47819C49.9806 8.58772 50.0075 8.69545 50.0579 8.79271C50.1082 8.88997 50.1808 8.97404 50.2695 9.03819C50.5268 9.22566 50.8143 9.36775 51.1195 9.45823C51.3718 9.53193 51.619 9.62208 51.8595 9.72819C52.0721 9.82576 52.2733 9.94653 52.4595 10.0882C52.6596 10.2268 52.8186 10.4168 52.9196 10.6382C53.032 10.879 53.0867 11.1426 53.0795 11.4082C53.084 11.679 53.0223 11.9468 52.8995 12.1882C52.7895 12.4071 52.624 12.5933 52.4196 12.7282C52.2242 12.8651 52.0081 12.9698 51.7795 13.0382C51.5525 13.1063 51.3165 13.1401 51.0795 13.1382V13.1282Z" fill="white"/>
<path d="M51.0801 13.1309V13.0009C50.6403 12.9966 50.2132 12.8531 49.8601 12.5909C49.4612 12.3274 49.1812 11.9182 49.0801 11.4509H48.9801V11.5408L49.6802 11.2609V11.1608H49.5801C49.666 11.5049 49.8585 11.8129 50.1301 12.0408C50.386 12.2777 50.7215 12.4098 51.0702 12.4108C51.4001 12.4159 51.7227 12.3142 51.9901 12.1209C52.1147 12.0311 52.2155 11.9121 52.2834 11.7744C52.3514 11.6367 52.3846 11.4844 52.3801 11.3309C52.391 11.1665 52.3611 11.002 52.2931 10.8519C52.2251 10.7019 52.1209 10.571 51.9901 10.4708C51.6336 10.2368 51.242 10.0613 50.8301 9.95088C50.3979 9.83098 49.9982 9.6157 49.6602 9.32088C49.5342 9.19981 49.4351 9.05349 49.3696 8.8915C49.3041 8.7295 49.2737 8.55549 49.2802 8.38088C49.2796 8.18158 49.3222 7.9845 49.405 7.80324C49.4879 7.62198 49.609 7.46087 49.7601 7.33089C50.0998 7.04856 50.5234 6.8866 50.9648 6.87032C51.4062 6.85404 51.8406 6.98432 52.2002 7.24086C52.4721 7.43434 52.678 7.70663 52.7902 8.02089H52.8901V7.93086L52.1802 8.22084V8.31087H52.2802C52.2087 8.07881 52.0651 7.87559 51.8701 7.73085C51.634 7.54562 51.34 7.45001 51.0402 7.46089C50.7441 7.45486 50.4547 7.55007 50.2201 7.73085C50.1105 7.81153 50.0218 7.91709 49.9609 8.03877C49.9001 8.16046 49.8689 8.29482 49.8701 8.43086C49.8705 8.55606 49.9006 8.67939 49.958 8.79067C50.0154 8.90194 50.0984 8.99798 50.2002 9.07088C50.4657 9.26535 50.7635 9.41095 51.0801 9.50087L51.8102 9.77089C52.0162 9.87103 52.2135 9.98808 52.4001 10.1209C52.5848 10.2529 52.73 10.4326 52.8202 10.6409C52.9258 10.8659 52.977 11.1124 52.9701 11.3609C52.9744 11.6145 52.9161 11.8653 52.8002 12.0909C52.7009 12.2966 52.549 12.4725 52.3601 12.6008C52.171 12.7312 51.9614 12.8293 51.7401 12.8909C51.5234 12.9589 51.2974 12.9926 51.0702 12.9909V13.1909C51.3179 13.1943 51.5645 13.1571 51.8002 13.0809C52.0382 13.0127 52.2641 12.9082 52.4701 12.7709C52.6826 12.6195 52.8572 12.421 52.9801 12.1909C53.1097 11.9337 53.1749 11.6488 53.1702 11.3609C53.1762 11.0824 53.1216 10.8061 53.0101 10.5509C52.8979 10.3139 52.7255 10.1105 52.5101 9.96089C52.3173 9.81578 52.1094 9.69174 51.8901 9.5909C51.6901 9.5009 51.4401 9.41087 51.1401 9.31087C50.8446 9.22896 50.5667 9.09335 50.3202 8.91084C50.2432 8.85659 50.1803 8.78475 50.1368 8.70125C50.0933 8.61775 50.0705 8.52502 50.0702 8.43086C50.0693 8.32484 50.0943 8.22024 50.1431 8.12612C50.1919 8.03199 50.2629 7.95123 50.3501 7.89089C50.5458 7.73524 50.7902 7.65373 51.0402 7.66084C51.2951 7.6504 51.5458 7.72813 51.7501 7.88088C51.9049 8.00705 52.0224 8.17296 52.0901 8.36086V8.47084L52.8901 8.13088H52.9801V8.04085C52.8577 7.6884 52.631 7.38149 52.3301 7.16084C51.9568 6.87973 51.4969 6.73825 51.0302 6.76088C50.7752 6.74641 50.52 6.78322 50.2795 6.8691C50.0391 6.95498 49.8182 7.08819 49.6301 7.26088C49.4579 7.40984 49.3196 7.59407 49.2247 7.8011C49.1298 8.00814 49.0805 8.23315 49.0801 8.46089C49.0757 8.66292 49.1125 8.86372 49.1881 9.0511C49.2638 9.23849 49.3767 9.40851 49.5201 9.55086C49.8801 9.86689 50.3077 10.0961 50.7701 10.2208C51.1625 10.319 51.5347 10.4849 51.8701 10.7109C51.9755 10.793 52.059 10.8998 52.113 11.0219C52.1671 11.1441 52.1902 11.2777 52.1802 11.4108C52.1847 11.5333 52.1587 11.655 52.1046 11.765C52.0505 11.8749 51.9699 11.9697 51.8701 12.0408C51.638 12.2095 51.357 12.2974 51.0702 12.2908C50.7696 12.2894 50.4805 12.1752 50.2601 11.9708C50.0175 11.7701 49.8457 11.4967 49.7701 11.1909V11.0809L48.9601 11.4108H48.8701V11.4909C48.9844 12.003 49.288 12.4531 49.7201 12.7509C50.112 13.0296 50.5793 13.183 51.0602 13.1909V13.0909L51.0801 13.1309Z" fill="white"/>
<path d="M54.9603 9.83029H56.2504C56.3958 9.83697 56.5411 9.81178 56.6758 9.7565C56.8105 9.70123 56.9315 9.6172 57.0304 9.51029C57.2168 9.31496 57.3208 9.05528 57.3208 8.78525C57.3208 8.51522 57.2168 8.2556 57.0304 8.06027C56.9315 7.95336 56.8105 7.86933 56.6758 7.81406C56.5411 7.75879 56.3958 7.7336 56.2504 7.74027H54.9603V9.83029ZM54.9603 13.0003H54.1904V7.00028H56.1904C56.6801 6.99187 57.1536 7.17486 57.5104 7.51029C57.6871 7.67235 57.8282 7.86935 57.9247 8.08884C58.0212 8.30833 58.071 8.54548 58.071 8.78525C58.071 9.02503 58.0212 9.26223 57.9247 9.48172C57.8282 9.70121 57.6871 9.89821 57.5104 10.0603C57.1536 10.3957 56.6801 10.5787 56.1904 10.5703H54.9204V13.0003H54.9603Z" fill="white"/>
<path d="M54.9598 9.82871V9.92869H56.2499C56.4092 9.93385 56.5677 9.90436 56.7145 9.8422C56.8612 9.78004 56.9927 9.68671 57.0999 9.5687C57.3057 9.35925 57.421 9.07732 57.421 8.78367C57.421 8.49002 57.3057 8.20814 57.0999 7.9987C56.9927 7.88069 56.8612 7.78736 56.7145 7.7252C56.5677 7.66304 56.4092 7.63355 56.2499 7.63871H54.8599V9.92869H54.9598V9.82871H55.0599V7.82871H56.2499C56.381 7.82039 56.5122 7.84216 56.6335 7.89243C56.7549 7.9427 56.8632 8.02011 56.95 8.11869C57.118 8.29804 57.214 8.53302 57.2198 8.77872C57.2116 9.02095 57.1157 9.2519 56.95 9.42869C56.8618 9.52555 56.7533 9.60176 56.6323 9.65189C56.5113 9.70202 56.3807 9.72481 56.2499 9.71867H54.9598V9.8187V9.82871ZM54.9598 12.9987V12.8987H54.2899V7.09867H56.2299C56.6931 7.08988 57.1415 7.26212 57.4799 7.57871C57.6476 7.73147 57.7815 7.91754 57.8732 8.12504C57.9648 8.33253 58.0122 8.55683 58.0122 8.78367C58.0122 9.01051 57.9648 9.23487 57.8732 9.44236C57.7815 9.64985 57.6476 9.83593 57.4799 9.98869C57.1415 10.3053 56.6931 10.4775 56.2299 10.4687H54.8599V12.9987H54.9598H55.0599V10.6687H56.2299C56.7441 10.6773 57.2419 10.4875 57.6199 10.1387C57.8061 9.96556 57.9547 9.75588 58.0563 9.52274C58.1579 9.28961 58.2103 9.03798 58.2103 8.78367C58.2103 8.52936 58.1579 8.27779 58.0563 8.04465C57.9547 7.81152 57.8061 7.60183 57.6199 7.42869C57.2419 7.07987 56.7441 6.89009 56.2299 6.89872H54.0898V13.0987H55.0898V12.9987H54.9598Z" fill="white"/>
<path d="M60.1597 11.7181C60.3693 11.9384 60.6224 12.1127 60.9031 12.2297C61.1837 12.3468 61.4857 12.4042 61.7897 12.3981C62.0934 12.4023 62.3948 12.3441 62.6752 12.2272C62.9555 12.1102 63.209 11.9369 63.4197 11.7181C63.8448 11.2461 64.0801 10.6334 64.0801 9.99811C64.0801 9.36286 63.8448 8.75015 63.4197 8.27814C63.209 8.0593 62.9555 7.88601 62.6752 7.76904C62.3948 7.65208 62.0934 7.59387 61.7897 7.59808C61.4857 7.59206 61.1837 7.64941 60.9031 7.76648C60.6224 7.88355 60.3693 8.05784 60.1597 8.27814C59.7282 8.74701 59.4886 9.36091 59.4886 9.99811C59.4886 10.6353 59.7282 11.2492 60.1597 11.7181ZM63.9896 12.2181C63.7008 12.5071 63.3578 12.7365 62.9803 12.8929C62.6029 13.0494 62.1983 13.1299 61.7897 13.1299C61.381 13.1299 60.9764 13.0494 60.5989 12.8929C60.2214 12.7365 59.8784 12.5071 59.5896 12.2181C59.0175 11.6206 58.6982 10.8253 58.6982 9.99811C58.6982 9.17089 59.0175 8.37563 59.5896 7.77814C59.8776 7.48939 60.2198 7.26026 60.5964 7.10394C60.9731 6.94763 61.3769 6.86719 61.7847 6.86719C62.1925 6.86719 62.5962 6.94763 62.9729 7.10394C63.3496 7.26026 63.6916 7.48939 63.9796 7.77814C64.2685 8.07013 64.4961 8.41696 64.6489 8.79822C64.8018 9.17947 64.8768 9.58742 64.8696 9.99811C64.8828 10.4087 64.8114 10.8176 64.66 11.1995C64.5087 11.5813 64.2805 11.928 63.9896 12.2181Z" fill="white"/>
<path d="M60.1604 11.719L60.0903 11.789C60.3126 12.0139 60.5774 12.1926 60.8693 12.3145C61.1611 12.4363 61.4742 12.4991 61.7904 12.4991C62.1067 12.4991 62.4197 12.4363 62.7115 12.3145C63.0034 12.1926 63.2681 12.0139 63.4904 11.789C63.9338 11.2983 64.1793 10.6604 64.1793 9.99902C64.1793 9.33763 63.9338 8.69979 63.4904 8.20905C63.2681 7.9841 63.0034 7.80549 62.7115 7.68359C62.4197 7.5617 62.1067 7.49896 61.7904 7.49896C61.4742 7.49896 61.1611 7.5617 60.8693 7.68359C60.5774 7.80549 60.3126 7.9841 60.0903 8.20905C59.6406 8.69664 59.3909 9.33566 59.3909 9.99902C59.3909 10.6624 59.6406 11.3014 60.0903 11.789L60.1604 11.719L60.2303 11.649C59.8193 11.1978 59.5914 10.6094 59.5914 9.99902C59.5914 9.38864 59.8193 8.80021 60.2303 8.349C60.4315 8.13899 60.674 7.97288 60.9425 7.86102C61.211 7.74917 61.4996 7.69402 61.7904 7.69904C62.0798 7.69358 62.367 7.74855 62.6339 7.86047C62.9008 7.9724 63.1414 8.13878 63.3403 8.349C63.7452 8.80327 63.9689 9.39054 63.9689 9.99902C63.9689 10.6075 63.7452 11.1948 63.3403 11.649C63.1359 11.8546 62.8928 12.0178 62.6251 12.1291C62.3574 12.2404 62.0703 12.2978 61.7804 12.2978C61.4904 12.2978 61.2034 12.2404 60.9357 12.1291C60.6679 12.0178 60.4248 11.8546 60.2203 11.649L60.1504 11.719H60.1604ZM63.9904 12.219L63.9104 12.149C63.6317 12.4287 63.3004 12.6506 62.9358 12.802C62.5711 12.9534 62.1802 13.0314 61.7854 13.0314C61.3906 13.0314 60.9995 12.9534 60.6349 12.802C60.2702 12.6506 59.9391 12.4287 59.6604 12.149C59.1089 11.5691 58.8014 10.7993 58.8014 9.99902C58.8014 9.1987 59.1089 8.42896 59.6604 7.849C59.9391 7.56932 60.2702 7.34746 60.6349 7.19604C60.9995 7.04463 61.3906 6.96667 61.7854 6.96667C62.1802 6.96667 62.5711 7.04463 62.9358 7.19604C63.3004 7.34746 63.6317 7.56932 63.9104 7.849C64.4619 8.42896 64.7694 9.1987 64.7694 9.99902C64.7694 10.7993 64.4619 11.5691 63.9104 12.149L63.9904 12.219L64.0604 12.289C64.6486 11.6716 64.9766 10.8517 64.9766 9.99902C64.9766 9.14636 64.6486 8.32641 64.0604 7.70905C63.7632 7.41122 63.4101 7.17489 63.0215 7.01367C62.6328 6.85246 62.2162 6.76953 61.7954 6.76953C61.3746 6.76953 60.958 6.85246 60.5693 7.01367C60.1807 7.17489 59.8276 7.41122 59.5304 7.70905C58.94 8.32524 58.6104 9.14563 58.6104 9.99902C58.6104 10.8524 58.94 11.6728 59.5304 12.289C59.8285 12.5871 60.1824 12.8236 60.5719 12.985C60.9614 13.1463 61.3788 13.2294 61.8004 13.2294C62.222 13.2294 62.6394 13.1463 63.0289 12.985C63.4184 12.8236 63.7724 12.5871 64.0704 12.289L64.0004 12.219H63.9904Z" fill="white"/>
<path d="M65.9502 13V7H66.8902L69.8102 11.67H69.8402L69.8102 10.51V7H70.5802V13H69.7702L66.7202 8.11H66.6902L66.7202 9.26V13H65.9502Z" fill="white"/>
<path d="M65.9496 12.9984H66.0496V7.09844H66.8296L69.7496 11.7684H69.8396H69.9396L69.9096 10.5084V7.09844H70.4796V12.8984H69.8296L66.7796 8.00844H66.6896H66.5796L66.6196 9.25844V12.8984H65.9496V12.9984H66.0496H65.9496V13.0984H66.7196H66.8196V9.25844L66.7896 8.09844L66.6896 8.10844V8.20844H66.7196V8.10844L66.6396 8.15844L69.7196 13.0984H70.5796H70.6796V6.89844H69.8096H69.7096V10.5084L69.7396 11.6684H69.8396V11.5684H69.8096V11.6684L69.8896 11.6184L66.9396 6.89844H65.9496H65.8496V13.0984H65.9496V12.9984Z" fill="white"/>
<path d="M71.9502 13V7H72.7202V13H71.9502Z" fill="white"/>
<path d="M71.9496 12.9984H72.0496V7.09844H72.6196V12.8984H71.9496V12.9984H72.0496H71.9496V13.0984H72.7196H72.8196V6.89844H71.9496H71.8496V13.0984H71.9496V12.9984Z" fill="white"/>
<path d="M74.8696 12.2601H76.3896C76.5251 12.2646 76.6598 12.2392 76.7843 12.1856C76.9088 12.132 77.0198 12.0516 77.1096 11.9501C77.2859 11.7672 77.3861 11.5241 77.3896 11.2701C77.3809 11.0182 77.2773 10.7788 77.0996 10.6C77.0032 10.4988 76.8868 10.4189 76.7576 10.3655C76.6284 10.3121 76.4893 10.2864 76.3496 10.29H74.8396V12.29L74.8696 12.2601ZM74.8696 9.57006H76.2697C76.4005 9.57621 76.5311 9.55342 76.6521 9.50329C76.7731 9.45316 76.8815 9.37695 76.9696 9.28009C77.1329 9.11055 77.2258 8.88542 77.2296 8.65008C77.2298 8.53314 77.207 8.4173 77.1624 8.3092C77.1177 8.2011 77.0522 8.10286 76.9696 8.02008C76.8855 7.92682 76.7819 7.85334 76.666 7.80493C76.5502 7.75651 76.4251 7.73434 76.2997 7.74005H74.8696V9.57006ZM74.0996 13.0001V7.00006H76.2697C76.7193 6.99651 77.1542 7.16051 77.4896 7.46008C77.6538 7.60689 77.7844 7.78739 77.8724 7.98931C77.9605 8.19124 78.0039 8.40982 77.9996 8.63006C78.0064 8.90001 77.9296 9.16547 77.7797 9.39007C77.632 9.60478 77.4279 9.77438 77.1897 9.88006C77.4798 9.97608 77.7341 10.1573 77.9197 10.4001C78.1077 10.643 78.2065 10.943 78.1997 11.2501C78.2048 11.4806 78.159 11.7094 78.0657 11.9203C77.9723 12.1311 77.8337 12.3188 77.6597 12.47C77.3137 12.7948 76.854 12.9708 76.3796 12.9601L74.0996 13.0001Z" fill="white"/>
<path d="M74.87 12.2598V12.3597H76.39C76.5387 12.3654 76.6868 12.3379 76.8235 12.279C76.9602 12.2202 77.082 12.1316 77.1801 12.0198C77.3743 11.8179 77.485 11.5499 77.49 11.2698C77.485 10.9906 77.37 10.7247 77.17 10.5298C77.0653 10.4182 76.9379 10.3302 76.7965 10.2716C76.6551 10.213 76.5029 10.1851 76.35 10.1898H74.74V12.3597H74.84V12.2598H74.9401V10.3898H76.39C76.5171 10.3825 76.6441 10.4039 76.7618 10.4524C76.8795 10.5008 76.9849 10.5751 77.0701 10.6697C77.2265 10.8317 77.3188 11.0449 77.33 11.2698C77.3227 11.5014 77.2302 11.7222 77.0701 11.8898C76.9901 11.9794 76.8911 12.0502 76.7804 12.0969C76.6697 12.1436 76.5501 12.165 76.4301 12.1597H74.88V12.2598H74.87ZM74.87 9.56976V9.66973H76.27C76.4138 9.67494 76.5571 9.64909 76.6899 9.59386C76.8228 9.53864 76.9423 9.45533 77.04 9.34972C77.2248 9.16346 77.3289 8.91211 77.33 8.64977C77.3289 8.3923 77.2287 8.14515 77.05 7.95977C76.9545 7.85674 76.8383 7.77498 76.7091 7.71984C76.5799 7.6647 76.4405 7.63742 76.3 7.63976H74.77V9.63976H74.87V9.53973H74.97V7.80975H76.3C76.4125 7.803 76.5249 7.82202 76.6289 7.86535C76.7329 7.90867 76.8256 7.97516 76.9 8.05975C77.0471 8.20908 77.1297 8.41015 77.13 8.61974C77.1298 8.72593 77.1086 8.83102 77.0674 8.92889C77.0262 9.02675 76.9658 9.11542 76.89 9.18975C76.8121 9.27534 76.7159 9.34227 76.6085 9.38555C76.5012 9.42883 76.3855 9.44735 76.27 9.43975H74.87V9.53973V9.56976ZM74.1 12.9997H74.2001V7.09972H76.27C76.695 7.09656 77.1057 7.25366 77.42 7.53973C77.5753 7.67495 77.6988 7.84278 77.7817 8.03118C77.8647 8.21959 77.9051 8.42395 77.9 8.62975C77.9043 8.87776 77.8347 9.12144 77.7001 9.32977C77.5665 9.53432 77.375 9.69442 77.15 9.78973H77.09V9.99975H77.16C77.4284 10.0956 77.6641 10.2655 77.84 10.4897C78.0157 10.7149 78.1077 10.9942 78.1 11.2798C78.1066 11.4965 78.0652 11.7119 77.9788 11.9108C77.8923 12.1096 77.763 12.2868 77.6 12.4297C77.2667 12.7327 76.8304 12.8973 76.38 12.8898H74.1V12.9897V13.0898H76.39C76.8878 13.0937 77.3691 12.9118 77.74 12.5798C77.9241 12.4178 78.0706 12.2175 78.1691 11.9929C78.2675 11.7683 78.3157 11.5249 78.3101 11.2798C78.3137 10.9485 78.2082 10.6252 78.01 10.3597C77.809 10.1044 77.5379 9.9133 77.23 9.80975V9.90972H77.33H77.23V9.99975C77.488 9.88969 77.7074 9.70513 77.86 9.46972C78.0227 9.23145 78.1066 8.94817 78.1 8.65972C78.1047 8.42536 78.0579 8.19284 77.9629 7.97857C77.8678 7.76429 77.727 7.57351 77.55 7.41973C77.2002 7.10115 76.7431 6.92619 76.27 6.92974H74V13.1298H74.1V12.9997Z" fill="white"/>
<path d="M79.2402 13V7H80.0102V12.26H82.6102V13H79.2402Z" fill="white"/>
<path d="M79.2396 12.9984H79.3396V7.09844H79.9097V12.3584H82.5097V12.8984H79.2396V12.9984H79.3396H79.2396V13.0984H82.7096V12.2584V12.1584H80.1096V6.89844H79.2396H79.1396V13.0984H79.2396V12.9984Z" fill="white"/>
<path d="M87.0801 7.74H84.3501V9.64H86.8201V10.36H84.3501V12.26H87.0801V13H83.5801V7H87.0801V7.74Z" fill="white"/>
<path d="M87.0805 7.73844V7.63844H84.2505V9.73844H86.7205V10.2584H84.2505V12.3584H86.9805V12.8984H83.6805V7.09844H86.9805V7.73844H87.0805V7.63844V7.73844H87.1905V6.99844V6.89844H83.4805V13.0984H87.1905V12.2584V12.1584H84.4505V10.4584H86.9205V9.63844V9.53844H84.4505V7.83844H87.1905V7.73844H87.0805Z" fill="white"/>
<path d="M93.8098 7.74H91.0698V9.64H93.5398V10.36H91.0698V12.26H93.8098V13H90.2998V7H93.8098V7.74Z" fill="white"/>
<path d="M93.8102 7.73844V7.63844H90.9702V9.73844H93.4402V10.2584H90.9702V12.3584H93.7102V12.8984H90.4002V7.09844H93.7102V7.73844H93.8102V7.63844V7.73844H93.9102V6.99844V6.89844H90.2002V13.0984H93.9102V12.2584V12.1584H91.1702V10.4584H93.6402V9.63844V9.53844H91.1702V7.83844H93.9102V7.73844H93.8102Z" fill="white"/>
<path d="M95.0098 13V7H95.9498L98.8698 11.67H98.8998L98.8698 10.51V7H99.6398V13H98.8298L95.7798 8.11H95.7498L95.7798 9.26V13H95.0098Z" fill="white"/>
<path d="M95.0102 12.9984H95.1102V7.09844H95.8902L98.8102 11.7684H98.9002H99.0002L98.9702 10.5084V7.09844H99.5402V12.8984H98.8902L95.8401 8.00844H95.7502H95.6502L95.6802 9.25844V12.8984H95.0102V12.9984H95.1102H95.0102V13.0984H95.7802H95.8801V9.25844L95.8502 8.09844L95.7502 8.10844V8.20844H95.7802V8.10844L95.7001 8.15844L98.7802 13.0984H99.6402H99.7402V6.89844H98.8702H98.7701V10.5084L98.8002 11.6684H98.9002V11.5684H98.8702V11.6684L98.9501 11.6184L96.0102 6.89844H95.0102H94.9102V13.0984H95.0102V12.9984Z" fill="white"/>
<path d="M28.7041 24.2462C31.749 22.528 34.0572 21.2187 34.2562 21.1169C34.8926 20.7691 35.5499 19.8484 34.2562 19.1332C33.8385 18.9083 31.5895 17.6398 28.7041 16.0039L24.7041 20.1556L28.7041 24.2461V24.2462Z" fill="#FFD900"/>
<path d="M24.7062 20.1523L11.9697 33.3448C12.2687 33.3855 12.6062 33.3041 13.0041 33.0792C13.8395 32.6093 22.6958 27.6387 28.7062 24.2439L24.7062 20.1523Z" fill="#F43249"/>
<path d="M24.7074 20.154L28.7074 16.0227C28.7074 16.0227 13.9012 7.71821 13.0053 7.22799C12.6678 7.02255 12.2896 6.96152 11.9512 7.02255L24.7074 20.154Z" fill="#00EE76"/>
<path d="M24.7056 20.151L11.9493 7.01953C11.4316 7.14255 10.9941 7.61262 10.9941 8.57398V31.789C10.9941 32.6689 11.3327 33.3027 11.9691 33.3638L24.7056 20.151Z" fill="#00D3FF"/>
</g>
<defs>
<clipPath id="clip0_324_53320">
<rect width="135" height="40" fill="white"/>
</clipPath>
</defs>
</svg>
