<svg width="80" height="24" viewBox="0 0 80 24" fill="none" xmlns="http://www.w3.org/2000/svg">
<g clip-path="url(#clip0)">
<path d="M36.5567 20.7866C33.586 20.7866 31.4969 19.1674 31.3574 16.8546H33.5399C33.6557 18.0805 34.7464 19.0055 36.5336 19.0055C38.2051 19.0055 39.1333 18.173 39.1333 17.1326C39.1333 14.3104 31.6157 15.9526 31.6157 11.234C31.6157 9.29094 33.449 7.69531 36.2839 7.69531C39.0921 7.69531 40.949 9.19851 41.0885 11.6732H38.9672C38.8744 10.4044 37.8995 9.47643 36.2051 9.47643C34.65 9.47643 33.7194 10.2165 33.7194 11.234C33.7194 14.241 41.1 12.5988 41.1927 17.1326C41.1952 19.2139 39.3618 20.7866 36.5567 20.7866Z" fill="#151516"/>
<path d="M49.0634 20.7851C45.4428 20.7851 42.7734 18.2409 42.7734 14.2165C42.7734 10.2151 45.35 7.69141 49.0634 7.69141C52.7537 7.69141 55.1678 10.2815 55.1678 13.7513C55.1687 14.1778 55.1454 14.604 55.0981 15.0279H45.1663C45.1366 15.0277 45.1072 15.0337 45.08 15.0455C45.0527 15.0573 45.0283 15.0747 45.0082 15.0965C44.9881 15.1183 44.9728 15.144 44.9633 15.1721C44.9537 15.2001 44.9502 15.2298 44.9529 15.2593C45.2064 17.6797 46.9718 19.0052 49.0646 19.0052C50.9677 19.0052 52.1747 18.0343 52.6415 16.6695H54.9162C54.2603 18.981 52.2202 20.7851 49.0634 20.7851ZM45.1961 13.3145H52.7689C52.7973 13.3146 52.8256 13.3091 52.8519 13.2982C52.8782 13.2874 52.9021 13.2713 52.9221 13.2511C52.9421 13.2309 52.9578 13.2069 52.9684 13.1805C52.9789 13.1542 52.984 13.126 52.9835 13.0976C52.8992 10.76 51.0877 9.47252 48.9706 9.47252C46.9742 9.47252 45.3034 10.7467 44.9839 13.0656C44.979 13.0962 44.9808 13.1275 44.9892 13.1574C44.9976 13.1873 45.0124 13.215 45.0325 13.2386C45.0527 13.2623 45.0777 13.2813 45.106 13.2944C45.1342 13.3075 45.1649 13.3143 45.1961 13.3145Z" fill="#151516"/>
<path d="M57.2793 3.46094H59.3915V20.5773H57.2793V3.46094Z" fill="#151516"/>
<path d="M62.1525 4.69756C62.1496 4.50847 62.1848 4.32072 62.256 4.14544C62.3273 3.97017 62.4331 3.81095 62.5673 3.67723C62.7015 3.5435 62.8613 3.43801 63.0371 3.367C63.213 3.29598 63.4014 3.26091 63.5911 3.26384C64.3568 3.26384 64.9855 3.88856 64.9855 4.69756C64.9855 5.50655 64.3587 6.13187 63.5911 6.13187C63.4014 6.13481 63.2129 6.09971 63.037 6.02867C62.8611 5.95762 62.7013 5.85207 62.5671 5.71828C62.4329 5.58449 62.3271 5.4252 62.2558 5.24986C62.1846 5.07451 62.1495 4.8867 62.1525 4.69756Z" fill="#151516"/>
<path d="M64.6122 7.90234H62.5V20.5774H64.6122V7.90234Z" fill="#151516"/>
<path d="M73.1304 7.69531C75.1523 7.69531 76.6321 8.57258 77.4839 9.64983C77.5114 9.68468 77.549 9.71013 77.5916 9.72263C77.6343 9.73512 77.6798 9.73405 77.7218 9.71954C77.7637 9.70504 77.8001 9.67784 77.8259 9.64173C77.8516 9.60562 77.8654 9.5624 77.8653 9.51811V7.90375H80.0005V20.5788H77.8653V18.9227C77.8655 18.8783 77.8518 18.8349 77.8261 18.7986C77.8003 18.7623 77.7638 18.735 77.7217 18.7205C77.6795 18.706 77.6339 18.705 77.5911 18.7176C77.5484 18.7303 77.5107 18.7559 77.4833 18.791C76.614 19.9033 75.1189 20.7848 73.1074 20.7848C69.7184 20.7848 67.0957 18.1264 67.0957 14.1932C67.0957 10.2395 69.7202 7.69531 73.1304 7.69531ZM73.5481 9.52234C71.2274 9.52234 69.254 11.214 69.254 14.195C69.254 17.1761 71.2274 18.9366 73.5481 18.9366C75.8689 18.9366 77.8653 17.2014 77.8653 14.218C77.8653 11.2835 75.8689 9.52234 73.5481 9.52234Z" fill="#151516"/>
<path d="M12.6106 11.655C11.4705 11.6552 10.356 11.3184 9.40797 10.6872C8.45996 10.0561 7.72104 9.15894 7.28466 8.10928C6.84828 7.05962 6.73404 5.90457 6.95639 4.7902C7.17874 3.67584 7.72769 2.6522 8.53381 1.84876C9.33994 1.04532 10.367 0.498144 11.4852 0.276442C12.6034 0.0547394 13.7624 0.168465 14.8158 0.603235C15.8691 1.03801 16.7694 1.77429 17.4028 2.71899C18.0362 3.66368 18.3743 4.77435 18.3743 5.91053C18.3727 7.43347 17.765 8.89359 16.6844 9.97053C15.6039 11.0475 14.1388 11.6533 12.6106 11.655ZM12.6106 1.73688C11.7824 1.73688 10.9728 1.98162 10.2842 2.44016C9.59558 2.8987 9.05887 3.55044 8.74194 4.31297C8.425 5.07549 8.34208 5.91455 8.50365 6.72405C8.66522 7.53354 9.06403 8.2771 9.64966 8.86071C10.2353 9.44433 10.9814 9.84177 11.7937 10.0028C12.606 10.1638 13.4479 10.0812 14.2131 9.76532C14.9782 9.44947 15.6322 8.9146 16.0923 8.22835C16.5524 7.54209 16.798 6.73528 16.798 5.90992C16.7967 4.80356 16.3552 3.74287 15.5701 2.96055C14.7851 2.17823 13.7208 1.73816 12.6106 1.73688Z" fill="#151516"/>
<path d="M17.7258 12.3125C16.1028 13.693 14.8212 15.8669 12.6205 15.8669C10.4198 15.8669 9.16481 13.6918 7.54065 12.3113C5.08894 10.2251 2.79426 10.6329 1.26103 11.9433C-0.0248449 13.0423 -0.816012 15.3346 1.36227 18.1996C5.54849 23.7079 11.5898 23.8275 12.6211 23.8275C14.1907 23.8275 19.6779 23.7067 23.8629 18.1917C26.0394 15.3243 25.2525 13.0659 23.9048 11.9234C22.4316 10.6782 20.1793 10.2245 17.7258 12.3125ZM19.1614 13.1583C20.7698 11.8636 22.3139 12.6315 22.7589 12.9934C23.3009 13.4345 24.1703 14.6676 23.1997 16.1732C21.8023 18.3404 16.9001 18.3766 14.6612 17.7048C14.621 17.6933 14.5849 17.6709 14.5569 17.6399C14.529 17.6089 14.5105 17.5707 14.5034 17.5297C14.4963 17.4887 14.5009 17.4465 14.5168 17.408C14.5327 17.3695 14.5592 17.3362 14.5933 17.3121C15.6239 16.6263 18.5818 13.626 19.1614 13.1596V13.1583ZM12.6211 22.2585C12.1925 22.2585 6.43726 22.3992 2.50931 17.074C1.12765 15.2011 1.49747 13.7094 2.44869 13.0025C4.13833 11.7458 5.59759 12.5258 7.29875 14.264C10.5841 17.616 13.0103 20.2888 19.8337 19.4732C20.0647 19.446 20.1908 19.7348 20.0035 19.8726C17.8615 21.433 15.2744 22.2691 12.6211 22.2585Z" fill="#151516"/>
<path d="M12.6106 11.655C11.4705 11.6552 10.356 11.3184 9.40797 10.6872C8.45996 10.0561 7.72104 9.15894 7.28466 8.10928C6.84828 7.05962 6.73404 5.90457 6.95639 4.7902C7.17874 3.67584 7.72769 2.6522 8.53381 1.84876C9.33994 1.04532 10.367 0.498144 11.4852 0.276442C12.6034 0.0547394 13.7624 0.168465 14.8158 0.603235C15.8691 1.03801 16.7694 1.77429 17.4028 2.71899C18.0362 3.66368 18.3743 4.77435 18.3743 5.91053C18.3727 7.43347 17.765 8.89359 16.6844 9.97053C15.6039 11.0475 14.1388 11.6533 12.6106 11.655ZM12.6106 1.73688C11.7824 1.73688 10.9728 1.98162 10.2842 2.44016C9.59558 2.8987 9.05887 3.55044 8.74194 4.31297C8.425 5.07549 8.34208 5.91455 8.50365 6.72405C8.66522 7.53354 9.06403 8.2771 9.64966 8.86071C10.2353 9.44433 10.9814 9.84177 11.7937 10.0028C12.606 10.1638 13.4479 10.0812 14.2131 9.76532C14.9782 9.44947 15.6322 8.9146 16.0923 8.22835C16.5524 7.54209 16.798 6.73528 16.798 5.90992C16.7967 4.80356 16.3552 3.74287 15.5701 2.96055C14.7851 2.17823 13.7208 1.73816 12.6106 1.73688Z" fill="#8350E6"/>
<path d="M17.7258 12.3125C16.1028 13.693 14.8212 15.8669 12.6205 15.8669C10.4198 15.8669 9.16481 13.6918 7.54065 12.3113C5.08894 10.2251 2.79426 10.6329 1.26103 11.9433C-0.0248449 13.0423 -0.816012 15.3346 1.36227 18.1996C5.54849 23.7079 11.5898 23.8275 12.6211 23.8275C14.1907 23.8275 19.6779 23.7067 23.8629 18.1917C26.0394 15.3243 25.2525 13.0659 23.9048 11.9234C22.4316 10.6782 20.1793 10.2245 17.7258 12.3125ZM19.1614 13.1583C20.7698 11.8636 22.3139 12.6315 22.7589 12.9934C23.3009 13.4345 24.1703 14.6676 23.1997 16.1732C21.8023 18.3404 16.9001 18.3766 14.6612 17.7048C14.621 17.6933 14.5849 17.6709 14.5569 17.6399C14.529 17.6089 14.5105 17.5707 14.5034 17.5297C14.4963 17.4887 14.5009 17.4465 14.5168 17.408C14.5327 17.3695 14.5592 17.3362 14.5933 17.3121C15.6239 16.6263 18.5818 13.626 19.1614 13.1596V13.1583ZM12.6211 22.2585C12.1925 22.2585 6.43726 22.3992 2.50931 17.074C1.12765 15.2011 1.49747 13.7094 2.44869 13.0025C4.13833 11.7458 5.59759 12.5258 7.29875 14.264C10.5841 17.616 13.0103 20.2888 19.8337 19.4732C20.0647 19.446 20.1908 19.7348 20.0035 19.8726C17.8615 21.433 15.2744 22.2691 12.6211 22.2585Z" fill="#8350E6"/>
</g>
<defs>
<clipPath id="clip0">
<rect width="80" height="23.662" fill="white" transform="translate(0 0.166016)"/>
</clipPath>
</defs>
</svg>
