<svg width="56" height="58" viewBox="0 0 56 58" fill="none" xmlns="http://www.w3.org/2000/svg">
<path d="M0 28.418C0 12.954 12.536 0.417969 28 0.417969C43.464 0.417969 56 12.954 56 28.418V29.5846C56 45.0486 43.464 57.5846 28 57.5846C12.536 57.5846 0 45.0486 0 29.5846V28.418Z" fill="#8350E6"/>
<path d="M33.3337 22.0903C33.3337 25.1388 30.9417 27.6181 28.0003 27.6181C25.059 27.6181 22.667 25.1388 22.667 22.0903C22.667 19.0417 25.059 16.5625 28.0003 16.5625C30.9417 16.5625 33.3337 19.0417 33.3337 22.0903Z" fill="#CDB9F5"/>
<path d="M37.3337 40.0556C37.3337 40.8184 36.7377 41.4375 36.0003 41.4375H20.0003C19.263 41.4375 18.667 40.8184 18.667 40.0556C18.667 34.7213 22.855 30.3819 28.0003 30.3819C33.1457 30.3819 37.3337 34.7213 37.3337 40.0556Z" fill="#CDB9F5"/>
</svg>
