<svg width="56" height="58" viewBox="0 0 56 58" fill="none" xmlns="http://www.w3.org/2000/svg">
<path d="M0 28.418C0 12.954 12.536 0.417969 28 0.417969C43.464 0.417969 56 12.954 56 28.418V29.5846C56 45.0486 43.464 57.5846 28 57.5846C12.536 57.5846 0 45.0486 0 29.5846V28.418Z" fill="#36BF8D"/>
<path d="M28.0002 41.4377C27.8247 41.4388 27.6507 41.4039 27.4883 41.3351C27.3258 41.2664 27.1781 41.165 27.0535 41.037L16.6935 30.2854C15.394 28.9245 14.665 27.087 14.665 25.1722C14.665 23.2575 15.394 21.42 16.6935 20.059C18.0032 18.7054 19.7773 17.9453 21.6268 17.9453C23.4764 17.9453 25.2505 18.7054 26.5602 20.059L28.0002 21.5515L29.4402 20.059C30.7498 18.7054 32.5239 17.9453 34.3735 17.9453C36.223 17.9453 37.9971 18.7054 39.3068 20.059C40.6063 21.42 41.3353 23.2575 41.3353 25.1722C41.3353 27.087 40.6063 28.9245 39.3068 30.2854L28.9468 41.037C28.8222 41.165 28.6745 41.2664 28.512 41.3351C28.3496 41.4039 28.1756 41.4388 28.0002 41.4377Z" fill="#BFEDDC"/>
</svg>
